<svg width="20" height="20" viewBox="0 0 20 20" fill="none" xmlns="http://www.w3.org/2000/svg">
<mask id="mask0_811_287" style="mask-type:alpha" maskUnits="userSpaceOnUse" x="0" y="0" width="20" height="20">
<rect width="20" height="20" fill="#D9D9D9"/>
</mask>
<g mask="url(#mask0_811_287)">
<path d="M4.87484 14.2503C5.58317 13.7087 6.37484 13.2816 7.24984 12.9691C8.12484 12.6566 9.0415 12.5003 9.99984 12.5003C10.9582 12.5003 11.8748 12.6566 12.7498 12.9691C13.6248 13.2816 14.4165 13.7087 15.1248 14.2503C15.6109 13.6809 15.9894 13.035 16.2603 12.3128C16.5311 11.5906 16.6665 10.8198 16.6665 10.0003C16.6665 8.1531 16.0172 6.58019 14.7186 5.28158C13.42 3.98296 11.8471 3.33366 9.99984 3.33366C8.15262 3.33366 6.5797 3.98296 5.28109 5.28158C3.98248 6.58019 3.33317 8.1531 3.33317 10.0003C3.33317 10.8198 3.46859 11.5906 3.73942 12.3128C4.01025 13.035 4.38873 13.6809 4.87484 14.2503ZM9.99984 10.8337C9.18039 10.8337 8.48942 10.5524 7.92692 9.98991C7.36442 9.42741 7.08317 8.73644 7.08317 7.91699C7.08317 7.09755 7.36442 6.40658 7.92692 5.84408C8.48942 5.28158 9.18039 5.00033 9.99984 5.00033C10.8193 5.00033 11.5103 5.28158 12.0728 5.84408C12.6353 6.40658 12.9165 7.09755 12.9165 7.91699C12.9165 8.73644 12.6353 9.42741 12.0728 9.98991C11.5103 10.5524 10.8193 10.8337 9.99984 10.8337ZM9.99984 18.3337C8.84706 18.3337 7.76373 18.1149 6.74984 17.6774C5.73595 17.2399 4.854 16.6462 4.104 15.8962C3.354 15.1462 2.76025 14.2642 2.32275 13.2503C1.88525 12.2364 1.6665 11.1531 1.6665 10.0003C1.6665 8.84755 1.88525 7.76421 2.32275 6.75033C2.76025 5.73644 3.354 4.85449 4.104 4.10449C4.854 3.35449 5.73595 2.76074 6.74984 2.32324C7.76373 1.88574 8.84706 1.66699 9.99984 1.66699C11.1526 1.66699 12.2359 1.88574 13.2498 2.32324C14.2637 2.76074 15.1457 3.35449 15.8957 4.10449C16.6457 4.85449 17.2394 5.73644 17.6769 6.75033C18.1144 7.76421 18.3332 8.84755 18.3332 10.0003C18.3332 11.1531 18.1144 12.2364 17.6769 13.2503C17.2394 14.2642 16.6457 15.1462 15.8957 15.8962C15.1457 16.6462 14.2637 17.2399 13.2498 17.6774C12.2359 18.1149 11.1526 18.3337 9.99984 18.3337ZM9.99984 16.667C10.7359 16.667 11.4304 16.5594 12.0832 16.3441C12.7359 16.1288 13.3332 15.8198 13.8748 15.417C13.3332 15.0142 12.7359 14.7052 12.0832 14.4899C11.4304 14.2746 10.7359 14.167 9.99984 14.167C9.26373 14.167 8.56928 14.2746 7.9165 14.4899C7.26373 14.7052 6.6665 15.0142 6.12484 15.417C6.6665 15.8198 7.26373 16.1288 7.9165 16.3441C8.56928 16.5594 9.26373 16.667 9.99984 16.667ZM9.99984 9.16699C10.3609 9.16699 10.6596 9.04894 10.8957 8.81283C11.1318 8.57671 11.2498 8.2781 11.2498 7.91699C11.2498 7.55588 11.1318 7.25727 10.8957 7.02116C10.6596 6.78505 10.3609 6.66699 9.99984 6.66699C9.63873 6.66699 9.34012 6.78505 9.104 7.02116C8.86789 7.25727 8.74984 7.55588 8.74984 7.91699C8.74984 8.2781 8.86789 8.57671 9.104 8.81283C9.34012 9.04894 9.63873 9.16699 9.99984 9.16699Z" fill="#002935"/>
</g>
</svg>
