<svg width="13" height="13" viewBox="0 0 13 13" fill="none" xmlns="http://www.w3.org/2000/svg">
<path d="M3.7915 1.58301C3.7915 1.23783 4.07133 0.958008 4.4165 0.958008H11.9165C12.2617 0.958008 12.5415 1.23783 12.5415 1.58301V9.08301C12.5415 9.42817 12.2617 9.70801 11.9165 9.70801C11.5713 9.70801 11.2915 9.42817 11.2915 9.08301V2.20801H4.4165C4.07133 2.20801 3.7915 1.92818 3.7915 1.58301Z" fill="white"/>
<path d="M12.3586 1.14106C12.6027 1.38514 12.6027 1.78087 12.3586 2.02495L1.752 12.6316C1.50792 12.8757 1.1122 12.8757 0.868115 12.6316C0.62404 12.3875 0.62404 11.9918 0.868115 11.7477L11.4747 1.14106C11.7187 0.896989 12.1145 0.896989 12.3586 1.14106Z" fill="white"/>
</svg>
