<svg width="114" height="16" viewBox="0 0 114 16" fill="none" xmlns="http://www.w3.org/2000/svg">
<path d="M113.354 8.65726C113.549 8.462 113.549 8.14542 113.354 7.95016L110.172 4.76818C109.976 4.57291 109.66 4.57291 109.464 4.76818C109.269 4.96344 109.269 5.28002 109.464 5.47528L112.293 8.30371L109.464 11.1321C109.269 11.3274 109.269 11.644 109.464 11.8392C109.66 12.0345 109.976 12.0345 110.172 11.8392L113.354 8.65726ZM0 8.80371H3.13889V7.80371H0V8.80371ZM9.41667 8.80371H15.6944V7.80371H9.41667V8.80371ZM21.9722 8.80371H28.25V7.80371H21.9722V8.80371ZM34.5278 8.80371H40.8056V7.80371H34.5278V8.80371ZM47.0833 8.80371H53.3611V7.80371H47.0833V8.80371ZM59.6389 8.80371H65.9167V7.80371H59.6389V8.80371ZM72.1945 8.80371H78.4722V7.80371H72.1945V8.80371ZM84.75 8.80371H91.0278V7.80371H84.75V8.80371ZM97.3056 8.80371H103.583V7.80371H97.3056V8.80371ZM109.861 8.80371H113V7.80371H109.861V8.80371ZM113.707 9.01082C114.098 8.62029 114.098 7.98713 113.707 7.5966L107.343 1.23264C106.953 0.842119 106.319 0.842119 105.929 1.23264C105.538 1.62317 105.538 2.25633 105.929 2.64686L111.586 8.30371L105.929 13.9606C105.538 14.3511 105.538 14.9843 105.929 15.3748C106.319 15.7653 106.953 15.7653 107.343 15.3748L113.707 9.01082ZM0 9.30371H3.13889V7.30371H0V9.30371ZM9.41667 9.30371H15.6944V7.30371H9.41667V9.30371ZM21.9722 9.30371H28.25V7.30371H21.9722V9.30371ZM34.5278 9.30371H40.8056V7.30371H34.5278V9.30371ZM47.0833 9.30371H53.3611V7.30371H47.0833V9.30371ZM59.6389 9.30371H65.9167V7.30371H59.6389V9.30371ZM72.1945 9.30371H78.4722V7.30371H72.1945V9.30371ZM84.75 9.30371H91.0278V7.30371H84.75V9.30371ZM97.3056 9.30371H103.583V7.30371H97.3056V9.30371ZM109.861 9.30371H113V7.30371H109.861V9.30371Z" fill="#573CFF"/>
</svg>
