<svg width="452" height="506" viewBox="0 0 452 506" fill="none" xmlns="http://www.w3.org/2000/svg">
<g clip-path="url(#clip0_2006_250)">
<path d="M358.886 0C361.362 2.47505 364.433 4.6531 366.315 7.62317C378.994 27.8196 390.683 48.6101 399.896 70.6875C408.613 91.478 407.622 110.783 391.773 128.406C396.032 132.168 400.292 135.633 404.353 139.395C422.976 156.522 438.825 175.63 447.245 199.984C453.089 217.013 453.783 234.14 447.839 251.267C441.401 270.177 425.353 281.958 405.344 282.354C402.273 282.453 399.103 282.354 395.339 282.354C395.339 284.631 395.339 286.512 395.339 288.393C395.735 328.885 394.249 369.377 390.287 409.77C387.91 433.827 384.938 457.885 377.409 481.051C375.626 486.596 373.249 492.239 370.079 497.09C362.353 508.97 349.277 508.871 341.452 496.991C334.517 486.497 331.843 474.319 329.267 462.34C321.343 425.214 318.965 387.395 317.381 349.577C316.786 335.122 316.687 320.569 316.291 306.115C316.291 305.224 316.192 304.234 316.093 302.551C304.206 311.461 295.291 322.054 288.555 334.429C278.847 352.547 275.677 371.852 277.262 392.247C280.333 430.461 267.257 461.647 235.064 483.328C206.832 502.337 175.728 505.01 144.426 493.031C64.4864 462.538 17.2359 404.325 2.1791 320.074C1.88193 318.292 1.78287 316.51 1.58475 314.629C0.792293 308.194 3.96214 303.442 9.60842 302.452C15.1556 301.462 20.1085 305.125 20.901 311.461C23.3774 329.281 27.4388 346.706 34.571 363.338C58.1467 418.086 97.7697 456.301 154.332 475.606C194.153 489.17 235.559 471.151 251.804 434.718C257.748 421.452 258.54 407.394 257.649 393.138C254.578 345.022 272.805 307.303 313.319 280.572C315.003 279.483 316.39 276.81 316.588 274.731C318.668 246.317 319.857 217.904 322.532 189.49C324.116 173.155 327.682 157.017 330.753 140.88C331.348 137.712 330.852 136.227 328.277 134.445C318.965 128.109 312.725 119.496 309.159 108.803C308.564 107.021 307.178 104.744 305.593 104.051C254.083 81.8748 201.384 76.9247 148.487 97.4181C85.5856 121.773 45.2692 167.512 26.4482 232.061C26.052 233.348 25.8539 234.635 25.4576 235.823C23.5756 241.664 18.8208 244.436 13.2736 243.05C8.0235 241.763 4.7546 236.417 6.43858 230.675C9.31125 220.874 11.8867 210.974 15.9481 201.667C48.439 126.822 104.605 81.2808 185.238 67.5195C225.554 60.5893 264.979 66.9255 303.017 81.5778C304.503 82.1718 306.088 82.7658 308.069 83.4588C308.762 81.3798 309.456 79.4987 310.149 77.5187C319.362 51.3821 333.428 27.8196 347.989 4.5541C349.178 2.67306 351.258 1.48503 352.942 0C354.923 0 356.904 0 358.886 0ZM374.141 241.664C361.857 241.664 350.07 241.664 337.885 241.664C337.687 244.436 337.291 247.406 337.291 250.277C337.192 284.037 336.499 317.797 337.39 351.458C338.282 386.504 340.956 421.452 347.989 455.905C349.772 464.419 352.447 472.834 354.725 481.249C355.32 481.249 355.815 481.249 356.409 481.15C357.202 478.972 358.39 476.794 358.886 474.517C362.254 458.281 366.414 442.144 368.494 425.709C374.735 376.01 376.32 326.014 375.428 275.919C375.23 264.534 374.537 253.049 374.141 241.664ZM356.211 28.8096C345.018 48.412 333.923 67.1235 327.682 88.0129C326.395 92.468 326.791 97.9131 327.98 102.467C332.338 118.407 349.277 127.218 365.027 122.268C380.777 117.318 389.296 101.18 384.046 85.3398C377.509 65.6384 367.008 47.719 356.211 28.8096ZM383.551 148.107C390.683 185.827 393.259 224.042 394.844 262.752C398.212 262.752 401.183 262.752 404.056 262.752C417.032 262.554 425.849 255.921 429.613 243.545C432.585 233.843 432.882 224.042 430.504 214.241C423.768 186.025 405.245 166.126 383.551 148.107ZM372.754 221.666C370.475 194.836 367.9 168.898 361.362 143.256C359.282 143.256 357.499 143.256 355.716 143.256C353.933 143.256 352.15 143.256 349.079 143.256C345.414 169.294 341.848 195.034 338.084 221.666C350.466 221.666 361.263 221.666 372.754 221.666Z" fill="#002935"/>
<path d="M187.813 153.849C187.912 132.069 205.842 114.446 227.734 114.545C249.526 114.743 267.06 132.663 266.861 154.542C266.663 176.026 248.833 193.648 227.238 193.549C205.446 193.648 187.714 175.729 187.813 153.849ZM247.149 154.146C247.149 143.256 238.234 134.445 227.337 134.445C216.441 134.445 207.625 143.355 207.625 154.245C207.625 165.135 216.54 173.947 227.436 173.947C238.234 173.848 247.149 164.937 247.149 154.146Z" fill="#002935"/>
<path d="M118.275 243.05C96.4822 242.951 78.8499 224.933 79.048 203.053C79.2462 181.372 97.2746 163.749 119.166 163.947C140.662 164.145 158.195 181.966 158.096 203.647C158.096 225.527 140.167 243.248 118.275 243.05ZM118.671 223.349C129.567 223.349 138.384 214.34 138.384 203.548C138.384 192.658 129.369 183.847 118.572 183.847C107.676 183.847 98.8596 192.856 98.8596 203.647C98.8596 214.439 107.874 223.349 118.671 223.349Z" fill="#002935"/>
<path d="M88.7555 361.655C66.9628 361.556 49.3306 343.636 49.4296 321.757C49.5287 300.075 67.5572 282.354 89.4489 282.552C111.043 282.75 128.577 300.57 128.478 322.153C128.478 344.032 110.548 361.754 88.7555 361.655ZM88.9536 341.854C99.85 341.854 108.666 332.944 108.666 322.054C108.666 311.164 99.7509 302.352 88.8546 302.352C77.9582 302.352 69.1421 311.263 69.1421 322.153C69.2411 333.043 78.1563 341.854 88.9536 341.854Z" fill="#002935"/>
<path d="M138.384 400.959C138.483 379.178 156.412 361.556 178.205 361.655C199.998 361.754 217.63 379.772 217.432 401.652C217.234 423.135 199.403 440.757 177.809 440.658C156.016 440.658 138.285 422.739 138.384 400.959ZM177.809 420.957C188.705 421.056 197.62 412.245 197.719 401.355C197.818 390.464 189.002 381.554 178.106 381.455C167.209 381.356 158.294 390.167 158.195 401.058C158.096 411.849 166.912 420.858 177.809 420.957Z" fill="#002935"/>
<path d="M19.7125 272.751C19.7125 278.196 15.0568 282.75 9.60859 282.552C4.35854 282.453 0 277.998 0 272.652C0 267.207 4.65571 262.653 10.1039 262.851C15.3539 263.049 19.7125 267.504 19.7125 272.751Z" fill="#002935"/>
</g>
<defs>
<clipPath id="clip0_2006_250">
<rect width="452" height="506" fill="white"/>
</clipPath>
</defs>
</svg>
