<svg width="496" height="487" viewBox="0 0 496 487" fill="none" xmlns="http://www.w3.org/2000/svg">
<g clip-path="url(#clip0_2007_261)">
<path d="M247.2 486.7C179.2 486.7 111.2 486.7 43.2 486.7C22.1 486.7 6.5 475.5 1.7 456.7C0.5 452.1 0.1 447.2 0.1 442.4C0 370.9 0.1 299.4 0 227.9C0 205 12.2 190.3 28.9 185.3C30.3 184.9 31.8 182.3 32 180.6C32.7 174.8 32.3 168.9 33.2 163.2C35 151.8 45.2 143.2 58.5 143.8C71.3 144.4 84.1 145.1 96.8 146.5C114.8 148.6 132.7 151.3 150.6 153.9C156.4 154.7 156.3 154.7 157.1 149.2C160.9 123.6 173.8 103.5 194.6 88.5001C211.2 76.5001 230.1 70.7001 250.5 71.6001C296.6 73.6001 331.5 106.7 338.1 149.7C338.8 154.1 340.2 154.6 344.2 154.1C366.4 151 388.6 148.1 410.9 145.5C419.8 144.4 428.8 143.7 437.8 143.7C450.1 143.8 462.9 150.7 462.9 169.4C462.9 179.1 464.3 184.6 474.5 189C489.3 195.3 495.1 209.4 495.1 225.1C495.3 298.4 495.3 371.8 495.1 445.1C495 465.4 483.4 480.4 465.1 485C460.5 486.2 455.6 486.6 450.8 486.6C382.9 486.8 315 486.7 247.2 486.7ZM255.4 467C257.6 466.4 259.3 466 261 465.5C283.8 458.7 306.3 451.1 329.3 445.2C354.6 438.7 380.5 435.2 406.6 433.6C417.2 432.9 427.9 432.5 438.5 431.7C445.4 431.2 448 428.1 448 420.9C448 401.9 448 382.9 448 363.9C448 299.2 448 234.6 448 169.9C448 161.9 445 158.6 437.5 158.7C430.2 158.8 422.8 158.9 415.6 159.7C392.2 162.5 368.9 165.7 345.5 168.5C340.8 169.1 339 171.1 338.5 175.6C335.3 201.2 322.8 221.5 302.6 237.3C292.6 245.2 287.6 255.8 287.3 268.5C286.9 281.1 277.6 292.2 265.1 293.6C256 294.6 246.8 294.6 237.7 294.6C220.5 294.6 209.2 284.2 208.3 267.2C207.6 254.3 202.2 244.3 192.3 236.4C172.1 220.5 159.9 200.1 157 174.4C156.6 171.2 155.2 169.4 151.8 168.8C121.2 163.2 90.4 159 59.2 158.7C49.8 158.6 47.2 161.3 47.2 170.9C47.2 253.7 47.2 336.5 47.2 419.4C47.2 420.6 47.2 421.7 47.2 422.9C47.5 427.8 50.3 431.1 55.1 431.6C59.1 432 63.1 432.1 67 432.5C89.5 434.6 112.1 435.7 134.4 439C168.3 444 201.4 453.2 233.5 465.3C235.4 466 237.4 466.3 239.6 466.9C239.6 419.8 239.6 373.4 239.6 326.7C237 326.7 234.8 326.9 232.7 326.7C227.5 326.2 224.5 323.3 224.7 319C224.8 314.9 227.7 311.9 232.7 311.8C242.5 311.6 252.4 311.6 262.2 311.8C267.5 311.9 270.4 315 270.4 319.3C270.4 323.6 267.4 326.3 262 326.7C259.9 326.8 257.8 326.7 255.4 326.7C255.4 373.7 255.4 420.1 255.4 467ZM255.1 279.3C266.8 280.4 272.5 276.4 272.9 266.9C273.6 249.2 281.4 235.7 295 224.6C318.4 205.5 328.6 180.5 323.5 150.6C316.2 107.7 277 80.5001 233.9 87.7001C199.7 93.4001 171.7 122.5 170.3 160.8C169.3 187.5 180.3 209.1 201.4 225.7C214.4 235.9 221.4 249.5 222.1 266.1C222.5 276.6 229.3 281.6 240 278.6C240 267.1 239.3 255.4 240.2 243.8C241.2 231.1 238.9 220.2 228.7 211.7C227.3 210.5 226.3 208.9 225.2 207.5C217.6 198.4 210 189.4 202.6 180.2C198.3 174.8 200.8 168.9 207.6 167.7C208.7 167.5 209.9 167.5 211.1 167.5C235.4 167.5 259.8 167.5 284.1 167.5C285.7 167.5 287.5 167.6 289 168.1C294.6 169.8 296.2 175.5 292.5 180C291.2 181.5 289.7 182.9 288.3 184.3C280.6 192 273 199.7 265.3 207.2C261.9 210.5 258.1 210.4 255.1 207.5C252.2 204.6 252.2 200.8 255.3 197.3C256.7 195.7 258.3 194.2 259.9 192.7C262.8 189.8 265.6 186.9 269.4 183.1C253.6 183.1 239.4 183.1 224.3 183.1C225.7 185.1 226.5 186.5 227.6 187.8C235.2 196.9 242.7 206 250.4 215C253.7 218.9 255.4 222.9 255.3 228.1C255 239.8 255.2 251.4 255.2 263.1C255.1 268.4 255.1 273.7 255.1 279.3ZM292.6 469.8C292.7 470.4 292.7 471 292.8 471.7C294.6 471.7 296.4 471.7 298.2 471.7C350.3 471.7 402.5 471.4 454.6 471.9C468.4 472 480.4 460.2 480.3 446.1C479.8 372.8 480.1 299.5 480.1 226.2C480.1 224.2 480.2 222.2 480.1 220.2C479.7 211.1 472.1 201.9 463.2 200.4C463.2 202.3 463.2 204 463.2 205.8C463.2 222.6 463.2 239.5 463.2 256.3C463.2 310.4 463.2 364.6 463.2 418.7C463.2 436.4 452.9 446.6 435.3 446.8C428.8 446.9 422.3 447.4 415.9 447.7C385.8 449.2 356.1 454 326.8 460.9C315.2 463.5 303.9 466.8 292.6 469.8ZM32.1 200.6C22.6 202.3 15.2 211.7 15.2 221.6C15.1 297.4 15.1 373.3 15.2 449.1C15.2 460.9 25.9 471.6 37.6 471.6C91.3 471.7 144.9 471.6 198.6 471.6C199.9 471.6 201.2 471.3 202.5 471.1C201.4 469.8 200.3 469.3 199.2 468.9C153.3 455.6 106.6 447.5 58.8 446.6C51 446.5 44.1 444.2 38.7 438.2C33.4 432.4 32.1 425.3 32.1 417.8C32.1 347.6 32.1 277.5 32.1 207.3C32.1 205.3 32.1 203.2 32.1 200.6Z" fill="#573CFF"/>
<path d="M240.1 22.6001C240.1 18.1001 240 13.6001 240.1 9.10008C240.3 3.70008 243.3 0.100079 247.5 7.86157e-05C251.6 -0.0999214 255 3.50008 255.1 8.90008C255.3 18.4001 255.3 27.9001 255.1 37.4001C255 43.1001 252 46.1001 247.5 46.1001C243.1 46.0001 240.4 42.9001 240.1 37.2001C239.9 32.3001 240.1 27.5001 240.1 22.6001Z" fill="#573CFF"/>
<path d="M303.5 70.5C301.6 69 298.9 67.7 298 65.7C297.1 63.8 297.2 60.2 298.4 58.9C306.1 50.6 314.1 42.6 322.3 34.9C325 32.4 328.7 32.8 331.3 35.6C334 38.5 334.3 42.2 331.6 45.1C324.2 52.9 316.4 60.5 308.7 68C307.6 69 305.8 69.4 303.5 70.5Z" fill="#573CFF"/>
<path d="M168.3 32.6001C170.8 34.0001 172.9 34.6001 174.4 36.0001C181.3 42.7001 188.1 49.6001 194.8 56.5001C198.1 59.9001 198.3 64.3001 195.5 67.2001C192.4 70.4001 188.7 70.4001 185 66.8001C178 59.9001 170.9 53.1001 164.4 45.8001C162.7 43.9001 162.4 40.0001 162.9 37.3001C163.2 35.4001 166.2 34.2001 168.3 32.6001Z" fill="#573CFF"/>
<path d="M287.9 398.8C283.2 398.2 279.8 396.4 279.2 392C278.6 387.7 281.3 385 285.2 384C304.8 379.1 324.3 373.4 344.2 369.9C367.2 365.9 390.5 363.8 413.7 360.9C418.1 360.4 421.8 363.2 422.2 367.3C422.6 372 419.9 375 414.3 375.6C406.5 376.4 398.8 376.9 391 377.7C357.8 380.9 325.4 387.8 293.5 397.3C291.6 397.9 289.5 398.4 287.9 398.8Z" fill="#573CFF"/>
<path d="M80.8998 360.1C123.2 362.8 164.6 370.4 205.2 382.6C206.6 383 208.1 383.4 209.5 383.9C213.9 385.6 216.1 389.5 214.8 393.3C213.4 397.5 209.4 399.5 204.8 398.2C197.9 396.3 191.1 394.1 184.2 392.2C155.8 384.4 126.9 379.2 97.5998 375.9C91.7998 375.3 85.9998 375.2 80.1998 374.6C75.0998 374.1 72.3998 370.8 72.8998 366.3C73.1998 362.3 76.4998 359.7 80.8998 360.1Z" fill="#573CFF"/>
<path d="M422.4 327.3C422.3 331.6 419.3 334.4 414 334.7C377.7 336.8 342.1 343.3 307.1 352.8C300.8 354.5 294.6 356.2 288.4 357.9C283.8 359.2 281 357 279.5 353C278.2 349.5 280.5 345.6 284.9 344.2C292.5 341.8 300.1 339.3 307.9 337.7C333.1 332.5 358.3 327.4 383.6 322.9C393.9 321.1 404.4 320.8 414.8 320C419.1 319.6 422.5 323 422.4 327.3Z" fill="#573CFF"/>
<path d="M81.5999 280.7C117.1 283.3 152.2 288.9 186.6 298.1C194 300.1 201.3 302.2 208.6 304.5C213.5 306 215.5 309.8 214 314.1C212.8 317.8 208.8 319.5 204.1 318.1C178 310.2 151.4 304.1 124.5 300.2C110.5 298.2 96.3999 297.2 82.3999 295.8C81.8999 295.7 81.3999 295.8 80.8999 295.8C75.6999 295.4 72.0999 292 72.2999 287.8C72.5999 283.4 76.3999 280.5 81.5999 280.7Z" fill="#573CFF"/>
<path d="M410.5 281.7C419.2 281.6 421.7 283 422.3 287.4C423 292 420.3 295.3 415.4 295.8C405.7 296.8 395.9 297.7 386.2 298.7C356.6 301.9 327.5 308 298.9 316.2C295.4 317.2 291.9 318.1 288.3 318.9C283.7 320 280.4 318.3 279.5 314.3C278.5 310 280.6 307 284.6 305.8C292.8 303.2 301.2 300.8 309.5 298.6C337 291.3 364.9 286.1 393.2 283.4C399.5 282.9 405.9 282.1 410.5 281.7Z" fill="#573CFF"/>
<path d="M78.8998 319.2C99.4998 321.8 119 323.4 138 327C160.8 331.3 183.3 337.5 205.9 342.8C206.5 343 207.2 343.2 207.8 343.5C212.4 345.2 214.3 348.6 212.9 352.8C211.7 356.5 208 358.1 203.6 357C183.8 352.2 164.1 346.4 144 342.8C123.5 339.1 102.6 337.4 81.7998 334.8C80.2998 334.6 78.7998 334.4 77.3998 333.9C73.3998 332.5 71.5998 329.3 73.0998 325.6C74.0998 323 77.0998 321.1 78.8998 319.2Z" fill="#573CFF"/>
<path d="M137.9 245.9C125 244.3 113 242.8 101 241.4C95.2002 240.7 89.4002 240.3 83.6002 239.7C82.0002 239.5 80.3002 239.4 78.7002 239C74.3002 238 72.1002 235.2 72.9002 230.6C73.7002 226.2 76.8002 224.2 80.9002 224.7C100.7 226.9 120.5 229.3 140.2 231.9C144.5 232.5 146.8 236.2 146.1 240.3C145.5 244.4 142.8 246.1 137.9 245.9Z" fill="#573CFF"/>
<path d="M108.4 208.9C99.1 208.1 90.1 207.5 81.2 206.7C75.1 206.2 72.1 202.9 72.8 197.9C73.5 193.4 77.1 191.6 83.1 192.2C91.8 193.2 100.6 193.8 109.4 194.6C111.4 194.8 113.9 194.8 115.1 196C116.9 198 119 200.9 118.7 203.3C118.5 205.3 115.6 207.5 113.4 208.8C112.1 209.5 109.9 208.9 108.4 208.9Z" fill="#573CFF"/>
</g>
<defs>
<clipPath id="clip0_2007_261">
<rect width="495.2" height="486.7" fill="white"/>
</clipPath>
</defs>
</svg>
