<svg width="16" height="16" viewBox="0 0 16 16" fill="none" xmlns="http://www.w3.org/2000/svg">
<path d="M4.78294 14.6497C4.44961 14.6497 4.16628 14.533 3.93294 14.2997C3.69961 14.0663 3.58294 13.783 3.58294 13.4497C3.58294 13.1163 3.69961 12.833 3.93294 12.5997C4.16628 12.3663 4.44961 12.2497 4.78294 12.2497C5.11628 12.2497 5.39961 12.3663 5.63294 12.5997C5.86628 12.833 5.98294 13.1163 5.98294 13.4497C5.98294 13.783 5.86628 14.0663 5.63294 14.2997C5.39961 14.533 5.11628 14.6497 4.78294 14.6497ZM11.4496 14.6497C11.1163 14.6497 10.8329 14.533 10.5996 14.2997C10.3663 14.0663 10.2496 13.783 10.2496 13.4497C10.2496 13.1163 10.3663 12.833 10.5996 12.5997C10.8329 12.3663 11.1163 12.2497 11.4496 12.2497C11.7829 12.2497 12.0663 12.3663 12.2996 12.5997C12.5329 12.833 12.6496 13.1163 12.6496 13.4497C12.6496 13.783 12.5329 14.0663 12.2996 14.2997C12.0663 14.533 11.7829 14.6497 11.4496 14.6497ZM3.91628 3.64967L5.74961 7.44967H10.5496L12.6329 3.64967H3.91628ZM3.41628 2.64967H13.2329C13.4885 2.64967 13.6829 2.76634 13.8163 2.99967C13.9496 3.23301 13.9496 3.46634 13.8163 3.69967L11.5663 7.74967C11.4441 7.96079 11.2857 8.13023 11.0913 8.25801C10.8968 8.38579 10.6829 8.44967 10.4496 8.44967H5.39961L4.46628 10.183H12.6496V11.183H4.61628C4.14961 11.183 3.8135 11.0275 3.60794 10.7163C3.40239 10.4052 3.40516 10.0552 3.61628 9.66634L4.68294 7.69967L2.14961 2.33301H0.849609V1.33301H2.79961L3.41628 2.64967ZM5.74961 7.44967H10.5496H5.74961Z" fill="white"/>
</svg>
