<svg width="461" height="461" viewBox="0 0 461 461" fill="none" xmlns="http://www.w3.org/2000/svg">
<g clip-path="url(#clip0_2007_322)">
<path d="M306.133 461C303.972 461 301.931 461 299.77 461C291.727 457.999 288.965 451.996 289.085 443.713C289.326 422.463 289.205 401.094 289.205 379.845C289.205 378.164 289.205 376.363 289.205 374.202C286.684 374.202 284.764 374.202 282.843 374.202C206.009 374.202 129.296 374.202 52.4628 374.202C28.3323 374.202 9.60417 361.357 2.52109 339.867C1.56068 337.106 0.840365 334.225 0 331.344C0 235.302 0 139.26 0 43.2188C0.240104 42.7385 0.60026 42.1383 0.720313 41.6581C5.5224 16.4471 25.0909 0 50.782 0C170.594 0 290.526 0 410.338 0C414.54 0 418.742 0.480208 422.823 1.44063C446.114 7.20313 461 26.6516 461 51.2622C461 138.3 461 225.338 461 312.255C461 317.058 461.12 321.86 460.88 326.662C460.04 351.152 440.471 371.681 415.98 373.842C411.899 374.202 407.697 374.322 403.135 374.563C403.135 376.483 403.135 378.044 403.135 379.725C403.135 400.734 402.895 421.743 403.255 442.752C403.375 451.036 401.094 457.278 393.411 461.12C391.01 461.12 388.609 461.12 386.208 461.12C382.726 458.959 379.124 456.798 375.643 454.517C366.879 448.755 358.115 442.992 349.472 436.99C346.951 435.189 345.27 435.429 342.869 436.99C330.744 445.033 318.378 452.957 306.133 461ZM403.255 346.71C421.623 349.952 433.988 339.747 433.988 321.98C433.988 232.301 433.988 142.502 433.988 52.8229C433.988 36.2557 424.984 27.1318 408.537 27.1318C289.806 27.1318 171.194 27.1318 52.4628 27.1318C36.1357 27.1318 27.0117 36.1357 27.0117 52.3427C27.0117 142.262 27.0117 232.061 27.0117 321.98C27.0117 338.187 36.1357 347.311 52.4628 347.311C129.776 347.311 206.97 347.311 284.283 347.311C285.844 347.311 287.405 347.191 289.326 347.071C289.326 336.626 289.205 326.782 289.326 316.817C289.926 287.405 310.935 264.475 340.588 260.753C367.119 257.392 393.651 275.399 400.854 302.171C402.415 307.934 402.775 313.936 403.015 319.939C403.495 328.823 403.255 337.827 403.255 346.71ZM376.123 317.418C376.243 301.211 362.797 287.525 346.59 287.285C330.263 287.045 316.457 300.61 316.337 317.058C316.217 333.385 329.903 347.191 346.35 347.191C362.557 347.191 376.003 333.745 376.123 317.418ZM375.883 422.103C375.883 403.015 375.883 384.887 375.883 366.039C355.954 376.843 336.386 376.843 316.457 366.039C316.457 384.887 316.457 403.015 316.457 422.103C322.82 417.781 328.703 413.94 334.465 410.098C344.91 403.135 347.431 403.135 357.995 410.218C363.758 414.06 369.52 417.781 375.883 422.103Z" fill="#573CFF"/>
<path d="M230.62 188.122C282.723 188.122 334.705 188.122 386.808 188.122C388.849 188.122 391.01 188.122 393.051 188.602C399.293 190.162 403.615 196.285 403.135 202.408C402.535 209.131 397.373 214.413 390.65 215.013C389.449 215.133 388.249 215.133 387.048 215.133C282.723 215.133 178.518 215.133 74.1923 215.133C71.7913 215.133 69.3902 214.893 67.1093 214.293C61.2267 212.492 57.265 206.249 57.9853 200.367C58.8257 193.764 63.9879 188.722 70.4707 188.242C72.1514 188.122 73.7121 188.242 75.3928 188.242C127.135 188.122 178.878 188.122 230.62 188.122Z" fill="#573CFF"/>
<path d="M230.5 130.256C282.362 130.256 334.345 130.256 386.208 130.256C388.609 130.256 391.01 130.256 393.411 130.857C398.933 132.297 403.015 137.7 403.135 143.462C403.255 149.345 399.053 155.107 393.291 156.548C391.13 157.148 388.849 157.268 386.568 157.268C282.483 157.268 178.277 157.268 74.1922 157.268C73.1117 157.268 72.0312 157.268 71.0708 157.268C63.2674 156.668 57.625 150.785 57.745 143.582C57.8651 136.259 63.6276 130.496 71.551 130.376C84.9969 130.256 98.5628 130.376 112.009 130.376C151.626 130.256 191.003 130.256 230.5 130.256Z" fill="#573CFF"/>
<path d="M230.5 99.2832C197.246 99.2832 163.871 99.2832 130.617 99.2832C122.213 99.2832 116.571 94.4811 115.97 87.1579C115.37 80.315 119.572 74.3124 126.295 72.8717C128.456 72.3915 130.737 72.2715 133.018 72.2715C198.086 72.2715 263.154 72.2715 328.343 72.2715C329.543 72.2715 330.744 72.2715 331.944 72.2715C339.988 72.7517 345.63 78.6342 345.39 86.3176C345.15 93.7608 339.507 99.2832 331.464 99.2832C297.729 99.2832 264.115 99.2832 230.5 99.2832Z" fill="#573CFF"/>
<path d="M158.229 301.811C130.137 301.811 102.164 301.811 74.0723 301.811C71.7913 301.811 69.5103 301.811 67.3494 301.211C61.4668 299.53 57.5051 293.888 57.7452 288.005C57.9853 282.002 62.0671 276.84 68.0697 275.4C69.7504 274.919 71.6712 274.799 73.352 274.799C129.776 274.799 186.081 274.799 242.505 274.799C243.346 274.799 244.306 274.799 245.147 274.799C252.83 275.4 258.352 281.282 258.232 288.725C258.112 296.169 252.35 301.691 244.426 301.811C215.854 301.811 187.041 301.811 158.229 301.811Z" fill="#573CFF"/>
</g>
<defs>
<clipPath id="clip0_2007_322">
<rect width="461" height="461" fill="white"/>
</clipPath>
</defs>
</svg>
