<svg width="20" height="20" viewBox="0 0 20 20" fill="none" xmlns="http://www.w3.org/2000/svg">
<path d="M9.99986 17.1431C9.78557 17.1431 9.64272 17.0717 9.49986 16.9289L1.64272 9.07171C1.357 8.78599 1.357 8.35742 1.64272 8.07171C1.92843 7.78599 2.357 7.78599 2.64272 8.07171L9.99986 15.4289L17.357 8.07171C17.6427 7.78599 18.0713 7.78599 18.357 8.07171C18.6427 8.35742 18.6427 8.78599 18.357 9.07171L10.4999 16.9289C10.357 17.0717 10.2141 17.1431 9.99986 17.1431ZM10.4999 11.9289L18.357 4.07171C18.6427 3.78599 18.6427 3.35742 18.357 3.07171C18.0713 2.78599 17.6427 2.78599 17.357 3.07171L9.99986 10.4289L2.64272 3.07171C2.357 2.78599 1.92843 2.78599 1.64272 3.07171C1.357 3.35742 1.357 3.78599 1.64272 4.07171L9.49986 11.9289C9.64272 12.0717 9.78557 12.1431 9.99986 12.1431C10.2141 12.1431 10.357 12.0717 10.4999 11.9289Z" fill="white"/>
</svg>
