<svg width="16" height="16" viewBox="0 0 16 16" fill="none" xmlns="http://www.w3.org/2000/svg">
<path d="M8.99936 7.99909C8.99936 8.55109 8.55136 8.99909 7.99936 8.99909C7.44736 8.99909 6.99936 8.55109 6.99936 7.99909C6.99936 7.44709 7.44736 6.99909 7.99936 6.99909C8.55136 6.99909 8.99936 7.44709 8.99936 7.99909ZM11.3327 6.99909C10.7807 6.99909 10.3327 7.44709 10.3327 7.99909C10.3327 8.55109 10.7807 8.99909 11.3327 8.99909C11.8847 8.99909 12.3327 8.55109 12.3327 7.99909C12.3327 7.44709 11.8847 6.99909 11.3327 6.99909ZM4.66602 6.99909C4.11402 6.99909 3.66602 7.44709 3.66602 7.99909C3.66602 8.55109 4.11402 8.99909 4.66602 8.99909C5.21802 8.99909 5.66602 8.55109 5.66602 7.99909C5.66602 7.44709 5.21802 6.99909 4.66602 6.99909ZM15.9994 8.22576V12.6658C15.9994 14.5038 14.504 15.9991 12.666 15.9991H8.72136C4.05402 15.9991 0.31269 12.8044 0.0193566 8.56843C-0.14131 6.25109 0.704023 3.98309 2.33869 2.34643C3.97336 0.70976 6.24136 -0.13824 8.55669 0.0184265C12.73 0.30176 15.9994 3.90643 15.9994 8.22576ZM14.666 8.22576C14.666 4.60509 11.9434 1.58443 8.46669 1.34843C8.31402 1.33776 8.16136 1.33309 8.00936 1.33309C6.23869 1.33309 4.53669 2.03176 3.28202 3.28843C1.91936 4.65243 1.21469 6.54376 1.34936 8.47643C1.59802 12.0631 4.69869 14.6664 8.72202 14.6664H12.6667C13.7694 14.6664 14.6667 13.7691 14.6667 12.6664V8.22643L14.666 8.22576Z" fill="#EBEDF4"/>
</svg>
