<svg width="18" height="19" viewBox="0 0 18 19" fill="none" xmlns="http://www.w3.org/2000/svg">
<g clip-path="url(#clip0_685_553)">
<path d="M16.3125 9.69629C16.3125 11.6357 15.5421 13.4956 14.1707 14.867C12.7994 16.2384 10.9394 17.0088 9 17.0088C7.0606 17.0088 5.20064 16.2384 3.82928 14.867C2.45792 13.4956 1.6875 11.6357 1.6875 9.69629C1.6875 7.75689 2.45792 5.89693 3.82928 4.52557C5.20064 3.15421 7.0606 2.38379 9 2.38379C10.9394 2.38379 12.7994 3.15421 14.1707 4.52557C15.5421 5.89693 16.3125 7.75689 16.3125 9.69629ZM0 9.69629C0 12.0832 0.948212 14.3724 2.63604 16.0603C4.32387 17.7481 6.61305 18.6963 9 18.6963C11.3869 18.6963 13.6761 17.7481 15.364 16.0603C17.0518 14.3724 18 12.0832 18 9.69629C18 7.30934 17.0518 5.02016 15.364 3.33233C13.6761 1.6445 11.3869 0.696289 9 0.696289C6.61305 0.696289 4.32387 1.6445 2.63604 3.33233C0.948212 5.02016 0 7.30934 0 9.69629ZM8.15625 4.91504V9.69629C8.15625 9.97754 8.29688 10.2412 8.53242 10.3994L11.9074 12.6494C12.2941 12.9096 12.818 12.8041 13.0781 12.4139C13.3383 12.0236 13.2328 11.5033 12.8426 11.2432L9.84375 9.24629V4.91504C9.84375 4.44746 9.46758 4.07129 9 4.07129C8.53242 4.07129 8.15625 4.44746 8.15625 4.91504Z" fill="#573CFF"/>
</g>
<defs>
<clipPath id="clip0_685_553">
<rect width="18" height="18" fill="white" transform="translate(0 0.696289)"/>
</clipPath>
</defs>
</svg>
