<svg width="18" height="19" viewBox="0 0 18 19" fill="none" xmlns="http://www.w3.org/2000/svg">
<g clip-path="url(#clip0_684_373)">
<path d="M0 1.82129C0 1.19902 0.502734 0.696289 1.125 0.696289H5.625C6.24727 0.696289 6.75 1.19902 6.75 1.82129V15.3213C6.75 17.1846 5.23828 18.6963 3.375 18.6963C1.51172 18.6963 0 17.1846 0 15.3213V1.82129ZM7.86094 15.6693C7.87148 15.5533 7.875 15.4373 7.875 15.3213V6.11035L10.5258 3.45957C10.9652 3.02012 11.6789 3.02012 12.1184 3.45957L15.3 6.64121C15.7395 7.08066 15.7395 7.79434 15.3 8.23379L7.86094 15.6693ZM6.42656 18.6963L13.1766 11.9463H16.875C17.4973 11.9463 18 12.449 18 13.0713V17.5713C18 18.1936 17.4973 18.6963 16.875 18.6963H6.42656ZM4.5 2.94629H2.25V5.19629H4.5V2.94629ZM2.25 7.44629V9.69629H4.5V7.44629H2.25ZM3.375 16.165C3.59878 16.165 3.81339 16.0761 3.97162 15.9179C4.12986 15.7597 4.21875 15.5451 4.21875 15.3213C4.21875 15.0975 4.12986 14.8829 3.97162 14.7247C3.81339 14.5664 3.59878 14.4775 3.375 14.4775C3.15122 14.4775 2.93661 14.5664 2.77838 14.7247C2.62014 14.8829 2.53125 15.0975 2.53125 15.3213C2.53125 15.5451 2.62014 15.7597 2.77838 15.9179C2.93661 16.0761 3.15122 16.165 3.375 16.165Z" fill="#573CFF"/>
</g>
<defs>
<clipPath id="clip0_684_373">
<rect width="18" height="18" fill="white" transform="translate(0 0.696289)"/>
</clipPath>
</defs>
</svg>
