<svg width="312" height="230" viewBox="0 0 312 230" fill="none" xmlns="http://www.w3.org/2000/svg">
<g clip-path="url(#clip0_705_320)">
<path d="M92.2131 118.031L75.5327 127.675" stroke="#A6A6A6" stroke-width="2" stroke-miterlimit="10" stroke-linecap="round"/>
<path d="M74.9658 127.646L28.8672 123.331L67.8972 136.005" stroke="#A6A6A6" stroke-width="2" stroke-miterlimit="10" stroke-linecap="round"/>
<path d="M92.2434 116.002C65.9314 116.778 39.64 118.064 13.3691 119.861" stroke="#A6A6A6" stroke-width="2" stroke-miterlimit="10" stroke-linecap="round"/>
<path d="M68.1317 136.584C61.2982 138.667 54.5428 140.986 47.8656 143.541" stroke="#A6A6A6" stroke-width="2" stroke-miterlimit="10" stroke-linecap="round"/>
<path d="M11.9092 120.511C24.3639 129.274 37.3105 137.316 50.6854 144.597" stroke="#A6A6A6" stroke-width="2" stroke-miterlimit="10" stroke-linecap="round"/>
<path d="M77.2605 128.485C78.7664 134.873 80.6556 141.164 82.9177 147.324" stroke="#A6A6A6" stroke-width="2" stroke-miterlimit="10" stroke-linecap="round"/>
<path d="M68.7891 135.795C73.2988 139.813 77.809 143.83 82.3196 147.848" stroke="#A6A6A6" stroke-width="2" stroke-miterlimit="10" stroke-linecap="round"/>
<path d="M81.9078 147.921C74.7989 144.684 67.5578 141.762 60.1846 139.154" stroke="#A6A6A6" stroke-width="2" stroke-miterlimit="10" stroke-linecap="round"/>
<path d="M88.6681 134.793C100.859 140.285 103.034 152.368 108.585 162.144C117.386 177.646 138.493 188.787 164.594 186.007C185.442 183.784 206.691 172.847 220.186 159.185C233.68 145.524 239.874 129.546 239.89 115.002C239.895 108.818 238.824 102.763 235.559 97.6195C228.126 85.9108 209.929 80.2363 190.485 79.7857C185.979 79.5334 181.462 80.0185 177.112 81.222C172.651 82.6078 168.323 85.4863 167.157 88.7417C165.809 92.4945 169.09 95.6275 173.611 96.6038C178.132 97.5802 183.583 96.8519 188.813 95.858C217.068 90.4983 246.2 76.3505 261.516 57.0368C276.832 37.7231 274.817 13.8482 253.533 4.96631" stroke="#A6A6A6" stroke-width="2" stroke-miterlimit="10" stroke-linecap="round" stroke-dasharray="9.74 9.74"/>
</g>
<defs>
<clipPath id="clip0_705_320">
<rect width="278.617" height="147.143" fill="white" transform="translate(0 89.9102) rotate(-18.8264)"/>
</clipPath>
</defs>
</svg>
