<svg width="133" height="56" viewBox="0 0 133 56" fill="none" xmlns="http://www.w3.org/2000/svg">
<g clip-path="url(#clip0_1056_440)">
<mask id="mask0_1056_440" style="mask-type:luminance" maskUnits="userSpaceOnUse" x="0" y="0" width="133" height="56">
<path d="M133 55.3037H0V0.303711H133V55.3037Z" fill="white"/>
</mask>
<g mask="url(#mask0_1056_440)">
<g opacity="0.7">
<path d="M0.314453 47.6419C0.314453 47.6419 14.0713 55.1118 29.0784 47.6419C44.0854 40.1721 45.3376 58.4602 58.1553 52.7932C70.9729 47.1261 71.2862 41.7178 83.168 49.1867C95.0498 56.6556 96.9251 54.338 108.494 47.641C120.062 40.9441 132.568 52.7922 132.568 52.7922" stroke="#573CFF" stroke-width="2" stroke-linecap="round"/>
<path d="M0.314453 33.5209C0.314453 33.5209 14.0713 40.9907 29.0784 33.5209C44.0854 26.051 45.3376 44.3392 58.1553 38.6721C70.9729 33.005 71.2862 27.5968 83.168 35.0656C95.0498 42.5345 96.9251 40.2169 108.494 33.5199C120.062 26.823 132.568 38.6711 132.568 38.6711" stroke="#573CFF" stroke-width="2" stroke-linecap="round"/>
<path d="M0.314453 19.4007C0.314453 19.4007 14.0713 26.8706 29.0784 19.4007C44.0854 11.9309 45.3376 30.219 58.1553 24.5519C70.9729 18.8848 71.2862 13.4766 83.168 20.9455C95.0498 28.4144 96.9251 26.0968 108.494 19.3998C120.062 12.7029 132.568 24.551 132.568 24.551" stroke="#573CFF" stroke-width="2" stroke-linecap="round"/>
<path d="M0.314453 5.27964C0.314453 5.27964 14.0713 12.7495 29.0784 5.27964C44.0854 -2.19019 45.3376 16.0979 58.1553 10.4308C70.9729 4.76375 71.2862 -0.644459 83.168 6.82443C95.0498 14.2933 96.9251 11.9757 108.494 5.27872C120.062 -1.41824 132.568 10.4299 132.568 10.4299" stroke="#573CFF" stroke-width="2" stroke-linecap="round"/>
</g>
</g>
</g>
<defs>
<clipPath id="clip0_1056_440">
<rect width="133" height="55" fill="white" transform="matrix(1 0 0 -1 0 55.3037)"/>
</clipPath>
</defs>
</svg>
