<svg width="149" height="150" viewBox="0 0 149 150" fill="none" xmlns="http://www.w3.org/2000/svg">
<mask id="mask0_839_300" style="mask-type:luminance" maskUnits="userSpaceOnUse" x="0" y="0" width="149" height="150">
<path d="M148.414 0H0V149.414H148.414V0Z" fill="white"/>
</mask>
<g mask="url(#mask0_839_300)">
<path d="M0.707031 0.707031L6.70703 6.70703" stroke="#007A70" stroke-opacity="0.6" stroke-width="2" stroke-linecap="round"/>
<path d="M23.707 0.707031L29.707 6.70703" stroke="#007A70" stroke-opacity="0.6" stroke-width="2" stroke-linecap="round"/>
<path d="M46.707 0.707031L52.707 6.70703" stroke="#007A70" stroke-opacity="0.6" stroke-width="2" stroke-linecap="round"/>
<path d="M69.707 0.707031L75.707 6.70703" stroke="#007A70" stroke-opacity="0.6" stroke-width="2" stroke-linecap="round"/>
<path d="M92.707 0.707031L98.707 6.70703" stroke="#007A70" stroke-opacity="0.6" stroke-width="2" stroke-linecap="round"/>
<path d="M115.707 0.707031L121.707 6.70703" stroke="#007A70" stroke-opacity="0.6" stroke-width="2" stroke-linecap="round"/>
<path d="M138.707 0.707031L144.707 6.70703" stroke="#007A70" stroke-opacity="0.6" stroke-width="2" stroke-linecap="round"/>
<path d="M0.707031 23.707L6.70703 29.707" stroke="#007A70" stroke-opacity="0.6" stroke-width="2" stroke-linecap="round"/>
<path d="M23.707 23.707L29.707 29.707" stroke="#007A70" stroke-opacity="0.6" stroke-width="2" stroke-linecap="round"/>
<path d="M46.707 23.707L52.707 29.707" stroke="#007A70" stroke-opacity="0.6" stroke-width="2" stroke-linecap="round"/>
<path d="M69.707 23.707L75.707 29.707" stroke="#007A70" stroke-opacity="0.6" stroke-width="2" stroke-linecap="round"/>
<path d="M92.707 23.707L98.707 29.707" stroke="#007A70" stroke-opacity="0.6" stroke-width="2" stroke-linecap="round"/>
<path d="M115.707 23.707L121.707 29.707" stroke="#007A70" stroke-opacity="0.6" stroke-width="2" stroke-linecap="round"/>
<path d="M138.707 23.707L144.707 29.707" stroke="#007A70" stroke-opacity="0.6" stroke-width="2" stroke-linecap="round"/>
<path d="M0.707031 46.707L6.70703 52.707" stroke="#007A70" stroke-opacity="0.6" stroke-width="2" stroke-linecap="round"/>
<path d="M23.707 46.707L29.707 52.707" stroke="#007A70" stroke-opacity="0.6" stroke-width="2" stroke-linecap="round"/>
<path d="M46.707 46.707L52.707 52.707" stroke="#007A70" stroke-opacity="0.6" stroke-width="2" stroke-linecap="round"/>
<path d="M69.707 46.707L75.707 52.707" stroke="#007A70" stroke-opacity="0.6" stroke-width="2" stroke-linecap="round"/>
<path d="M92.707 46.707L98.707 52.707" stroke="#007A70" stroke-opacity="0.6" stroke-width="2" stroke-linecap="round"/>
<path d="M115.707 46.707L121.707 52.707" stroke="#007A70" stroke-opacity="0.6" stroke-width="2" stroke-linecap="round"/>
<path d="M138.707 46.707L144.707 52.707" stroke="#007A70" stroke-opacity="0.6" stroke-width="2" stroke-linecap="round"/>
<path d="M0.707031 69.707L6.70703 75.707" stroke="#007A70" stroke-opacity="0.6" stroke-width="2" stroke-linecap="round"/>
<path d="M23.707 69.707L29.707 75.707" stroke="#007A70" stroke-opacity="0.6" stroke-width="2" stroke-linecap="round"/>
<path d="M46.707 69.707L52.707 75.707" stroke="#007A70" stroke-opacity="0.6" stroke-width="2" stroke-linecap="round"/>
<path d="M69.707 69.707L75.707 75.707" stroke="#007A70" stroke-opacity="0.6" stroke-width="2" stroke-linecap="round"/>
<path d="M92.707 69.707L98.707 75.707" stroke="#007A70" stroke-opacity="0.6" stroke-width="2" stroke-linecap="round"/>
<path d="M115.707 69.707L121.707 75.707" stroke="#007A70" stroke-opacity="0.6" stroke-width="2" stroke-linecap="round"/>
<path d="M138.707 69.707L144.707 75.707" stroke="#007A70" stroke-opacity="0.6" stroke-width="2" stroke-linecap="round"/>
<path d="M0.707031 92.707L6.70703 98.707" stroke="#007A70" stroke-opacity="0.6" stroke-width="2" stroke-linecap="round"/>
<path d="M23.707 92.707L29.707 98.707" stroke="#007A70" stroke-opacity="0.6" stroke-width="2" stroke-linecap="round"/>
<path d="M46.707 92.707L52.707 98.707" stroke="#007A70" stroke-opacity="0.6" stroke-width="2" stroke-linecap="round"/>
<path d="M69.707 92.707L75.707 98.707" stroke="#007A70" stroke-opacity="0.6" stroke-width="2" stroke-linecap="round"/>
<path d="M92.707 92.707L98.707 98.707" stroke="#007A70" stroke-opacity="0.6" stroke-width="2" stroke-linecap="round"/>
<path d="M115.707 92.707L121.707 98.707" stroke="#007A70" stroke-opacity="0.6" stroke-width="2" stroke-linecap="round"/>
<path d="M138.707 92.707L144.707 98.707" stroke="#007A70" stroke-opacity="0.6" stroke-width="2" stroke-linecap="round"/>
<path d="M0.707031 115.707L6.70703 121.707" stroke="#007A70" stroke-opacity="0.6" stroke-width="2" stroke-linecap="round"/>
<path d="M23.707 115.707L29.707 121.707" stroke="#007A70" stroke-opacity="0.6" stroke-width="2" stroke-linecap="round"/>
<path d="M46.707 115.707L52.707 121.707" stroke="#007A70" stroke-opacity="0.6" stroke-width="2" stroke-linecap="round"/>
<path d="M69.707 115.707L75.707 121.707" stroke="#007A70" stroke-opacity="0.6" stroke-width="2" stroke-linecap="round"/>
<path d="M92.707 115.707L98.707 121.707" stroke="#007A70" stroke-opacity="0.6" stroke-width="2" stroke-linecap="round"/>
<path d="M115.707 115.707L121.707 121.707" stroke="#007A70" stroke-opacity="0.6" stroke-width="2" stroke-linecap="round"/>
<path d="M138.707 115.707L144.707 121.707" stroke="#007A70" stroke-opacity="0.6" stroke-width="2" stroke-linecap="round"/>
<path d="M0.707031 138.707L6.70703 144.707" stroke="#007A70" stroke-opacity="0.6" stroke-width="2" stroke-linecap="round"/>
<path d="M23.707 138.707L29.707 144.707" stroke="#007A70" stroke-opacity="0.6" stroke-width="2" stroke-linecap="round"/>
<path d="M46.707 138.707L52.707 144.707" stroke="#007A70" stroke-opacity="0.6" stroke-width="2" stroke-linecap="round"/>
<path d="M69.707 138.707L75.707 144.707" stroke="#007A70" stroke-opacity="0.6" stroke-width="2" stroke-linecap="round"/>
<path d="M92.707 138.707L98.707 144.707" stroke="#007A70" stroke-opacity="0.6" stroke-width="2" stroke-linecap="round"/>
<path d="M115.707 138.707L121.707 144.707" stroke="#007A70" stroke-opacity="0.6" stroke-width="2" stroke-linecap="round"/>
<path d="M138.707 138.707L144.707 144.707" stroke="#007A70" stroke-opacity="0.6" stroke-width="2" stroke-linecap="round"/>
</g>
</svg>
