<svg width="141" height="58" viewBox="0 0 141 58" fill="none" xmlns="http://www.w3.org/2000/svg">
<g clip-path="url(#clip0_839_403)">
<mask id="mask0_839_403" style="mask-type:luminance" maskUnits="userSpaceOnUse" x="0" y="0" width="142" height="58">
<path d="M141.002 0H0.00195312V58H141.002V0Z" fill="white"/>
</mask>
<g mask="url(#mask0_839_403)">
<g opacity="0.7">
<path d="M0.334961 8.07985C0.334961 8.07985 14.9193 0.202571 30.829 8.07985C46.7388 15.9571 48.0663 -3.32854 61.6549 2.64767C75.2436 8.62388 75.5757 14.3271 88.1722 6.4508C100.769 -1.42549 102.757 1.01857 115.021 8.08082C127.286 15.1431 140.544 2.64864 140.544 2.64864" stroke="#007A70" stroke-width="2" stroke-linecap="round"/>
<path d="M0.334961 22.971C0.334961 22.971 14.9193 15.0937 30.829 22.971C46.7388 30.8482 48.0663 11.5626 61.6549 17.5388C75.2436 23.515 75.5757 29.2182 88.1722 21.3419C100.769 13.4656 102.757 15.9097 115.021 22.9719C127.286 30.0342 140.544 17.5398 140.544 17.5398" stroke="#007A70" stroke-width="2" stroke-linecap="round"/>
<path d="M0.334961 37.8616C0.334961 37.8616 14.9193 29.9843 30.829 37.8616C46.7388 45.7389 48.0663 26.4532 61.6549 32.4294C75.2436 38.4056 75.5757 44.1088 88.1722 36.2325C100.769 28.3562 102.757 30.8003 115.021 37.8626C127.286 44.9248 140.544 32.4304 140.544 32.4304" stroke="#007A70" stroke-width="2" stroke-linecap="round"/>
<path d="M0.334961 52.7527C0.334961 52.7527 14.9193 44.8754 30.829 52.7527C46.7388 60.63 48.0663 41.3443 61.6549 47.3205C75.2436 53.2967 75.5757 58.9999 88.1722 51.1236C100.769 43.2474 102.757 45.6914 115.021 52.7537C127.286 59.8159 140.544 47.3215 140.544 47.3215" stroke="#007A70" stroke-width="2" stroke-linecap="round"/>
</g>
</g>
</g>
<defs>
<clipPath id="clip0_839_403">
<rect width="141" height="58" fill="white" transform="translate(0.00195312)"/>
</clipPath>
</defs>
</svg>
