<svg width="257" height="209" viewBox="0 0 257 209" fill="none" xmlns="http://www.w3.org/2000/svg">
<g clip-path="url(#clip0_839_416)">
<path d="M77.4599 114.069L65.071 123.683" stroke="#007A70" stroke-width="2" stroke-miterlimit="10" stroke-linecap="round"/>
<path d="M64.6113 123.723L26.9619 125.321L59.8318 131.242" stroke="#007A70" stroke-width="2" stroke-miterlimit="10" stroke-linecap="round"/>
<path d="M77.2615 112.43C56.1289 115.954 35.069 119.887 14.082 124.23" stroke="#007A70" stroke-width="2" stroke-miterlimit="10" stroke-linecap="round"/>
<path d="M60.0846 131.683C54.8034 134.116 49.6112 136.73 44.5082 139.526" stroke="#007A70" stroke-width="2" stroke-miterlimit="10" stroke-linecap="round"/>
<path d="M12.9756 124.914C23.9843 130.609 35.3103 135.668 46.8978 140.067" stroke="#007A70" stroke-width="2" stroke-miterlimit="10" stroke-linecap="round"/>
<path d="M66.5541 124.147C68.472 129.132 70.6883 133.997 73.191 138.716" stroke="#007A70" stroke-width="2" stroke-miterlimit="10" stroke-linecap="round"/>
<path d="M60.5283 130.975C64.6075 133.718 68.6871 136.461 72.767 139.204" stroke="#007A70" stroke-width="2" stroke-miterlimit="10" stroke-linecap="round"/>
<path d="M72.4423 139.309C66.3531 137.481 60.192 135.922 53.959 134.632" stroke="#007A70" stroke-width="2" stroke-miterlimit="10" stroke-linecap="round"/>
<path d="M76.4481 127.977C86.8841 131.063 89.9688 140.568 95.5216 147.84C104.326 159.371 122.574 166.031 143.316 160.914C159.883 156.825 175.814 145.665 185.191 133.162C194.568 120.659 197.803 107.092 196.214 95.3618C195.537 90.375 194.007 85.6096 190.807 81.8217C183.523 73.1984 168.224 70.6266 152.495 72.4048C148.834 72.6977 145.245 73.5864 141.87 75.036C138.424 76.6449 135.252 79.4428 134.67 82.1964C133.996 85.3711 136.987 87.5363 140.74 87.8256C144.493 88.115 148.809 86.9273 152.917 85.5498C175.112 78.1157 197.046 63.4982 207.269 46.2366C217.493 28.975 213.238 9.94415 195.097 5.12603" stroke="#007A70" stroke-width="2" stroke-miterlimit="10" stroke-linecap="round" stroke-dasharray="9.74 9.74"/>
</g>
<defs>
<clipPath id="clip0_839_416">
<rect width="226.764" height="119.758" fill="white" transform="translate(0.00195312 101.549) rotate(-26.6039)"/>
</clipPath>
</defs>
</svg>
