<svg width="491" height="506" viewBox="0 0 491 506" fill="none" xmlns="http://www.w3.org/2000/svg">
<g clip-path="url(#clip0_2007_284)">
<path d="M251.388 386.147C248.828 382.261 246.473 379.704 245.142 376.739C240.943 367.126 236.643 357.513 233.161 347.594C231.83 343.708 230.499 342.276 226.3 342.378C165.885 342.481 105.47 342.481 45.0553 342.481C30.1051 342.481 29.4907 341.969 29.4907 327.039C29.4907 257.704 29.4907 188.267 29.4907 118.932C29.4907 106.968 33.7914 102.673 45.8745 102.673C63.487 102.673 80.9971 102.673 98.6096 102.673C102.808 102.673 106.392 104.104 107.211 108.297C107.621 110.751 106.699 114.331 105.061 115.865C103.218 117.603 99.8384 118.114 97.0736 118.217C81.7139 118.421 66.3541 118.523 50.9944 118.217C46.4888 118.114 44.7481 119.239 44.7481 124.046C44.8505 189.699 44.8505 255.25 44.7481 320.903C44.7481 325.607 46.284 326.834 50.892 326.834C108.747 326.732 166.602 326.732 224.457 326.732C226.3 326.732 228.143 326.732 229.884 326.732C230.703 271.612 276.271 235.513 318.356 233.468C335.559 232.649 351.943 235.82 367.303 243.796C382.765 251.875 395.053 263.431 404.269 278.259C413.28 292.883 417.478 309.04 417.99 325.709C418.809 326.221 418.912 326.323 419.116 326.323C429.868 327.652 429.868 327.652 429.868 316.915C429.868 253 429.868 189.085 429.868 125.171C429.868 118.217 429.868 118.217 423.008 118.217C418.604 118.217 414.099 118.319 409.696 118.217C404.269 118.012 400.685 114.842 400.582 110.445C400.582 105.843 404.269 102.673 410.003 102.57C416.352 102.468 422.598 102.57 428.947 102.57C440.722 102.57 445.023 106.763 445.023 118.523C445.023 182.949 445.023 247.375 445.023 311.801C445.023 318.653 445.023 325.403 445.023 332.254C445.023 339.924 442.566 342.378 434.988 342.378C430.175 342.378 425.465 342.481 420.652 342.378C417.785 342.276 416.761 343.196 415.84 346.06C413.075 354.752 409.696 363.342 406.214 371.83C405.19 374.284 405.088 375.818 407.136 377.557C410.515 380.318 413.587 385.329 417.171 385.636C425.158 386.454 433.657 386.249 441.439 384.204C452.703 381.136 459.359 370.194 459.359 357.206C459.461 277.441 459.461 197.675 459.359 117.91C459.359 100.014 447.481 88.867 429.561 88.867C422.7 88.867 415.942 88.9692 409.081 88.867C404.269 88.7647 400.992 85.7991 400.685 81.6063C400.377 77.618 403.552 73.3229 408.16 73.4252C419.731 73.5274 431.507 72.9138 442.77 75.1636C461.816 78.9474 474.719 96.2299 474.719 115.558C474.821 197.062 474.923 278.464 474.616 359.968C474.514 377.352 465.503 389.829 450.143 397.703C448.505 398.521 446.764 399.237 444.511 400.362C446.047 401.998 447.276 403.43 448.607 404.657C460.281 415.906 471.852 427.155 483.525 438.506C493.56 448.323 493.765 456.095 484.037 466.015C479.531 470.617 475.128 475.423 470.52 479.923C462.943 487.49 454.341 487.49 446.662 480.025C431.507 465.504 416.556 450.778 401.504 436.256C397.408 432.268 395.462 427.768 396.282 422.042C396.384 421.019 396.794 419.587 396.282 419.076C391.059 413.758 385.735 408.441 380.307 403.327C379.898 402.918 377.85 403.941 376.826 404.555C360.442 415.394 342.42 420.917 322.76 420.201C318.561 420.099 317.23 421.428 317.537 425.416C317.742 429.507 317.742 433.597 317.537 437.688C317.332 441.267 318.868 442.29 322.35 442.29C335.662 442.085 348.974 442.187 362.285 442.29C370.272 442.29 377.952 443.824 384.813 447.914C395.36 454.152 401.709 462.947 401.401 475.73C401.197 482.888 401.401 490.047 401.299 497.205C401.197 503.034 398.432 505.795 392.493 506.102C391.264 506.204 390.138 506.102 388.909 506.102C288.047 506.102 187.184 506.102 86.3218 506.102C76.082 506.102 74.034 504.057 74.034 493.933C74.034 488.513 74.3412 482.991 73.9316 477.571C72.6004 456.709 90.1105 444.54 103.832 443.415C119.294 442.187 134.859 442.597 150.321 442.29C158.717 442.085 157.898 443.415 157.898 434.518C157.898 425.314 157.693 416.11 158.001 406.907C158.103 402.816 156.669 401.691 152.676 401.691C116.837 401.793 80.9971 401.793 45.1577 401.793C18.6365 401.691 0 383.284 0 357.104C0 277.339 0 197.573 0 117.808C0 92.2417 18.4317 73.4252 43.9289 73.1184C61.6438 72.9138 79.4611 73.1184 97.176 73.0161C101.17 73.0161 104.651 74.0388 106.392 78.027C108.747 83.5493 104.549 88.6624 97.4832 88.6624C80.0755 88.7647 62.6678 89.276 45.2601 88.5602C30.2075 87.9466 15.3598 99.7069 15.4621 118.319C15.8717 197.778 15.5645 277.134 15.6669 356.593C15.6669 375.103 26.726 386.045 45.2601 386.045C111.819 386.045 178.378 386.045 244.937 386.045C246.678 386.147 248.418 386.147 251.388 386.147ZM385.837 489.945C385.837 485.445 385.837 481.559 385.837 477.673C385.837 468.162 382.151 462.538 373.14 459.675C369.351 458.447 365.152 457.936 361.159 457.936C278.728 457.834 196.4 457.834 113.969 457.834C112.126 457.834 110.181 457.732 108.337 457.936C99.736 458.55 90.7249 464.276 89.9057 470.924C89.0866 477.059 89.7009 483.4 89.7009 489.945C188.208 489.945 286.613 489.945 385.837 489.945ZM173.565 442.187C175.613 442.187 177.661 442.187 179.607 442.187C206.23 442.187 232.854 442.187 259.477 442.187C272.072 442.187 284.77 442.085 297.365 442.29C300.949 442.392 302.177 441.267 302.075 437.586C301.87 432.268 301.87 427.052 302.075 421.735C302.177 418.974 301.051 417.746 298.389 416.622C288.968 412.429 279.752 407.725 270.332 403.327C268.898 402.611 267.157 401.896 265.621 401.793C236.131 401.691 206.64 401.793 177.047 401.691C173.872 401.691 172.848 402.918 172.848 405.884C172.951 416.826 172.848 427.666 172.951 438.608C172.951 439.631 173.258 440.654 173.565 442.187ZM402.425 327.039C402.425 283.986 367.712 249.216 324.5 248.909C281.698 248.603 246.268 283.781 246.166 326.63C246.063 369.887 281.186 405.168 324.296 405.168C367.2 405.066 402.425 369.887 402.425 327.039ZM429.561 407.827C423.52 413.554 417.785 418.974 411.744 424.7C427.206 439.631 442.668 454.664 457.106 468.674C463.352 462.947 469.087 457.629 475.231 452.107C459.666 437.074 444.306 422.144 429.561 407.827ZM395.462 387.988C394.131 389.522 393.005 390.851 392.595 391.158C397.408 396.476 401.811 401.384 406.624 406.804C408.057 405.27 409.184 404.145 409.798 403.532C404.781 398.214 400.275 393.306 395.462 387.988Z" fill="#007A70"/>
<path d="M377.952 62.9944C369.658 65.2442 362.49 67.3917 355.22 69.0279C351.534 69.846 352.046 72.4026 352.046 74.9592C352.046 98.9911 352.046 123.023 352.046 147.055C352.046 158.202 351.738 158.713 340.884 160.758C312.417 166.076 284.053 171.701 255.586 176.507C236.438 179.779 217.187 178.041 198.141 174.359C173.463 169.655 148.683 165.053 123.902 160.452C117.041 159.224 114.891 156.77 114.891 149.816C114.891 124.966 114.789 100.014 114.993 75.1637C114.993 70.8686 113.56 69.3347 109.566 68.3121C96.6642 65.1419 83.9668 61.5627 71.0646 58.188C66.7638 57.0631 63.7943 54.8133 63.6919 50.3137C63.6919 45.8141 66.7638 43.462 70.9622 42.3371C123.902 28.327 176.842 14.3169 229.884 0.409068C232.854 -0.306777 236.335 1.3885e-05 239.305 0.818122C291.323 14.5214 343.239 28.4293 395.258 42.1326C399.251 43.1552 402.835 44.5869 403.245 49.3933C403.654 54.4042 400.89 56.654 396.486 58.2902C395.258 58.6993 393.927 60.9491 393.927 62.2785C393.722 83.5493 393.722 104.922 393.927 126.193C393.927 127.829 395.667 129.466 396.691 131C396.896 131.204 397.306 131.306 397.613 131.511C415.123 141.737 412.153 137.544 412.358 157.588C412.461 171.598 412.358 185.506 412.461 199.516C412.461 203.198 411.846 206.981 408.16 207.902C405.293 208.618 401.504 207.8 398.739 206.368C394.131 204.016 390.035 198.391 385.735 198.289C381.639 198.187 377.748 204.016 373.242 206.47C370.58 207.902 366.279 209.027 364.026 207.8C361.773 206.572 359.828 202.38 359.828 199.516C359.418 181.825 359.725 164.031 359.623 146.339C359.623 142.146 360.954 138.669 364.948 137.34C376.724 133.249 379.386 125.171 378.464 113.41C377.338 98.8889 378.157 84.1629 378.157 69.437C377.952 67.5962 377.952 65.7555 377.952 62.9944ZM131.172 74.2433C130.865 75.675 130.66 76.0841 130.66 76.5954C130.66 98.5821 130.66 120.569 130.558 142.453C130.558 145.726 132.299 146.237 134.961 146.748C155.646 150.634 176.33 154.725 197.117 158.509C214.729 161.781 232.547 164.542 250.364 161.576C277.192 157.077 303.918 151.861 330.644 147.157C335.355 146.339 337.095 144.703 336.993 139.692C336.686 119.955 336.891 100.218 336.891 80.3792C336.891 78.5384 336.891 76.6977 336.891 74.2433C333.614 74.9592 331.156 75.4705 328.801 76.0841C298.184 84.1629 267.669 92.2417 237.052 100.218C234.902 100.832 232.342 100.73 230.089 100.218C208.688 94.6961 187.287 88.9693 165.988 83.3448C154.417 80.3792 142.948 77.3112 131.172 74.2433ZM104.651 49.5978C104.651 50.1092 104.754 50.5182 104.754 51.0295C105.573 51.2341 106.29 51.5408 107.109 51.7454C148.58 62.7898 189.949 73.8343 231.42 84.6742C233.059 85.0833 235.107 84.7765 236.847 84.3674C277.602 73.6298 318.357 62.7898 359.213 51.9499C360.442 51.6431 361.466 51.0295 363.514 50.2114C361.876 49.4956 361.159 49.0865 360.442 48.882C319.483 38.0421 278.626 27.0999 237.667 16.3622C235.004 15.6463 231.932 15.7486 229.27 16.4644C196.81 24.9523 164.452 33.5425 132.094 42.1326C122.878 44.5869 113.765 47.1435 104.651 49.5978ZM375.188 186.222C382.663 177.836 389.421 178.654 396.794 185.915C396.794 173.132 396.794 161.985 396.691 150.736C396.691 149.918 395.872 148.896 395.155 148.282C389.216 142.964 385.939 142.862 378.976 146.748C376.109 148.384 374.88 150.225 374.983 153.6C375.29 160.247 375.085 166.894 375.085 173.439C375.188 177.12 375.188 180.7 375.188 186.222Z" fill="#007A70"/>
<path d="M174.999 291.451C190.051 291.451 205.001 291.451 220.054 291.451C223.945 291.451 227.222 292.372 228.655 296.36C230.499 301.473 227.119 306.382 221.385 306.688C216.572 306.893 211.862 306.791 207.049 306.791C182.679 306.791 158.308 306.791 133.937 306.791C132.606 306.791 131.172 306.791 129.841 306.791C123.492 306.688 119.806 303.825 119.908 299.121C119.908 294.315 123.492 291.656 130.046 291.656C144.996 291.451 159.946 291.451 174.999 291.451Z" fill="#007A70"/>
<path d="M170.596 268.237C157.796 268.237 144.996 268.237 132.196 268.237C130.148 268.237 128.1 268.237 126.052 267.93C122.161 267.317 120.113 264.556 119.908 260.772C119.704 256.988 121.956 254.432 125.54 253.205C126.155 253 126.871 253 127.588 253C156.26 253 184.931 253 213.603 253C217.494 253 220.668 254.943 220.976 258.727C221.18 261.283 219.952 264.76 218.211 266.601C216.777 268.135 213.5 268.237 211.043 268.237C197.526 268.34 184.01 268.237 170.596 268.237Z" fill="#007A70"/>
<path d="M160.663 229.888C150.218 229.888 139.876 229.888 129.431 229.888C123.595 229.888 119.908 226.82 119.908 222.219C119.908 217.617 123.492 214.344 129.329 214.344C150.525 214.242 171.619 214.242 192.816 214.344C198.55 214.344 202.339 217.923 202.134 222.423C201.929 227.025 198.243 229.991 192.406 229.991C181.757 229.991 171.21 229.888 160.663 229.888Z" fill="#007A70"/>
<path d="M86.4242 229.888C83.0451 229.888 79.5636 230.093 76.1844 229.888C71.7813 229.582 68.7093 226.411 68.6069 222.423C68.6069 218.026 70.9621 214.958 75.1604 214.753C82.4307 214.242 89.8034 214.242 97.0737 214.651C101.477 214.958 104.139 218.026 103.832 222.73C103.525 227.332 100.555 229.684 96.0497 229.888C92.8753 230.093 89.5986 229.888 86.4242 229.888Z" fill="#007A70"/>
<path d="M86.1172 268.033C82.5332 268.033 78.9493 268.237 75.4677 267.931C71.0646 267.522 68.8118 264.76 68.7094 260.465C68.607 256.375 71.7814 253.102 76.0821 253C82.8404 252.796 89.7011 252.796 96.4594 253C100.863 253.102 103.832 256.273 103.934 260.363C104.037 264.454 101.272 267.624 96.7666 268.033C93.285 268.34 89.7011 268.135 86.1172 268.033Z" fill="#007A70"/>
<path d="M86.0147 306.689C82.6355 306.689 79.2564 306.893 75.8773 306.689C71.5765 306.382 68.5046 303.007 68.7094 298.917C69.0166 294.724 71.2693 291.758 75.6725 291.656C82.8403 291.451 89.9058 291.451 97.0737 291.656C101.477 291.86 103.73 294.724 103.934 299.019C104.139 303.109 101.067 306.382 96.7665 306.689C93.0802 306.791 89.5986 306.689 86.0147 306.689Z" fill="#007A70"/>
<path d="M324.398 258.625C362.49 258.727 392.8 289.099 392.697 327.243C392.595 364.774 361.773 395.453 324.193 395.453C286.408 395.351 255.791 364.57 255.893 326.63C255.996 288.895 286.51 258.625 324.398 258.625ZM377.235 327.141C377.543 298.405 353.684 274.271 324.91 273.964C295.521 273.76 271.355 297.689 271.355 326.937C271.355 355.468 294.805 379.398 322.964 379.705C353.069 380.114 376.928 356.9 377.235 327.141Z" fill="#007A70"/>
</g>
<defs>
<clipPath id="clip0_2007_284">
<rect width="491" height="506" fill="white"/>
</clipPath>
</defs>
</svg>
