<svg width="25" height="25" viewBox="0 0 25 25" fill="none" xmlns="http://www.w3.org/2000/svg">
<path d="M22.8027 3.71094H2.19727C0.988184 3.71094 0 4.69478 0 5.9082V19.0918C0 20.3057 0.988818 21.2891 2.19727 21.2891H22.8027C24.0118 21.2891 25 20.3052 25 19.0918V5.9082C25 4.69448 24.0113 3.71094 22.8027 3.71094ZM22.4653 5.17578C21.7549 5.88853 13.4104 14.2603 13.0676 14.6042C12.7812 14.8914 12.2189 14.8916 11.9324 14.6042L2.53467 5.17578H22.4653ZM1.46484 18.8225V6.17749L7.76685 12.5L1.46484 18.8225ZM2.53467 19.8242L8.80098 13.5375L10.895 15.6383C11.7531 16.4992 13.2473 16.4989 14.1051 15.6383L16.1991 13.5375L22.4653 19.8242H2.53467ZM23.5352 18.8225L17.2332 12.5L23.5352 6.17749V18.8225Z" fill="#573CFF"/>
</svg>
