<svg width="43" height="32" viewBox="0 0 43 32" fill="none" xmlns="http://www.w3.org/2000/svg">
<path d="M0.880062 2.5569C6.64696 7.44083 16.7661 16.0331 19.7402 18.7122C20.1395 19.0738 20.5677 19.2577 21.0122 19.2577C21.4559 19.2577 21.8834 19.0756 22.2817 18.7157C25.2584 16.034 35.3775 7.44083 41.1445 2.5569C41.5035 2.25341 41.5583 1.71997 41.2676 1.34895C40.5956 0.491585 39.5938 0 38.52 0H3.5045C2.43081 0 1.42885 0.491585 0.756961 1.34903C0.466277 1.71997 0.521016 2.25341 0.880062 2.5569Z" fill="#573CFF"/>
<path d="M41.5109 5.19489C41.2006 5.05045 40.8355 5.10084 40.5774 5.32144C34.182 10.743 26.0197 17.6923 23.4517 20.0064C22.0103 21.3075 20.0099 21.3075 18.5652 20.0047C15.8279 17.5384 6.66192 9.7462 1.44127 5.32136C1.18136 5.10076 0.815506 5.0521 0.507753 5.19481C0.198357 5.33851 0 5.64799 0 5.98906V28.0037C0 29.9349 1.57036 31.5053 3.50158 31.5053H38.5171C40.4483 31.5053 42.0186 29.9349 42.0186 28.0037V5.98906C42.0186 5.64799 41.8203 5.33769 41.5109 5.19489Z" fill="#573CFF"/>
</svg>
