<svg width="15" height="15" viewBox="0 0 15 15" fill="none" xmlns="http://www.w3.org/2000/svg">
<path d="M7.5 10.6167C8.30682 10.6167 8.99148 10.3142 9.55398 9.70917C10.1165 9.10417 10.3977 8.36778 10.3977 7.5C10.3977 6.63222 10.1165 5.89583 9.55398 5.29083C8.99148 4.68583 8.30682 4.38333 7.5 4.38333C6.69318 4.38333 6.00852 4.68583 5.44602 5.29083C4.88352 5.89583 4.60227 6.63222 4.60227 7.5C4.60227 8.36778 4.88352 9.10417 5.44602 9.70917C6.00852 10.3142 6.69318 10.6167 7.5 10.6167ZM7.5 9.55333C6.96591 9.55333 6.5142 9.35472 6.14489 8.9575C5.77557 8.56028 5.59091 8.07444 5.59091 7.5C5.59091 6.92556 5.77557 6.43972 6.14489 6.0425C6.5142 5.64528 6.96591 5.44667 7.5 5.44667C8.03409 5.44667 8.4858 5.64528 8.85511 6.0425C9.22443 6.43972 9.40909 6.92556 9.40909 7.5C9.40909 8.07444 9.22443 8.56028 8.85511 8.9575C8.4858 9.35472 8.03409 9.55333 7.5 9.55333ZM7.5 13C5.84091 13 4.34091 12.4928 3 11.4783C1.65909 10.4639 0.659091 9.13778 0 7.5C0.659091 5.86222 1.65909 4.53611 3 3.52167C4.34091 2.50722 5.84091 2 7.5 2C9.15909 2 10.6591 2.50722 12 3.52167C13.3409 4.53611 14.3409 5.86222 15 7.5C14.3409 9.13778 13.3409 10.4639 12 11.4783C10.6591 12.4928 9.15909 13 7.5 13ZM7.5 11.9C8.875 11.9 10.1392 11.4997 11.2926 10.6992C12.446 9.89861 13.3239 8.83222 13.9261 7.5C13.3239 6.16778 12.446 5.10139 11.2926 4.30083C10.1392 3.50028 8.875 3.1 7.5 3.1C6.125 3.1 4.8608 3.50028 3.70739 4.30083C2.55398 5.10139 1.67045 6.16778 1.05682 7.5C1.67045 8.83222 2.55398 9.89861 3.70739 10.6992C4.8608 11.4997 6.125 11.9 7.5 11.9Z" fill="#002935"/>
</svg>
