<svg width="80" height="80" viewBox="0 0 80 80" fill="none" xmlns="http://www.w3.org/2000/svg">
<rect width="80" height="80" rx="2" fill="url(#paint0_linear_1163_490)"/>
<path d="M25 46.116C25 48.366 26.959 50.192 29.375 50.192C31.791 50.192 33.75 48.366 33.75 46.116C33.75 44.466 31.182 42.913 31.182 40.002C31.182 37.382 33.75 35.538 33.75 33.888C33.75 31.638 31.791 29.812 29.375 29.812C26.959 29.812 25 31.637 25 33.888C25 35.538 27.568 37.381 27.568 40.002C27.568 42.622 25 44.465 25 46.116ZM46.25 21.076C46.25 18.826 48.209 17 50.625 17C53.041 17 55 18.825 55 21.076C55 21.785 54.526 22.476 53.986 23.264C53.268 24.31 52.432 25.529 52.432 27.19C52.432 28.65 53.23 29.87 53.937 30.95C54.497 31.806 55 32.574 55 33.304C55 33.402 54.996 33.499 54.989 33.594C54.996 33.691 55 33.788 55 33.886C55 34.595 54.526 35.286 53.986 36.074C53.268 37.12 52.432 38.339 52.432 40C52.432 41.46 53.23 42.68 53.937 43.76C54.497 44.616 55 45.384 55 46.114C54.9999 46.2111 54.9962 46.3082 54.989 46.405C54.9962 46.5018 54.9999 46.5989 55 46.696C55 47.426 54.497 48.194 53.937 49.051C53.23 50.13 52.432 51.349 52.432 52.811C52.432 54.471 53.268 55.69 53.986 56.736C54.526 57.525 55 58.216 55 58.924C55 61.174 53.041 63 50.625 63C48.209 63 46.25 61.175 46.25 58.924C46.25 58.194 46.753 57.426 47.313 56.57C48.02 55.49 48.818 54.271 48.818 52.81C48.818 51.35 48.02 50.13 47.313 49.05C46.753 48.194 46.25 47.426 46.25 46.696C46.25 46.598 46.253 46.501 46.26 46.406C46.253 46.3088 46.2496 46.2114 46.25 46.114C46.25 45.384 46.753 44.616 47.313 43.759C48.02 42.68 48.818 41.461 48.818 39.999C48.818 38.539 48.02 37.319 47.313 36.241C46.753 35.384 46.25 34.616 46.25 33.886C46.25 33.788 46.253 33.691 46.26 33.595C46.253 33.4982 46.2497 33.4011 46.25 33.304C46.25 32.574 46.753 31.806 47.313 30.949C48.02 29.87 48.818 28.651 48.818 27.189C48.818 25.729 48.02 24.509 47.313 23.43C46.753 22.574 46.25 21.806 46.25 21.076ZM40 56.596C37.583 56.596 35.624 54.771 35.624 52.52C35.624 51.79 36.127 51.022 36.688 50.165C37.394 49.086 38.193 47.867 38.193 46.406C38.193 44.946 37.394 43.726 36.688 42.646C36.128 41.79 35.624 41.022 35.624 40.292C35.6241 40.1949 35.6278 40.0978 35.635 40.001C35.628 39.9042 35.6247 39.8071 35.625 39.71C35.625 38.98 36.127 38.212 36.688 37.355C37.394 36.276 38.193 35.057 38.193 33.595C38.193 32.135 37.394 30.915 36.688 29.836C36.128 28.98 35.624 28.212 35.624 27.482C35.624 25.232 37.584 23.406 40 23.406C42.416 23.406 44.375 25.231 44.375 27.482C44.375 28.191 43.901 28.882 43.36 29.67C42.642 30.716 41.806 31.935 41.806 33.596C41.806 35.056 42.605 36.276 43.311 37.356C43.871 38.212 44.375 38.98 44.375 39.71C44.375 39.808 44.371 39.905 44.364 40C44.371 40.097 44.374 40.194 44.374 40.292C44.374 41.022 43.872 41.79 43.311 42.646C42.605 43.726 41.806 44.946 41.806 46.406C41.806 48.066 42.642 49.286 43.36 50.332C43.9 51.12 44.375 51.812 44.375 52.52C44.375 54.77 42.415 56.596 40 56.596Z" fill="white"/>
<defs>
<linearGradient id="paint0_linear_1163_490" x1="40" y1="0" x2="40" y2="80" gradientUnits="userSpaceOnUse">
<stop stop-color="#2F18BC"/>
<stop offset="1" stop-color="#573CFF"/>
</linearGradient>
</defs>
</svg>
