<svg width="506" height="506" viewBox="0 0 506 506" fill="none" xmlns="http://www.w3.org/2000/svg">
<g clip-path="url(#clip0_2006_285)">
<path d="M499.366 456.93C392.512 456.93 286.372 456.93 180.029 456.93C179.62 462.235 179.62 467.336 178.702 472.233C175.436 491.208 159.617 505.49 140.533 505.694C106.649 506.102 72.8685 506.204 38.9855 505.694C17.4514 505.388 0.407858 487.331 0.203743 465.5C-0.000371087 444.382 0.101686 423.367 0.101686 402.25C0.101686 336.653 0.101686 270.955 0.101686 205.358C0.101686 160.471 30.1065 124.256 74.0932 115.686C76.4405 115.278 78.7878 114.972 81.7475 114.462C81.7475 109.157 81.8496 103.954 81.7475 98.7516C81.4413 90.3863 84.401 83.5512 90.3203 77.7363C113.487 54.6806 136.552 31.625 159.617 8.46734C165.332 2.75444 172.17 0 180.539 0C263.92 0.102016 347.198 0 430.579 0.102016C447.215 0.102016 457.114 10.2016 457.216 26.8302C457.216 60.1895 457.216 93.4468 457.216 126.806C457.216 128.642 457.216 130.479 457.216 130.989C465.075 131.397 472.525 130.581 479.363 132.315C504.775 139.048 514.47 169.857 498.141 190.464C496.61 192.504 494.773 194.341 492.936 196.075C480.179 208.827 467.524 221.579 454.665 234.229C452.42 236.371 452.317 238.004 453.746 240.656C465.687 262.794 473.954 286.257 478.138 311.047C479.465 319.106 479.975 327.268 481.098 335.327C484.466 359.811 487.935 384.397 491.61 408.881C493.753 424.693 496.61 440.404 499.366 456.93ZM375.468 424.081C315.459 424.081 255.857 424.081 196.46 424.081C196.46 353.18 196.46 282.891 196.46 212.296C198.705 212.296 200.542 212.296 202.379 212.296C238.303 212.296 274.125 212.398 310.05 212.194C312.703 212.194 315.867 210.765 317.908 209.031C325.256 202.808 333.217 197.707 342.81 197.095C356.486 196.177 370.365 196.483 384.041 195.973C386.593 195.871 389.756 194.749 391.491 193.015C407.208 177.712 422.721 162.206 438.029 146.495C439.662 144.761 440.887 141.904 440.887 139.456C441.091 102.22 440.989 64.9843 440.989 27.7484C440.989 18.771 438.438 16.4246 429.355 16.3226C347.913 16.3226 266.369 16.3226 184.927 16.3226C183.295 16.3226 181.662 16.4246 179.518 16.5266C179.518 18.669 179.518 20.5052 179.518 22.3415C179.518 38.9702 179.62 55.7008 179.518 72.3294C179.416 87.5298 169.109 97.8335 153.8 97.9355C137.165 98.0375 120.427 97.9355 103.792 97.9355C101.955 97.9355 100.118 97.9355 98.2808 97.9355C98.2808 103.852 98.2808 109.259 98.2808 114.768C100.934 115.176 103.282 115.482 105.527 115.89C149.514 124.358 179.518 160.573 179.518 205.46C179.62 281.769 179.518 358.179 179.518 434.487C179.518 436.425 179.518 438.465 179.518 440.506C245.141 440.506 310.152 440.506 375.468 440.506C375.468 435.099 375.468 429.998 375.468 424.081ZM163.393 204.236C163.495 163.532 130.531 130.581 89.9121 130.479C49.4974 130.479 16.4309 163.226 16.3288 203.522C16.1247 244.227 48.9871 277.484 89.5039 277.484C130.123 277.586 163.291 244.737 163.393 204.236ZM15.002 259.019C15.5123 258.305 15.9206 257.591 16.4309 256.877C16.3288 258.305 16.2267 259.835 16.2267 261.263C16.2267 328.594 16.2267 395.925 16.2267 463.255C16.2267 479.476 26.4325 489.677 42.6596 489.677C73.9912 489.677 105.221 489.677 136.552 489.677C153.188 489.677 163.291 479.578 163.291 463.051C163.291 395.721 163.291 328.39 163.291 261.059C163.291 259.631 163.189 258.203 162.985 256.265C158.495 261.059 154.821 265.65 150.432 269.629C147.574 272.179 146.656 274.729 146.758 278.402C146.962 293.704 146.86 309.007 146.86 324.309C146.86 336.143 140.328 342.57 128.49 342.57C102.771 342.57 77.1549 342.57 51.4365 342.57C39.1896 342.57 32.76 336.245 32.76 324.105C32.76 308.497 32.8621 292.786 32.658 277.178C32.658 275.24 32.0456 272.587 30.6168 271.363C25.616 267.078 20.309 263.1 15.002 259.019ZM351.281 245.043C351.179 246.369 351.077 247.695 351.077 249.021C351.077 272.281 351.077 295.643 351.077 318.902C351.077 331.96 356.18 342.672 366.181 350.935C371.692 355.526 377.203 360.015 383.021 364.198C384.653 365.32 387.409 365.932 389.348 365.422C413.332 359.097 437.213 352.364 461.094 346.039C464.666 345.121 465.585 343.59 465.279 340.122C463.85 319.004 460.176 298.295 452.828 278.402C449.256 268.608 444.765 259.121 440.377 248.817C438.132 250.96 436.805 252.184 435.478 253.51C421.19 267.792 407.106 282.381 392.41 296.255C386.184 302.07 382 307.987 383.531 316.862C383.531 317.168 383.225 317.474 383.123 317.78C378.02 317.78 372.815 317.78 367.508 317.78C367.508 315.536 367.508 313.598 367.508 311.761C367.508 294.929 367.61 278.096 367.508 261.263C367.304 251.878 360.67 245.247 351.281 245.043ZM383.735 282.177C385.878 280.136 387.307 278.912 388.532 277.586C402.411 263.814 416.189 249.94 430.069 236.167C447.725 218.519 465.381 200.768 483.139 183.119C488.752 177.508 491.303 170.979 489.466 163.226C487.629 155.371 482.731 149.964 474.872 147.719C466.708 145.373 459.768 147.617 453.95 153.534C427.415 180.058 400.779 206.685 374.244 233.209C373.427 234.025 372.713 234.943 371.59 236.269C386.899 248.001 383.123 265.038 383.735 282.177ZM467.014 361.035C442.418 367.768 418.537 374.297 394.655 380.724C391.695 381.54 391.798 383.377 391.798 385.723C391.798 402.76 391.798 419.694 391.798 436.731C391.798 438.057 392.002 439.281 392.104 440.506C421.598 440.506 450.685 440.506 480.179 440.506C475.893 413.879 471.504 387.763 467.014 361.035ZM212.483 228.516C212.483 239.636 212.483 250.246 212.483 260.957C242.896 260.957 272.901 260.957 301.885 260.957C302.395 249.94 302.906 239.33 303.416 228.516C273.615 228.516 243.304 228.516 212.483 228.516ZM130.531 283.911C103.077 296.969 76.2364 296.765 49.2933 284.013C49.2933 298.499 49.2933 312.271 49.2933 326.146C76.5426 326.146 103.486 326.146 130.531 326.146C130.531 312.169 130.531 298.499 130.531 283.911ZM212.483 277.586C212.483 288.706 212.483 299.315 212.483 310.231C232.69 310.231 252.489 310.231 272.39 310.129C273.819 310.129 275.452 308.905 276.575 307.783C285.76 298.703 294.843 289.624 303.926 280.442C304.641 279.728 305.151 278.708 305.967 277.586C274.636 277.586 243.712 277.586 212.483 277.586ZM310.764 355.22C318.52 347.467 326.379 339.714 334.135 331.858C335.054 330.94 335.666 329.206 335.564 327.88C335.36 316.352 335.054 304.824 334.747 293.296C334.645 287.787 334.747 282.177 334.747 276.668C329.951 277.076 285.862 319.208 281.78 326.452C291.475 335.837 300.967 345.325 310.764 355.22ZM212.585 375.317C212.585 386.641 212.585 397.251 212.585 407.758C239.936 407.758 266.879 407.758 294.027 407.758C294.027 403.27 294.027 399.189 294.027 395.108C294.027 391.13 294.027 387.151 294.027 382.458C287.495 385.009 281.882 387.253 276.269 389.498C263.614 394.394 253.102 390.212 246.876 378.174C246.264 376.95 244.631 375.419 243.508 375.419C233.201 375.215 222.995 375.317 212.585 375.317ZM342.708 346.447C340.259 348.793 339.034 350.017 337.707 351.242C328.93 359.403 320.051 367.462 311.274 375.623C310.764 376.133 310.254 377.052 310.254 377.766C310.152 387.763 310.254 397.761 310.254 407.86C321.378 407.86 331.992 407.86 342.81 407.86C342.708 387.661 342.708 367.87 342.708 346.447ZM110.936 81.6129C125.734 81.6129 140.635 81.7149 155.535 81.5109C160.23 81.4089 163.087 78.0423 163.291 73.0435C163.495 66.6165 163.291 60.1895 163.393 53.6605C163.393 45.3972 163.393 37.2359 163.393 29.1766C145.839 46.7234 128.49 64.0661 110.936 81.6129ZM212.381 359.199C219.627 359.199 226.567 359.199 233.507 359.199C238.099 359.199 243.814 360.627 246.876 358.485C250.142 356.138 251.061 350.425 252.898 346.039C255.449 339.714 257.898 333.287 260.552 326.656C244.121 326.656 228.404 326.656 212.381 326.656C212.381 337.367 212.381 347.875 212.381 359.199ZM371.692 213.52C371.386 213.112 371.08 212.602 370.774 212.194C363.017 212.194 355.057 211.275 347.403 212.398C325.46 215.356 315.459 233.413 318.622 255.04C319.235 259.121 322.603 261.365 326.889 261.161C331.38 260.855 334.033 258.203 334.645 253.816C334.952 251.164 334.747 248.409 334.747 245.655C334.952 235.351 341.892 228.618 352.301 228.618C353.832 228.618 355.873 228.312 356.894 227.394C361.997 222.905 366.793 218.212 371.692 213.52ZM271.982 341.652C268.41 350.527 264.736 359.199 261.47 368.074C259.94 372.155 263.818 376.542 267.9 375.215C277.085 372.053 286.066 368.176 294.945 364.708C287.189 356.852 279.841 349.507 271.982 341.652ZM359.547 366.34C359.547 380.826 359.547 394.394 359.547 407.656C365.161 407.656 370.263 407.656 375.672 407.656C375.672 398.781 375.775 390.314 375.57 381.846C375.57 380.622 375.162 378.99 374.244 378.276C369.651 374.297 364.854 370.625 359.547 366.34Z" fill="#002935"/>
<path d="M342.709 346.447C342.709 367.972 342.709 387.763 342.709 407.86C331.993 407.86 321.379 407.86 310.152 407.86C310.152 397.761 310.152 387.763 310.152 377.766C310.152 377.052 310.663 376.133 311.173 375.623C319.95 367.462 328.829 359.301 337.606 351.242C339.035 350.017 340.259 348.691 342.709 346.447Z" fill="white"/>
<path d="M424.252 33.0532C424.252 49.1718 424.252 64.9843 424.252 81.1028C348.322 81.1028 272.391 81.1028 196.256 81.1028C196.256 65.0863 196.256 49.1718 196.256 33.0532C272.187 33.0532 348.016 33.0532 424.252 33.0532ZM212.381 64.9843C277.902 64.9843 342.913 64.9843 407.923 64.9843C407.923 59.4754 407.923 54.2726 407.923 49.1718C342.504 49.1718 277.494 49.1718 212.381 49.1718C212.381 54.5786 212.381 59.5774 212.381 64.9843Z" fill="#002935"/>
<path d="M424.252 98.3438C424.252 103.649 424.252 108.545 424.252 113.748C348.22 113.748 272.391 113.748 196.256 113.748C196.256 108.647 196.256 103.649 196.256 98.3438C272.187 98.3438 348.016 98.3438 424.252 98.3438Z" fill="#002935"/>
<path d="M196.154 146.495C196.154 141.19 196.154 136.294 196.154 130.989C272.187 130.989 348.016 130.989 424.15 130.989C424.15 136.09 424.15 141.088 424.15 146.495C348.322 146.495 272.391 146.495 196.154 146.495Z" fill="#002935"/>
<path d="M326.277 163.634C326.277 168.837 326.277 173.733 326.277 179.038C283.005 179.038 239.835 179.038 196.358 179.038C196.358 174.039 196.358 169.041 196.358 163.634C239.427 163.634 282.597 163.634 326.277 163.634Z" fill="#002935"/>
<path d="M97.8732 260.753C92.3621 260.753 87.3613 260.753 81.7481 260.753C81.7481 256.06 81.9522 251.47 81.6461 246.981C81.544 245.451 80.5234 243.41 79.2987 242.696C67.5622 235.657 63.684 227.292 65.9292 212.499C70.93 212.499 75.9309 212.499 81.544 212.499C81.544 215.458 81.4419 218.314 81.544 221.171C81.6461 225.353 83.7893 227.904 87.8716 228.516C92.0559 229.128 95.9341 228.312 97.4649 223.823C98.9958 219.538 96.8526 216.682 93.0765 214.744C88.2798 212.295 83.381 209.949 78.4823 207.399C70.0115 203.012 65.419 196.075 65.3169 186.587C65.3169 177.1 70.1136 170.265 78.3802 165.674C79.9111 164.858 81.2378 162.613 81.4419 160.879C81.8502 156.493 81.544 152.106 81.544 147.413C86.851 147.413 91.9538 147.413 97.6691 147.413C97.6691 151.8 97.567 156.288 97.7711 160.879C97.8732 162.409 98.3835 164.654 99.404 165.164C112.671 171.285 115.223 182.303 113.794 195.565C108.793 195.565 103.69 195.565 97.8732 195.565C97.8732 192.912 97.8732 190.056 97.8732 187.301C97.7711 182.915 95.6279 180.262 91.2394 179.65C87.0551 179.14 83.1769 180.058 81.7481 184.547C80.4214 188.832 82.6666 191.688 86.4428 193.524C91.3415 195.973 96.1382 198.319 101.037 200.87C109.304 205.154 113.896 212.091 113.896 221.273C113.998 230.76 109.508 237.901 101.037 242.186C98.5876 243.41 97.4649 244.736 97.6691 247.593C98.0773 251.674 97.8732 255.958 97.8732 260.753Z" fill="#002935"/>
<path d="M89.8103 359.199C102.874 359.199 115.937 359.199 129.102 359.199C140.227 359.199 146.86 365.83 146.86 376.95C146.86 403.066 146.86 429.284 146.86 455.4C146.86 466.52 140.227 473.151 129 473.151C102.874 473.151 76.6449 473.151 50.5182 473.151C39.394 473.151 32.7603 466.52 32.7603 455.298C32.7603 429.182 32.7603 402.964 32.7603 376.847C32.7603 365.83 39.496 359.097 50.5182 359.097C63.5816 359.097 76.7469 359.199 89.8103 359.199ZM130.531 408.268C124.918 408.268 119.815 408.268 114.508 408.268C114.508 424.591 114.508 440.608 114.508 456.726C120.019 456.726 125.122 456.726 130.531 456.726C130.531 440.506 130.531 424.591 130.531 408.268ZM49.0894 391.436C54.7026 391.436 59.9075 391.436 65.1124 391.436C65.1124 385.927 65.1124 380.826 65.1124 375.623C59.6013 375.623 54.4985 375.623 49.0894 375.623C49.0894 381.03 49.0894 386.029 49.0894 391.436ZM81.7477 391.334C86.9527 391.334 92.1576 391.334 97.7707 391.334C97.7707 386.131 97.7707 380.928 97.7707 375.521C92.3617 375.521 87.1568 375.521 81.7477 375.521C81.7477 380.826 81.7477 385.927 81.7477 391.334ZM130.429 391.538C130.429 386.029 130.429 380.928 130.429 375.521C125.02 375.521 119.815 375.521 114.508 375.521C114.508 380.928 114.508 386.131 114.508 391.538C119.815 391.538 124.816 391.538 130.429 391.538ZM49.1915 408.166C49.1915 413.879 49.1915 418.98 49.1915 424.183C54.7026 424.183 59.8054 424.183 65.0104 424.183C65.0104 418.674 65.0104 413.573 65.0104 408.166C59.7034 408.166 54.6005 408.166 49.1915 408.166ZM81.8498 424.183C87.2588 424.183 92.3617 424.183 97.7707 424.183C97.7707 418.776 97.7707 413.675 97.7707 408.268C92.3617 408.268 87.2588 408.268 81.8498 408.268C81.8498 413.573 81.8498 418.776 81.8498 424.183ZM49.0894 456.726C54.8046 456.726 59.9075 456.726 65.1124 456.726C65.1124 451.217 65.1124 446.116 65.1124 440.914C59.6013 440.914 54.4985 440.914 49.0894 440.914C49.0894 446.32 49.0894 451.319 49.0894 456.726ZM81.7477 456.726C87.463 456.726 92.5658 456.726 97.6687 456.726C97.6687 451.217 97.6687 446.014 97.6687 440.914C92.1576 440.914 86.9527 440.914 81.7477 440.914C81.7477 446.32 81.7477 451.319 81.7477 456.726Z" fill="#002935"/>
</g>
<defs>
<clipPath id="clip0_2006_285">
<rect width="506" height="506" fill="white"/>
</clipPath>
</defs>
</svg>
