<svg width="118" height="100" viewBox="0 0 118 100" fill="none" xmlns="http://www.w3.org/2000/svg">
<g clip-path="url(#clip0_879_644)">
<mask id="mask0_879_644" style="mask-type:luminance" maskUnits="userSpaceOnUse" x="0" y="0" width="118" height="100">
<path d="M118 0H0V100H118V0Z" fill="white"/>
</mask>
<g mask="url(#mask0_879_644)">
<path d="M0.5625 0.473633L5.33294 4.48932" stroke="#007A70" stroke-width="2" stroke-linecap="round"/>
<path d="M18.8496 0.473633L23.62 4.48932" stroke="#007A70" stroke-width="2" stroke-linecap="round"/>
<path d="M37.1357 0.473633L41.9062 4.48932" stroke="#007A70" stroke-width="2" stroke-linecap="round"/>
<path d="M55.4229 0.473633L60.1933 4.48932" stroke="#007A70" stroke-width="2" stroke-linecap="round"/>
<path d="M73.709 0.473633L78.4794 4.48932" stroke="#007A70" stroke-width="2" stroke-linecap="round"/>
<path d="M91.9961 0.473633L96.7665 4.48932" stroke="#007A70" stroke-width="2" stroke-linecap="round"/>
<path d="M110.282 0.473633L115.053 4.48932" stroke="#007A70" stroke-width="2" stroke-linecap="round"/>
<path d="M0.5625 15.8672L5.33294 19.8829" stroke="#007A70" stroke-width="2" stroke-linecap="round"/>
<path d="M18.8496 15.8672L23.62 19.8829" stroke="#007A70" stroke-width="2" stroke-linecap="round"/>
<path d="M37.1357 15.8672L41.9062 19.8829" stroke="#007A70" stroke-width="2" stroke-linecap="round"/>
<path d="M55.4229 15.8672L60.1933 19.8829" stroke="#007A70" stroke-width="2" stroke-linecap="round"/>
<path d="M73.709 15.8672L78.4794 19.8829" stroke="#007A70" stroke-width="2" stroke-linecap="round"/>
<path d="M91.9961 15.8672L96.7665 19.8829" stroke="#007A70" stroke-width="2" stroke-linecap="round"/>
<path d="M110.282 15.8672L115.053 19.8829" stroke="#007A70" stroke-width="2" stroke-linecap="round"/>
<path d="M0.5625 31.2607L5.33294 35.2764" stroke="#007A70" stroke-width="2" stroke-linecap="round"/>
<path d="M18.8496 31.2607L23.62 35.2764" stroke="#007A70" stroke-width="2" stroke-linecap="round"/>
<path d="M37.1357 31.2607L41.9062 35.2764" stroke="#007A70" stroke-width="2" stroke-linecap="round"/>
<path d="M55.4229 31.2607L60.1933 35.2764" stroke="#007A70" stroke-width="2" stroke-linecap="round"/>
<path d="M73.709 31.2607L78.4794 35.2764" stroke="#007A70" stroke-width="2" stroke-linecap="round"/>
<path d="M91.9961 31.2607L96.7665 35.2764" stroke="#007A70" stroke-width="2" stroke-linecap="round"/>
<path d="M110.282 31.2607L115.053 35.2764" stroke="#007A70" stroke-width="2" stroke-linecap="round"/>
<path d="M0.5625 46.6543L5.33294 50.67" stroke="#007A70" stroke-width="2" stroke-linecap="round"/>
<path d="M18.8496 46.6543L23.62 50.67" stroke="#007A70" stroke-width="2" stroke-linecap="round"/>
<path d="M37.1357 46.6543L41.9062 50.67" stroke="#007A70" stroke-width="2" stroke-linecap="round"/>
<path d="M55.4229 46.6543L60.1933 50.67" stroke="#007A70" stroke-width="2" stroke-linecap="round"/>
<path d="M73.709 46.6543L78.4794 50.67" stroke="#007A70" stroke-width="2" stroke-linecap="round"/>
<path d="M91.9961 46.6543L96.7665 50.67" stroke="#007A70" stroke-width="2" stroke-linecap="round"/>
<path d="M110.282 46.6543L115.053 50.67" stroke="#007A70" stroke-width="2" stroke-linecap="round"/>
<path d="M0.5625 62.0479L5.33294 66.0635" stroke="#007A70" stroke-width="2" stroke-linecap="round"/>
<path d="M18.8496 62.0479L23.62 66.0635" stroke="#007A70" stroke-width="2" stroke-linecap="round"/>
<path d="M37.1357 62.0479L41.9062 66.0635" stroke="#007A70" stroke-width="2" stroke-linecap="round"/>
<path d="M55.4229 62.0479L60.1933 66.0635" stroke="#007A70" stroke-width="2" stroke-linecap="round"/>
<path d="M73.709 62.0479L78.4794 66.0635" stroke="#007A70" stroke-width="2" stroke-linecap="round"/>
<path d="M91.9961 62.0479L96.7665 66.0635" stroke="#007A70" stroke-width="2" stroke-linecap="round"/>
<path d="M110.282 62.0479L115.053 66.0635" stroke="#007A70" stroke-width="2" stroke-linecap="round"/>
<path d="M0.5625 77.4414L5.33294 81.4571" stroke="#007A70" stroke-width="2" stroke-linecap="round"/>
<path d="M18.8496 77.4414L23.62 81.4571" stroke="#007A70" stroke-width="2" stroke-linecap="round"/>
<path d="M37.1357 77.4414L41.9062 81.4571" stroke="#007A70" stroke-width="2" stroke-linecap="round"/>
<path d="M55.4229 77.4414L60.1933 81.4571" stroke="#007A70" stroke-width="2" stroke-linecap="round"/>
<path d="M73.709 77.4414L78.4794 81.4571" stroke="#007A70" stroke-width="2" stroke-linecap="round"/>
<path d="M91.9961 77.4414L96.7665 81.4571" stroke="#007A70" stroke-width="2" stroke-linecap="round"/>
<path d="M110.282 77.4414L115.053 81.4571" stroke="#007A70" stroke-width="2" stroke-linecap="round"/>
<path d="M0.5625 92.834L5.33294 96.8497" stroke="#007A70" stroke-width="2" stroke-linecap="round"/>
<path d="M18.8496 92.834L23.62 96.8497" stroke="#007A70" stroke-width="2" stroke-linecap="round"/>
<path d="M37.1357 92.834L41.9062 96.8497" stroke="#007A70" stroke-width="2" stroke-linecap="round"/>
<path d="M55.4229 92.834L60.1933 96.8497" stroke="#007A70" stroke-width="2" stroke-linecap="round"/>
<path d="M73.709 92.834L78.4794 96.8497" stroke="#007A70" stroke-width="2" stroke-linecap="round"/>
<path d="M91.9961 92.834L96.7665 96.8497" stroke="#007A70" stroke-width="2" stroke-linecap="round"/>
<path d="M110.282 92.834L115.053 96.8497" stroke="#007A70" stroke-width="2" stroke-linecap="round"/>
</g>
</g>
<defs>
<clipPath id="clip0_879_644">
<rect width="118" height="100" fill="white"/>
</clipPath>
</defs>
</svg>
