<svg width="506" height="505" viewBox="0 0 506 505" fill="none" xmlns="http://www.w3.org/2000/svg">
<g clip-path="url(#clip0_2006_275)">
<path d="M506 312.351C503.332 319.468 498.094 321.148 490.879 320.95C473.782 320.456 456.685 320.851 439.489 320.753C431.385 320.753 428.42 317.787 428.42 309.781C428.42 291.494 428.42 273.208 428.42 254.922C428.42 247.409 431.879 243.752 439.587 243.555C445.122 243.357 450.755 243.555 457.377 243.555C456.882 237.13 456.784 231.1 455.894 225.169C447.098 168.136 419.624 122.074 373.373 87.5768C350.84 70.6743 325.54 59.5048 298.066 53.1787C291.642 51.696 291.345 51.9926 291.345 58.5163C291.345 62.1736 291.444 65.732 291.246 69.3893C290.95 74.1339 287.689 77.4946 283.044 77.5935C263.08 77.6923 243.216 77.6923 223.253 77.5935C218.509 77.5935 215.248 74.1339 215.05 69.3893C214.852 65.6332 214.951 61.7782 214.951 58.0221C214.852 52.0914 214.556 51.7949 208.725 53.0799C184.809 58.5163 162.276 67.7089 141.917 81.4484C92.4043 114.562 62.2617 160.228 51.2918 218.448C49.8094 226.454 49.3152 234.658 48.327 243.555C54.4543 243.555 59.4945 243.555 64.5348 243.555C74.4176 243.555 77.6789 246.816 77.6789 256.404C77.6789 274.197 77.6789 291.989 77.6789 309.781C77.6789 317.787 74.6152 320.753 66.6102 320.753C49.5129 320.753 32.3168 320.456 15.2195 320.95C7.90625 321.148 2.66836 319.468 0 312.351C0 292.285 0 272.121 0 252.055C3.1625 244.741 9.19102 242.961 16.5043 243.555C18.975 243.752 21.4457 243.555 23.9164 243.555C30.4391 243.555 30.6367 243.357 30.9332 236.635C31.8227 219.14 35.1828 202.04 40.6184 185.532C60.5816 125.138 99.0258 80.7565 155.852 52.2891C157.433 51.4983 158.916 50.5099 161.287 49.0272C159.41 48.4341 158.817 48.1376 158.224 48.1376C132.726 48.1376 107.229 48.1376 81.7309 48.0388C78.8648 48.0388 77.5801 49.4226 77.6789 52.2891C77.7777 57.2314 77.7777 62.1736 77.6789 67.1159C77.5801 74.4304 74.4176 77.4946 67.0055 77.5935C49.7105 77.5935 32.4156 77.2969 15.1207 77.7912C7.90625 77.9888 2.66836 76.3085 0 69.1916C0 49.1261 0 28.9616 0 8.89607C2.96484 5.93071 5.92969 2.96536 8.89453 0C28.9566 0 49.1176 0 69.1797 0C76.1965 2.66882 78.5684 7.90761 77.6789 15.1233C77.3824 17.891 77.5801 20.6586 77.5801 23.5252C77.5801 30.0489 77.5801 30.0489 84.1027 30.0489C122.547 30.0489 160.991 30.0489 199.435 30.0489C204.179 30.0489 210.8 31.4328 213.073 28.9616C215.643 26.194 214.852 19.6702 214.556 14.9256C214.161 7.70992 215.939 2.37228 223.352 0C243.117 0 262.883 0 282.648 0C290.061 2.37228 292.136 7.70992 291.345 14.9256C290.95 17.9898 291.444 21.1529 291.246 24.3159C290.95 28.7639 292.531 30.2466 297.176 30.2466C319.808 30.0489 342.538 30.1478 365.17 30.1478C384.441 30.1478 403.614 30.0489 422.886 30.2466C427.234 30.2466 428.815 28.8628 428.42 24.6124C428.123 21.5482 428.716 18.3852 428.321 15.2222C427.432 7.90761 429.705 2.66882 436.82 0C456.882 0 477.043 0 497.105 0C500.07 2.96536 503.035 5.93071 506 8.89607C506 28.9616 506 49.1261 506 69.1916C503.727 73.7385 501.454 77.7912 495.327 77.6923C476.253 77.5935 457.179 77.6923 438.105 77.5935C431.978 77.5935 428.618 74.2327 428.42 68.2032C428.321 63.5574 428.123 59.0106 428.42 54.3648C428.815 49.2249 426.641 47.9399 421.897 48.0388C398.179 48.2364 374.46 48.1376 350.84 48.1376C349.16 48.1376 347.579 48.4341 345.898 48.6318C345.8 49.0272 345.8 49.5214 345.701 49.9168C348.073 51.2018 350.445 52.4868 352.915 53.6729C400.847 78.1865 435.832 115.056 457.475 164.38C467.655 187.608 473.782 211.825 475.067 237.228C475.264 242.072 476.945 244.543 482.182 243.653C484.554 243.258 487.124 243.752 489.595 243.555C496.908 242.863 502.837 244.741 506.099 252.055C506 272.121 506 292.285 506 312.351ZM19.3703 19.3737C19.3703 32.4212 19.2715 44.8757 19.4691 57.3302C19.4691 58.121 21.3469 59.6036 22.434 59.6036C33.6016 59.8013 44.868 59.8013 56.0355 59.6036C57.2215 59.6036 59.4945 57.429 59.4945 56.1441C59.791 44.9746 59.6922 33.7062 59.4945 22.5367C59.4945 21.4494 57.7156 19.4725 56.8262 19.4725C44.5715 19.2748 32.218 19.3737 19.3703 19.3737ZM253.099 19.2748C247.663 19.2748 242.228 19.3737 236.792 19.2748C233.827 19.176 232.641 20.1644 232.74 23.2286C232.839 34.1016 232.839 44.8757 232.74 55.7487C232.74 58.8129 234.025 59.8013 236.891 59.8013C247.564 59.7025 258.238 59.7025 268.911 59.8013C272.074 59.8013 273.26 58.6152 273.26 55.4521C273.161 44.7769 273.161 34.1016 273.26 23.4263C273.359 20.0656 271.876 19.2748 268.812 19.3737C263.575 19.4725 258.337 19.2748 253.099 19.2748ZM486.729 19.3737C473.782 19.3737 461.527 19.2748 449.174 19.5713C448.186 19.5713 446.505 22.4379 446.407 24.0194C446.11 34.2004 446.407 44.4803 446.209 54.6614C446.11 58.5163 447.593 59.9002 451.447 59.8013C460.341 59.6036 469.236 59.8013 478.13 59.7025C488.013 59.7025 486.63 60.3944 486.729 51.3995C486.729 40.9219 486.729 30.3455 486.729 19.3737ZM19.3703 262.533C19.3703 275.383 19.2715 287.738 19.4691 299.995C19.4691 300.984 21.4457 302.664 22.434 302.763C33.6016 302.96 44.868 302.96 56.0355 302.763C57.2215 302.763 59.4945 300.588 59.4945 299.303C59.791 288.134 59.6922 276.865 59.4945 265.696C59.4945 264.609 57.7156 262.73 56.7273 262.632C44.4727 262.434 32.218 262.533 19.3703 262.533ZM486.63 262.533C473.782 262.533 461.429 262.434 449.174 262.632C448.186 262.632 446.505 264.609 446.505 265.696C446.308 276.865 446.308 288.134 446.505 299.303C446.505 300.489 448.779 302.664 449.964 302.763C461.132 303.059 472.398 302.96 483.566 302.763C484.653 302.763 486.531 300.984 486.531 299.995C486.729 287.639 486.63 275.383 486.63 262.533Z" fill="#002935"/>
<path d="M262.685 153.012C262.586 154.693 262.488 156.373 262.488 158.054C262.488 178.613 262.586 199.272 262.389 219.832C262.389 223.687 263.278 225.861 267.132 227.739C281.265 234.362 288.381 249.485 285.02 264.707C281.858 278.941 268.516 290.111 253.593 290.111C238.176 290.111 225.328 280.226 221.474 265.696C217.422 250.474 224.241 234.955 238.472 228.036C242.623 226.059 243.809 223.884 243.71 219.535C243.513 199.074 243.611 178.712 243.611 158.251C243.611 156.571 243.513 154.89 242.327 152.815C241.24 154.495 240.054 156.175 239.065 158.054C233.136 168.828 227.305 179.799 221.079 190.475C219.596 193.045 217.224 195.417 214.655 196.801C211.295 198.679 207.836 197.097 205.365 194.33C202.202 190.969 202.4 187.114 204.475 183.358C210.109 172.979 215.841 162.6 221.573 152.222C229.084 138.68 236.595 125.138 243.908 111.596C245.884 107.84 248.553 104.875 252.901 104.875C257.546 104.776 260.215 107.939 262.29 111.794C291.345 164.577 320.401 217.361 349.357 270.045C353.706 277.854 353.212 279.93 346.59 286.355C327.22 305.333 313.977 327.87 307.652 354.36C307.356 355.447 307.257 356.535 307.059 358.017C311.803 358.512 316.349 358.808 320.895 359.401C332.359 360.884 341.451 368.989 344.515 380.455C347.48 391.625 343.625 403.684 334.336 410.306C330.58 412.975 329.493 415.743 329.592 420.092C329.79 444.013 329.691 467.834 329.592 491.755C329.592 494.325 329.295 496.994 328.505 499.564C327.418 503.32 324.552 505.198 320.796 505.297C316.744 505.494 313.582 503.913 312.099 500.058C311.21 497.686 310.815 494.918 310.815 492.348C310.716 469.416 310.716 446.583 310.716 423.651C310.716 421.674 310.716 419.697 310.716 417.324C272.173 417.324 234.124 417.324 195.186 417.324C195.186 419.202 195.186 421.081 195.186 422.959C195.186 445.891 195.186 468.724 195.186 491.656C195.186 494.127 194.889 496.598 194.296 498.971C193.209 503.221 190.145 505.198 185.896 505.297C181.646 505.297 178.582 503.32 177.397 499.168C176.705 496.796 176.507 494.325 176.408 491.854C176.309 467.34 176.309 442.728 176.408 418.214C176.408 415.15 175.618 413.173 172.949 411.295C162.671 404.079 158.422 392.514 161.288 381.048C164.351 368.89 173.147 360.983 185.797 359.302C189.948 358.709 194.197 358.512 199.435 358.017C197.36 351.296 195.779 344.772 193.407 338.545C185.995 318.479 174.432 301.082 159.015 286.157C152.69 280.028 152.294 277.953 156.445 270.243C160.793 262.137 165.241 254.032 169.886 246.026C171.763 242.665 174.827 240.49 178.879 241.083C182.931 241.677 186.093 244.049 186.686 248.299C186.983 250.671 186.291 253.538 185.204 255.713C182.437 261.347 179.373 266.783 176.211 272.22C174.827 274.592 174.926 276.272 176.902 278.249C197.36 299.995 210.899 325.3 217.125 354.558C217.718 357.424 219.003 358.61 222.166 358.61C242.722 358.512 263.377 358.512 283.933 358.61C287.293 358.61 288.479 357.325 289.171 354.261C295.397 325.398 308.739 300.292 328.9 278.743C331.074 276.47 331.47 274.691 329.888 271.923C308.739 233.571 287.59 195.219 266.54 156.867C265.749 155.484 264.859 154.297 263.97 153.012C263.377 152.815 262.982 152.914 262.685 153.012ZM252.704 397.852C273.754 397.852 294.804 397.852 315.855 397.852C322.575 397.852 327.22 393.602 327.418 387.671C327.516 381.641 322.674 377.193 315.756 377.193C273.952 377.193 232.147 377.193 190.442 377.193C183.425 377.193 178.582 381.542 178.681 387.572C178.78 393.7 183.524 397.852 190.64 397.852C211.295 397.852 231.95 397.852 252.704 397.852ZM238.67 257.195C238.67 265.498 244.698 271.528 252.901 271.528C261.203 271.528 267.231 265.597 267.231 257.294C267.231 248.793 261.203 242.665 252.704 242.764C244.6 242.764 238.67 248.892 238.67 257.195Z" fill="#002935"/>
<path d="M194.197 210.837C199.435 210.738 203.19 214.395 203.19 219.634C203.19 224.576 199.04 228.827 194.197 228.728C189.849 228.629 185.401 224.28 185.303 219.832C185.105 214.89 189.058 210.837 194.197 210.837Z" fill="#002935"/>
</g>
<defs>
<clipPath id="clip0_2006_275">
<rect width="506" height="505" fill="white"/>
</clipPath>
</defs>
</svg>
