<svg width="476" height="416" viewBox="0 0 476 416" fill="none" xmlns="http://www.w3.org/2000/svg">
<g clip-path="url(#clip0_2007_329)">
<path d="M476 38.1729C476 96.6859 476 155.199 476 213.712C474.512 218.077 473.583 222.721 471.538 226.715C463.077 243.619 448.946 251.606 430.352 251.699C409.434 251.885 388.516 251.699 367.598 251.699C365.925 251.699 364.345 251.699 362.206 251.699C362.857 253.742 363.229 255.228 363.787 256.622C376.245 290.522 388.795 324.515 401.253 358.416C405.995 371.14 410.736 383.864 415.291 396.681C417.988 404.297 414.734 411.542 407.947 414.514C400.788 417.672 393.63 414.886 389.725 407.362C388.981 405.876 388.33 404.205 387.773 402.626C369.83 353.772 351.794 304.918 334.037 255.971C332.549 251.978 330.411 251.606 326.971 251.42C323.252 251.235 321.951 252.907 320.835 256.064C303.171 304.918 285.414 353.679 267.657 402.44C266.82 404.762 265.798 406.991 264.589 409.127C261.8 413.864 257.43 416.093 252.131 415.629C246.274 415.164 241.347 412.099 240.138 406.248C239.302 402.254 239.859 397.61 241.161 393.709C257.523 348.199 274.165 302.782 290.713 257.365C291.364 255.6 291.922 253.742 292.666 251.513C276.396 251.513 260.684 251.42 245.066 251.606C243.671 251.606 241.812 253.092 240.882 254.485C230.098 269.81 211.969 275.754 194.677 268.324C180.359 262.194 166.6 254.671 152.562 247.798C151.074 247.055 149.587 246.498 147.448 245.569C147.448 248.263 147.448 250.213 147.448 252.256C147.448 301.203 147.448 350.057 147.448 399.003C147.448 410.52 142.149 415.814 130.714 415.814C102.638 415.814 74.6539 415.814 46.5773 415.814C35.2352 415.814 29.843 410.427 29.843 398.911C29.843 375.505 29.75 352.193 29.9359 328.788C29.9359 325.258 29.1922 323.308 25.5664 321.915C18.2219 319.036 11.9 314.113 8.08828 307.24C4.64844 301.203 2.69609 294.33 0 287.736C0 268.882 0 249.934 0 231.08C0.278906 229.873 0.650781 228.665 0.74375 227.458C2.78906 209.254 9.57578 193 22.0336 179.533C28.7273 172.381 36.5367 166.344 43.8813 159.843C11.9 129.379 19.3375 85.8192 42.1148 63.7143C66.8445 39.7518 105.148 38.1729 131.365 60.1849C157.303 81.9184 165.298 125.014 136.85 156.592C150.795 163.558 164.741 170.431 179.337 177.675C179.337 175.168 179.337 173.589 179.337 171.917C179.337 129.843 179.244 87.6768 179.337 45.6031C179.43 19.3187 197.559 0.0929508 223.497 7.28872e-05C292.945 -0.278561 362.299 -0.185683 431.747 7.28872e-05C445.785 7.28872e-05 457.499 5.66562 466.517 16.7181C471.63 23.1267 473.862 30.5569 476 38.1729ZM245.902 223.743C247.483 223.836 248.598 223.929 249.621 223.929C309.865 223.929 370.202 223.929 430.445 223.929C441.787 223.929 448.109 217.52 448.109 205.91C448.109 152.784 448.109 99.7509 448.109 46.6248C448.109 33.9934 441.973 27.9563 429.237 27.9563C361.555 27.9563 293.781 27.9563 226.1 27.9563C213.084 27.9563 207.227 33.9005 207.227 47.0892C207.227 77.2745 207.227 107.46 207.227 137.645C207.227 154.363 207.227 171.081 207.32 187.799C207.32 189.378 207.599 191.7 208.529 192.257C214.107 195.415 219.964 198.109 225.914 201.081C233.259 186.406 240.324 172.381 247.39 158.264C250.272 152.598 252.875 146.84 256.036 141.36C259.104 135.973 264.124 133.837 270.26 134.766C276.024 135.695 280.301 139.131 281.137 144.797C281.695 148.605 280.859 153.156 279.185 156.685C269.052 177.675 258.453 198.48 248.041 219.378C247.297 220.678 246.646 222.071 245.902 223.743ZM119.558 387.951C119.558 385.443 119.558 383.493 119.558 381.45C119.558 330.181 119.558 279.005 119.558 227.737C119.558 225.415 119.558 223.093 119.93 220.771C120.766 214.362 125.973 209.161 132.387 209.161C135.641 209.161 139.081 210.183 142.056 211.669C162.323 221.607 182.405 231.916 202.765 241.668C205.74 243.061 209.737 243.526 212.898 242.876C216.617 242.04 219.034 238.696 219.313 234.61C219.685 230.151 216.803 227.551 213.084 225.693C187.89 213.155 162.416 201.174 137.594 187.985C121.417 179.347 104.683 176.282 86.6469 177.211C54.1078 178.79 28.6344 204.331 28.0766 236.932C27.7977 251.978 27.8906 266.931 28.0766 281.977C28.1695 291.265 33.8406 297.302 43.0445 298.324C53.457 299.531 57.8266 304.361 57.9195 314.763C57.9195 337.518 57.9195 360.273 57.9195 383.028C57.9195 384.7 58.0125 386.279 58.1055 388.044C78.5586 387.951 98.7328 387.951 119.558 387.951ZM126.716 112.94C128.483 92.4136 112.12 74.0237 89.9008 72.9092C70.2844 71.8875 51.6906 86.4694 50.482 109.503C49.4594 128.915 64.0555 148.047 87.3906 149.069C107.565 149.998 125.787 134.209 126.716 112.94Z" fill="#573CFF"/>
<path d="M327.715 87.4908C302.892 87.4908 278.163 87.5837 253.34 87.4908C242.927 87.3979 236.327 78.0173 239.952 68.7295C241.626 64.4571 244.694 61.485 249.249 60.3705C251.295 59.9061 253.526 59.7203 255.664 59.6274C303.636 59.6274 351.701 59.6274 399.673 59.6274C400.881 59.6274 402.183 59.6274 403.391 59.8132C411.108 60.8349 416.686 67.1506 416.128 74.395C415.663 81.9181 409.899 87.4908 401.997 87.4908C380.149 87.5837 358.302 87.5837 336.454 87.5837C333.665 87.4908 330.69 87.4908 327.715 87.4908Z" fill="#573CFF"/>
<path d="M364.902 112.011C377.081 112.011 389.353 111.825 401.532 112.104C412.037 112.289 418.545 120.927 415.477 130.215C413.804 135.323 410.271 138.481 404.879 139.503C404.693 139.503 404.6 139.596 404.414 139.596C378.104 139.596 351.886 139.781 325.576 139.503C319.347 139.41 314.885 134.302 313.955 128.172C312.561 119.255 318.79 112.289 328.644 112.104C340.73 111.825 352.816 112.011 364.902 112.011Z" fill="#573CFF"/>
<path d="M364.902 164.301C376.802 164.301 388.702 164.301 400.602 164.301C410.085 164.301 416.407 170.059 416.314 178.232C416.221 186.22 409.899 192.071 400.881 192.071C376.895 192.164 352.909 192.164 328.923 192.071C320.742 192.071 315.164 187.427 314.048 180.276C313.026 173.403 316.744 167.087 323.252 165.044C325.298 164.394 327.529 164.301 329.667 164.301C341.381 164.301 353.095 164.301 364.902 164.301Z" fill="#573CFF"/>
</g>
<defs>
<clipPath id="clip0_2007_329">
<rect width="476" height="416" fill="white"/>
</clipPath>
</defs>
</svg>
