<svg width="503" height="505" viewBox="0 0 503 505" fill="none" xmlns="http://www.w3.org/2000/svg">
<g clip-path="url(#clip0_2007_294)">
<path d="M503 424.775C502.547 437.561 495.525 446.614 482.499 449.895C467.209 453.855 451.918 457.363 436.628 461.21C422.583 464.718 408.652 468.565 394.607 471.96C383.848 474.562 372.861 476.599 362.101 479.201C348.057 482.596 334.125 486.556 320.194 489.951C309.207 492.667 298.108 494.703 287.008 497.306C279.419 499.116 271.944 501.266 264.469 503.19C255.861 505.453 247.253 505.566 238.645 503.416C230.263 501.266 221.768 499.229 213.387 497.08C202.401 494.251 191.527 491.422 180.541 488.706C172.839 486.783 164.911 485.312 157.209 483.501C146.562 480.899 136.142 477.957 125.495 475.354C117.567 473.431 109.525 471.847 101.597 469.923C93.8948 468.113 86.1929 466.076 78.4911 464.152C71.129 462.342 63.7669 460.531 56.2916 458.721C47.7968 456.684 39.4154 454.647 30.9207 452.384C25.2576 450.913 19.1414 450.008 14.0445 447.406C3.85088 442.201 -0.679628 433.148 -5.10502e-05 421.72C0.566263 412.781 8.49466 402.937 17.5557 400.108C20.1607 399.316 22.9923 398.976 25.5973 397.958C26.9565 397.505 28.7687 396.374 29.2217 395.242C36.9236 374.875 44.5122 354.507 52.1008 334.14C54.7059 327.124 58.5568 324.861 65.3526 327.803C79.8502 333.914 94.1213 340.363 108.392 346.813C133.31 357.902 158.341 369.104 183.259 380.193C201.947 388.566 220.523 397.166 239.324 405.426C248.159 409.273 257.22 408.481 265.828 404.634C285.649 395.808 305.47 386.756 325.291 377.817C344.772 368.991 364.027 359.939 383.621 351.226C401.856 343.079 420.205 335.385 438.327 327.124C443.424 324.861 446.482 327.011 448.181 330.745C452.258 339.571 455.769 348.737 459.167 357.902C463.924 370.462 468.455 383.135 473.212 395.695C473.665 396.826 475.59 397.958 477.063 398.071C488.502 399.429 497.11 404.294 501.188 415.497C502.207 418.439 502.434 421.607 503 424.775ZM281.798 415.61C287.461 422.512 292.331 428.17 296.975 434.167C300.599 438.919 304.337 439.938 310.113 438.24C318.042 435.864 326.197 434.054 334.352 432.13C341.94 430.32 349.529 428.622 357.118 426.812C365.046 424.888 372.861 422.738 380.789 420.815C388.605 419.004 396.42 417.307 404.122 415.497C411.823 413.573 419.525 411.536 427.227 409.499C437.194 407.01 447.275 404.634 458.035 401.918C455.769 396.147 453.278 391.056 451.918 385.851C450.559 380.872 447.388 380.759 443.877 382.003C434.816 385.172 425.868 388.793 416.92 392.187C404.461 396.94 392.116 401.579 379.657 406.218C378.751 406.558 377.392 406.218 376.372 405.879C372.748 404.408 369.576 401.805 369.803 397.845C369.916 393.206 373.541 390.603 377.731 389.019C398.458 381.438 419.299 373.743 439.913 365.936C441.272 365.37 443.084 362.767 442.744 361.749C441.045 356.431 438.78 351.226 436.628 345.795C384.301 369.557 332.653 392.187 281.798 415.61ZM52.7804 380.08C50.1754 386.869 47.9101 392.3 45.9846 397.845C45.5316 399.089 46.3244 401.918 47.004 402.145C56.2916 404.747 65.5791 407.01 74.9799 409.273C82.6818 411.084 90.6102 412.668 98.3121 414.591C106.354 416.515 114.395 418.665 122.55 420.702C129.912 422.512 137.274 424.209 144.637 426.02C152.338 427.943 160.04 429.98 167.742 431.904C176.124 434.054 184.618 436.203 193.113 438.014C196.624 438.693 200.475 440.843 203.76 436.543C208.064 430.885 212.594 425.341 217.351 420.023C220.183 416.854 220.749 415.27 216.105 413.347C191.98 402.823 167.855 392.074 143.844 381.211C118.02 369.557 92.3091 357.676 65.8056 345.681C63.3138 351.792 61.1619 357.449 58.7833 363.107C60.0292 364.125 60.9353 365.483 62.2945 365.936C77.0186 371.48 91.7428 376.798 106.467 382.343C113.942 385.172 121.531 387.774 128.44 391.395C130.592 392.527 132.404 397.279 131.951 399.882C131.272 404.068 127.081 407.576 122.89 406.105C108.053 401.013 93.555 395.129 78.9441 389.585C70.4494 386.416 61.7282 383.361 52.7804 380.08ZM291.878 479.201C296.862 478.183 301.052 477.504 305.13 476.486C313.058 474.562 320.873 472.412 328.802 470.489C336.504 468.565 344.319 466.981 352.134 465.057C360.062 463.134 367.877 461.097 375.806 459.173C383.734 457.25 391.776 455.553 399.704 453.629C407.293 451.819 414.768 449.669 422.244 447.858C429.832 446.048 437.421 444.577 445.009 442.653C456.109 439.938 467.209 436.769 478.422 434.393C483.066 433.375 485.558 430.32 486.35 426.699C486.917 423.983 485.218 420.249 483.406 417.873C482.16 416.289 478.762 415.157 476.497 415.497C467.209 416.968 457.921 418.891 448.634 420.928C442.065 422.286 435.609 423.983 429.153 425.567C421.451 427.491 413.749 429.528 406.047 431.338C398.458 433.148 390.87 434.846 383.281 436.769C375.353 438.693 367.538 440.843 359.609 442.653C351.794 444.464 343.979 446.048 336.277 447.858C324.724 450.574 313.172 453.176 301.845 456.458C298.334 457.476 292.671 456.684 292.105 462.229C291.425 467.773 291.878 473.318 291.878 479.201ZM210.329 479.428C210.329 472.978 210.555 467.434 210.216 461.776C210.102 460.644 208.29 459.06 207.044 458.721C200.249 456.797 193.34 455.213 186.544 453.516C178.276 451.479 170.007 449.442 161.739 447.406C154.49 445.595 147.355 444.011 140.106 442.201C131.611 440.164 123.23 438.127 114.735 436.09C107.486 434.393 100.351 432.696 93.102 430.998C85.0603 428.962 77.0186 426.925 68.8637 424.888C60.8221 422.851 52.7804 420.588 44.6255 418.778C38.6226 417.42 32.6196 416.402 26.5034 415.61C22.5392 415.157 19.0281 416.062 17.5557 420.588C16.0833 425.228 16.4231 429.754 21.0668 432.243C24.9178 434.28 29.2217 435.411 33.5257 436.543C41.0011 438.467 48.7029 440.051 56.2916 441.861C64.5597 443.898 72.8279 445.935 81.0961 447.971C88.4582 449.782 95.9335 451.253 103.296 453.063C113.829 455.666 124.362 458.721 135.009 461.323C145.996 463.926 157.095 466.076 168.195 468.678C181.9 471.96 195.718 475.694 210.329 479.428ZM251.783 424.662C238.531 423.983 229.017 430.093 221.202 439.938C218.257 443.558 219.73 444.69 223.354 445.482C228.791 446.727 234.114 448.311 239.437 449.442C243.968 450.348 248.612 452.158 253.029 451.479C261.75 450.234 270.245 447.406 278.966 445.482C282.704 444.69 284.063 443.558 281.231 439.938C273.53 430.546 264.355 424.096 251.783 424.662ZM250.537 489.159C256.767 487.914 262.543 486.896 268.093 485.538C272.623 484.52 275.002 481.917 274.322 476.825C273.983 474.336 275.229 471.733 275.455 469.131C275.568 467.547 275.795 465.397 274.889 464.492C274.096 463.7 271.831 463.926 270.245 464.265C265.375 465.284 260.504 467.773 255.747 467.547C247.819 467.207 240.004 465.397 232.189 464.039C229.357 463.473 226.639 462.794 226.865 467.094C227.205 471.394 227.658 475.694 228.338 479.88C228.564 481.351 229.47 483.501 230.49 483.841C237.285 485.764 244.081 487.462 250.537 489.159Z" fill="#007A70"/>
<path d="M179.068 265.343C179.068 254.82 179.295 244.183 178.955 233.66C178.842 231.284 177.483 228.116 175.671 226.758C154.943 211.369 140.559 191.454 131.951 167.353C129.12 159.432 128.1 150.719 126.854 142.346C125.835 135.67 124.589 128.881 125.042 122.318C126.628 97.8772 133.424 74.9072 147.695 54.6529C160.72 36.3221 177.143 21.9518 197.644 12.4469C209.423 7.01561 221.768 2.94212 235.02 1.92375C240.797 1.47114 246.573 -0.113001 252.349 0.113304C278.853 1.24483 303.431 8.4866 325.064 24.5543C341.147 36.4353 354.173 50.9188 363.234 68.5706C369.916 81.5832 375.24 95.3878 375.919 110.437C376.146 114.171 377.618 117.792 377.618 121.526C377.731 161.129 364.027 194.736 334.012 221.213C333.332 221.779 332.766 222.798 331.973 223.137C323.252 226.871 323.025 234.113 323.252 242.147C323.705 259.12 323.252 276.092 323.478 293.065C323.592 306.191 319.288 316.827 307.055 322.711C300.939 325.653 303.204 331.537 301.279 335.837C294.936 350.321 285.309 361.07 270.358 366.162C263.562 368.538 256.087 370.801 249.178 370.235C229.697 368.538 209.989 359.146 201.381 334.819C200.475 332.442 200.362 329.614 199.116 327.464C197.87 325.201 196.058 322.711 193.793 321.58C183.486 316.262 179.521 307.323 179.068 296.686C178.729 286.163 179.068 275.753 179.068 265.343ZM242.269 134.991C233.661 134.991 225.619 134.991 217.578 134.991C211.688 134.991 206.478 130.918 206.365 126.392C206.251 121.866 211.575 117.679 217.351 117.566C225.506 117.453 233.548 117.566 241.703 117.566C256.2 117.566 270.811 117.566 285.309 117.566C289.839 117.566 293.577 119.15 294.71 123.676C295.276 125.939 295.05 129.56 293.69 130.918C291.538 132.954 288.14 134.652 285.082 134.765C276.927 135.331 268.659 134.991 260.391 134.991C260.391 168.824 260.391 201.864 260.391 234.905C275.682 234.905 290.519 234.905 305.923 234.905C305.923 232.302 305.356 229.813 306.036 227.889C307.395 224.269 308.528 219.403 311.359 217.593C338.542 199.375 354.739 173.803 359.609 142.007C362.667 122.205 360.402 102.177 351.794 83.2805C343.979 66.0813 332.766 51.5977 317.929 39.8299C305.923 30.325 292.558 23.4227 277.834 20.2545C266.394 17.7651 254.388 17.8783 242.609 17.5388C230.716 17.0862 219.503 21.0465 208.63 25.4595C190.281 33.0407 175.104 45.148 163.212 60.9894C154.377 72.8704 147.695 85.9961 144.863 100.48C142.711 111.569 142.598 123.223 142.258 134.539C141.805 146.646 145.769 157.961 150.413 168.937C159.021 189.191 172.726 205.485 191.188 217.706C193.906 219.516 195.152 224.042 196.284 227.55C196.964 229.7 196.398 232.302 196.398 234.792C212.028 234.792 226.979 234.792 242.156 234.792C242.269 201.525 242.269 168.824 242.269 134.991ZM196.737 271.001C233.435 271.001 269.565 271.001 305.47 271.001C305.47 264.777 305.47 259.006 305.47 253.123C268.999 253.123 232.982 253.123 196.737 253.123C196.737 259.233 196.737 265.004 196.737 271.001ZM196.511 289.218C196.511 292.726 196.511 295.555 196.511 298.27C196.624 303.928 200.249 307.549 205.912 307.662C208.517 307.775 211.235 307.662 213.84 307.662C241.136 307.662 268.546 307.549 295.842 307.662C301.166 307.662 304.564 305.173 305.583 300.42C306.376 296.913 305.696 293.065 305.696 289.218C269.112 289.218 233.208 289.218 196.511 289.218ZM285.988 325.54C262.43 325.54 239.437 325.54 216.332 325.54C218.824 340.816 233.888 352.81 250.311 352.923C268.206 353.036 283.27 341.721 285.988 325.54Z" fill="#007A70"/>
<path d="M87.6652 70.1547C87.7784 76.7175 80.9827 81.9226 76.9052 79.8858C64.5596 73.7756 52.1007 67.8916 40.0948 61.3288C37.4898 59.8578 34.6582 56.1238 34.6582 53.4081C34.6582 51.0319 38.0561 48.3162 40.5479 46.2795C41.5672 45.4874 44.059 45.8269 45.4182 46.5058C57.3108 52.1634 69.3166 57.7079 80.9827 63.8182C83.9275 65.2891 85.9662 68.5706 87.6652 70.1547Z" fill="#007A70"/>
<path d="M468.229 55.1055C466.983 56.5765 465.51 59.6316 463.018 60.8763C450.56 67.5523 438.101 73.8888 425.302 79.8859C421.225 81.8095 418.28 79.0939 416.128 75.2467C413.409 70.3811 415.901 67.0997 419.412 65.1761C429.493 59.6316 439.913 54.6529 450.107 49.561C452.259 48.4295 454.524 47.5243 456.676 46.5059C461.433 44.2429 468.115 48.5427 468.229 55.1055Z" fill="#007A70"/>
<path d="M60.9354 134.991C55.4988 134.991 50.0622 135.104 44.5123 134.991C39.189 134.878 33.9789 130.465 34.0921 126.278C34.2054 122.092 39.3022 117.679 44.6256 117.679C55.3855 117.565 66.0322 117.565 76.7922 117.679C82.2288 117.679 87.3257 121.865 87.5522 126.165C87.7787 130.578 82.4553 134.991 76.6789 135.104C71.4689 135.104 66.2588 134.991 60.9354 134.991Z" fill="#007A70"/>
<path d="M441.838 117.565C447.161 117.565 452.371 117.452 457.695 117.565C463.018 117.679 468.228 121.865 468.342 126.165C468.455 130.352 463.245 134.878 457.921 134.991C447.048 135.104 436.062 135.104 425.188 134.991C419.978 134.991 414.655 130.239 414.881 126.165C415.108 122.092 420.092 117.792 425.075 117.679C430.512 117.452 436.175 117.565 441.838 117.565Z" fill="#007A70"/>
<path d="M41.3408 207.409C39.5285 205.485 35.7909 203.222 34.7715 200.167C34.0919 198.017 36.3572 193.378 38.6224 192.133C51.3079 185.118 64.2198 178.668 77.3583 172.671C79.2838 171.879 83.5878 174.595 85.853 176.744C89.704 180.365 87.0989 185.118 84.1541 186.702C71.0156 193.944 57.4241 200.393 44.0591 207.182C43.7193 207.296 43.3795 207.296 41.3408 207.409Z" fill="#007A70"/>
<path d="M422.47 171.087C428.02 173.916 432.211 176.066 436.515 178.216C445.123 182.515 453.957 186.476 462.226 191.341C464.831 192.812 467.775 196.659 467.662 199.262C467.436 201.978 463.811 204.467 461.319 206.73C460.64 207.409 458.601 207.296 457.695 206.843C444.67 200.393 431.645 194.057 418.959 187.155C416.807 185.91 414.655 181.271 415.335 179.121C416.467 175.952 420.092 173.689 422.47 171.087Z" fill="#007A70"/>
</g>
<defs>
<clipPath id="clip0_2007_294">
<rect width="503" height="505" fill="white"/>
</clipPath>
</defs>
</svg>
