<svg width="506" height="506" viewBox="0 0 506 506" fill="none" xmlns="http://www.w3.org/2000/svg">
<g clip-path="url(#clip0_2007_303)">
<path d="M0 203.912C7.56292 204.423 14.8192 204.832 22.0755 205.445C47.1149 207.488 72.2565 209.736 97.2959 211.677C98.6245 211.779 100.771 210.246 101.282 209.02C106.494 195.842 115.488 186.137 127.343 178.475C140.323 169.995 146.864 157.634 146.966 141.901C146.966 134.443 146.353 126.884 147.375 119.426C149.317 104.613 161.683 96.1333 176.4 98.5852C178.853 98.9938 181.306 99.4024 184.78 100.015C176.298 75.3948 178.546 52.4087 193.161 31.2615C202.461 17.7763 215.032 8.58192 230.669 3.57607C261.534 -6.5378 295.363 5.21063 313.759 32.3853C332.053 59.4578 330.111 95.4182 308.751 120.55C296.793 134.546 281.565 142.923 263.271 145.579C244.977 148.235 228.216 143.842 211.864 133.83C211.864 136.487 211.864 138.326 211.864 140.267C211.864 153.037 211.864 165.807 211.864 178.577C211.864 189.304 218.711 196.046 229.443 196.046C241.911 196.046 254.278 196.455 266.746 195.944C288.924 195.127 300.779 218.317 288.924 234.458C288.208 235.378 288.208 237.728 288.924 238.851C295.056 248.25 295.056 257.547 289.026 267.048C288.311 268.171 288.208 270.317 288.924 271.44C297.815 287.377 293.727 300.658 277.477 308.32C277.068 308.525 276.66 308.933 276.251 309.24C276.557 313.122 277.58 317.004 277.171 320.784C275.535 334.269 265.52 342.646 251.518 342.646C222.595 342.748 193.57 342.646 164.647 342.646C112.013 342.646 59.3791 342.646 6.7453 342.646C4.70127 342.646 2.75944 342.646 0.408806 342.646C0 296.368 0 250.702 0 203.912ZM212.681 244.47C212.681 238.749 212.681 233.845 212.681 228.737C231.078 228.737 249.167 228.737 267.155 228.737C273.9 228.737 277.58 225.775 277.682 220.36C277.784 214.844 274.105 211.779 267.359 211.779C255.095 211.779 242.831 211.779 230.567 211.779C209.82 211.677 196.023 197.885 195.92 177.146C195.92 164.172 195.92 151.3 195.92 138.326C195.818 126.986 188.766 117.893 177.831 114.522C170.063 112.172 161.99 113.705 162.501 125.964C162.909 135.261 162.807 144.762 161.172 153.956C158.31 170.302 149.112 182.97 135.11 191.96C120.496 201.358 113.137 214.128 113.444 231.904C114.057 261.327 113.648 290.851 113.648 320.273C113.648 322.214 113.648 324.257 113.648 326.709C116.305 326.709 118.247 326.709 120.291 326.709C160.354 326.709 200.315 326.709 240.378 326.709C244.16 326.709 247.839 326.709 251.62 326.709C257.855 326.607 261.432 323.44 261.432 318.128C261.329 312.917 257.752 309.853 251.416 309.751C240.685 309.751 229.954 309.751 219.222 309.751C217.076 309.751 214.93 309.751 212.681 309.751C212.681 304.234 212.681 299.33 212.681 294.018C214.828 294.018 216.565 294.018 218.405 294.018C234.553 294.018 250.803 294.018 266.951 294.018C273.491 294.018 277.477 290.851 277.58 285.641C277.682 280.431 273.594 277.161 267.053 277.161C250.7 277.161 234.348 277.161 217.996 277.161C216.156 277.161 214.419 277.161 212.681 277.161C212.681 271.543 212.681 266.639 212.681 261.429C214.828 261.429 216.667 261.429 218.507 261.429C234.859 261.429 251.211 261.429 267.564 261.429C273.594 261.429 277.58 257.955 277.58 252.847C277.477 247.841 273.594 244.47 267.462 244.47C254.686 244.47 241.911 244.47 229.136 244.47C223.617 244.47 218.2 244.47 212.681 244.47ZM310.386 72.9429C310.386 41.1711 284.734 15.631 252.949 15.631C220.96 15.631 195.307 41.2732 195.409 73.3516C195.409 105.021 221.062 130.663 252.847 130.663C284.836 130.663 310.386 105.021 310.386 72.9429ZM97.3981 326.505C97.3981 293.098 97.3981 260.305 97.3981 227.307C70.0081 225.06 42.9247 222.812 15.739 220.565C15.739 256.423 15.739 291.362 15.739 326.505C43.1291 326.505 70.1103 326.505 97.3981 326.505Z" fill="#007A70"/>
<path d="M253.051 359.502C293.114 359.706 326.125 392.908 326.023 432.853C325.921 473.104 292.399 506.306 252.233 506C212.17 505.693 179.261 472.389 179.466 432.342C179.772 392.295 213.09 359.298 253.051 359.502ZM296.998 468.609C313.35 452.468 317.745 415.894 293.216 391.682C269.301 368.083 229.953 370.229 208.491 395.973C187.642 421.002 194.387 455.941 208.9 468.405C211.864 464.523 214.521 460.334 217.894 456.759C221.368 453.183 225.456 450.22 229.34 446.951C214.828 428.256 221.164 410.991 230.158 401.796C240.889 390.967 257.65 389.128 270.425 397.403C276.762 401.49 281.156 407.211 283.507 414.464C287.595 426.723 283.916 437.348 276.557 446.849C280.748 450.425 284.836 453.387 288.208 456.861C291.377 460.538 294.034 464.727 296.998 468.609ZM252.642 490.267C262.76 490.471 272.06 487.713 280.952 483.116C284.018 481.481 284.427 479.847 283.098 476.68C277.886 464.829 266.031 456.963 252.847 457.065C239.663 457.065 227.807 465.034 222.595 476.782C221.164 480.051 221.982 481.686 224.843 483.218C233.53 487.713 242.729 490.471 252.642 490.267ZM269.505 424.476C269.505 415.281 262.249 408.028 252.949 407.926C243.444 407.926 236.085 415.179 236.188 424.68C236.188 433.875 243.444 441.128 252.744 441.23C262.147 441.23 269.505 433.875 269.505 424.476Z" fill="#007A70"/>
<path d="M506 252.745C506.102 292.689 473.091 325.994 433.028 326.198C392.863 326.402 359.443 293.098 359.443 252.847C359.443 212.8 392.658 179.7 432.619 179.7C472.682 179.7 505.898 212.698 506 252.745ZM490.261 252.949C490.261 221.177 464.71 195.535 433.028 195.433C400.937 195.331 375.182 220.871 375.182 252.949C375.182 284.721 400.732 310.465 432.415 310.465C464.506 310.465 490.261 284.925 490.261 252.949Z" fill="#007A70"/>
<path d="M116.51 76.8248C110.48 75.4967 103.735 74.0664 96.5807 72.534C97.3983 68.2433 97.8071 64.1569 99.1358 60.3769C99.5446 59.2532 102.611 58.2316 104.246 58.4359C118.452 61.0921 132.556 64.0547 146.659 66.9152C150.339 67.6303 153.916 68.3455 158.004 69.7757C117.532 92.251 86.6672 123.41 67.5555 166.011C62.6498 163.661 58.2551 161.618 53.4517 159.472C60.9124 143.229 69.3951 128.007 80.6373 114.828C91.8795 101.65 104.348 89.5948 116.51 76.8248Z" fill="#007A70"/>
<path d="M159.23 452.264C142.776 444.704 127.548 436.225 114.364 424.987C101.282 413.749 89.2221 401.286 76.5491 389.231C75.3227 395.054 73.8918 401.797 72.2566 409.152C67.8619 408.335 63.5695 407.62 59.3792 406.598C58.6638 406.394 57.744 404.351 57.9484 403.431C61.5255 385.042 65.2047 366.551 69.4972 347.856C91.9815 388.209 122.949 419.062 165.771 438.166C163.625 442.967 161.581 447.258 159.23 452.264Z" fill="#007A70"/>
<path d="M428.531 118.71C430.269 110.64 431.802 103.795 433.335 96.6438C437.729 97.461 441.817 97.9719 445.599 99.1978C446.621 99.5043 447.745 102.467 447.439 103.897C444.475 119.528 441.204 135.158 438.036 150.789C437.525 153.036 437.014 155.386 436.094 159.472C413.61 117.689 382.541 86.9385 339.82 67.7324C341.967 63.1352 343.806 58.8445 346.259 53.6343C378.861 68.4475 406.149 89.3904 428.531 118.71Z" fill="#007A70"/>
<path d="M389.184 429.073C395.111 430.401 401.857 431.831 409.113 433.364C408.295 437.655 407.784 441.843 406.66 445.827C406.456 446.747 404.309 447.871 403.287 447.666C384.993 444.091 366.699 440.311 348.405 436.531C348.303 436.531 348.303 436.326 347.792 435.407C388.264 413.749 418.924 382.488 438.138 339.989C442.942 342.237 447.336 344.28 452.242 346.528C444.781 362.873 436.299 378.197 424.852 391.376C413.61 404.452 401.141 416.507 389.184 429.073Z" fill="#007A70"/>
<path d="M227.807 65.5869C227.807 70.6949 227.807 75.5986 227.807 80.7066C222.8 80.7066 217.894 80.7066 212.682 80.7066C212.682 75.8029 212.682 70.8993 212.682 65.5869C217.485 65.5869 222.391 65.5869 227.807 65.5869Z" fill="#007A70"/>
<path d="M245.08 80.6045C245.08 75.3943 245.08 70.6949 245.08 65.5869C250.19 65.5869 255.095 65.5869 260.41 65.5869C260.41 70.5928 260.41 75.3943 260.41 80.6045C255.402 80.6045 250.496 80.6045 245.08 80.6045Z" fill="#007A70"/>
<path d="M278.09 65.3828C283.098 65.3828 287.799 65.3828 293.012 65.3828C293.012 70.3887 293.012 75.2924 293.012 80.6047C288.208 80.6047 283.405 80.6047 278.09 80.6047C278.09 75.9053 278.09 70.8995 278.09 65.3828Z" fill="#007A70"/>
<path d="M392.352 276.854C392.352 266.23 392.352 255.911 392.352 245.389C397.462 245.389 402.266 245.389 407.682 245.389C407.682 250.497 407.682 255.503 407.682 261.019C413.508 261.019 418.822 261.019 424.546 261.019C424.546 245.082 424.546 229.145 424.546 212.8C429.962 212.8 434.97 212.8 440.387 212.8C440.387 228.737 440.387 244.674 440.387 261.019C446.212 261.019 451.527 261.019 457.25 261.019C457.25 250.395 457.25 239.974 457.25 229.145C462.565 229.145 467.47 229.145 472.682 229.145C472.682 244.878 472.682 260.713 472.682 276.854C446.212 276.854 419.538 276.854 392.352 276.854Z" fill="#007A70"/>
</g>
<defs>
<clipPath id="clip0_2007_303">
<rect width="506" height="506" fill="white"/>
</clipPath>
</defs>
</svg>
