<svg width="31" height="42" viewBox="0 0 31 42" fill="none" xmlns="http://www.w3.org/2000/svg">
<path d="M16.9403 0C18.1491 0.170944 19.3579 0.363664 20.5023 0.804634C26.2931 3.03562 29.7789 7.2232 30.8159 13.4371C31.3548 16.6676 30.6527 19.7359 29.4611 22.717C28.1471 26.0042 26.3296 29.0006 24.2898 31.8642C21.8572 35.2798 19.1507 38.4591 16.1963 41.4196C15.9119 41.7049 15.7057 41.9956 15.5007 42C15.2892 42.0043 15.0788 41.7136 14.7868 41.4185C10.703 37.2941 7.03148 32.8321 4.05453 27.8127C2.4367 25.0863 1.09476 22.2325 0.387297 19.1065C-1.1264 12.4234 1.89241 5.45714 7.77437 2.05351C9.66489 0.959246 11.6842 0.283092 13.8485 0.0511743C13.914 0.0446414 13.9773 0.017421 14.0417 0C15.0079 0 15.9741 0 16.9403 0ZM8.43783 15.6103C8.48291 19.5834 11.4362 22.8031 15.505 22.8139C19.3322 22.8248 22.4637 19.8197 22.5238 15.7878C22.584 11.8071 19.5855 8.5766 15.5168 8.54393C11.6703 8.51453 8.56773 11.5295 8.43783 15.6103Z" fill="#573CFF"/>
</svg>
