<svg width="417" height="506" viewBox="0 0 417 506" fill="none" xmlns="http://www.w3.org/2000/svg">
<g clip-path="url(#clip0_2007_279)">
<path d="M190.697 0C198.807 1.38359 206.918 2.37187 214.929 4.15078C268.34 16.109 310.871 62.9535 317.003 117.507C318.388 129.465 318.883 142.016 316.805 153.777C313.146 174.728 292.672 189.058 271.703 186.983C247.371 184.611 230.656 166.624 230.557 143.795C230.557 133.813 230.062 124.128 225.513 114.937C216.413 96.4563 196.829 85.9805 176.652 88.7477C157.265 91.416 140.945 107.13 137.385 126.698C136.692 130.75 136.593 134.9 136.593 138.952C136.495 164.154 136.593 189.355 136.593 214.556C136.593 220.98 136.593 220.98 143.22 220.98C202.269 220.98 261.219 221.079 320.267 220.881C336.389 220.782 349.544 226.02 359.237 239.164C365.073 247.169 367.348 256.36 367.348 266.144C367.447 330.679 367.447 395.312 367.348 459.847C367.348 483.665 353.501 500.268 330.455 504.814C329.664 505.012 328.971 505.506 328.279 505.901C232.041 505.901 135.703 505.901 39.4649 505.901C38.0802 505.506 36.6954 504.913 35.3107 504.715C15.7268 501.157 0.296966 483.467 0.198057 463.8C0.000239516 396.795 0.000239516 329.789 0.0991484 262.784C0.0991484 241.338 18.1995 222.857 39.6627 221.474C42.5311 221.276 45.3994 220.98 48.5645 220.782C48.5645 218.41 48.5645 216.532 48.5645 214.754C48.5645 190.244 48.3667 165.636 48.6634 141.127C48.7623 132.627 49.3558 124.029 50.4438 115.53C57.763 62.3605 99.8982 16.4055 152.221 4.24961C160.035 2.4707 167.948 1.38359 175.86 0C180.806 0 185.751 0 190.697 0ZM183.971 245.687C137.978 245.687 91.9855 245.983 45.9929 245.489C31.6511 245.39 24.2329 255.767 24.3318 267.231C24.6286 331.173 24.4307 395.016 24.4307 458.958C24.4307 473.683 31.8489 481.095 46.6852 481.095C137.978 481.095 229.37 480.996 320.663 481.194C334.115 481.194 342.72 472.794 342.72 459.254C342.324 395.214 342.324 331.074 342.72 267.034C342.819 253.988 333.917 245.291 320.96 245.489C275.264 245.983 229.568 245.687 183.971 245.687ZM111.965 221.079C111.965 218.311 111.965 216.335 111.965 214.457C111.965 188.959 111.866 163.462 112.064 137.865C112.064 132.924 112.361 127.982 113.152 123.14C119.185 89.0441 147.869 64.6336 182.685 63.7441C215.028 62.9535 245.195 86.3758 252.713 118.89C254.493 126.599 254.394 134.802 254.889 142.807C255.581 154.172 263.494 162.375 274.176 162.473C284.363 162.572 293.364 155.061 293.661 145.277C293.859 135.889 293.958 126.401 292.474 117.21C281.198 49.2164 211.863 8.40039 146.781 31.2297C106.327 45.5598 76.259 84.9922 73.7863 127.686C72.8961 142.609 73.0939 157.631 72.995 172.554C72.8961 187.082 72.995 201.511 72.995 216.038C72.995 218.311 72.5005 220.98 76.0612 220.98C87.7324 221.079 99.4037 221.079 111.965 221.079Z" fill="#007A70"/>
<path d="M403.449 110.688C410.274 110.984 414.033 113.455 416.11 118.297C417.989 122.843 417 127.982 413.34 131.441C411.956 132.825 410.175 133.912 408.494 134.802C395.141 142.51 381.689 150.219 368.337 157.927C360.82 162.177 353.599 160.793 349.94 154.468C346.181 147.946 348.456 141.225 356.072 136.778C369.721 128.872 383.371 120.966 397.119 113.158C399.493 111.873 402.164 111.182 403.449 110.688Z" fill="#007A70"/>
<path d="M417 223.154C416.901 234.124 407.406 239.856 398.999 235.409C390.888 231.159 382.975 226.317 374.964 221.672C368.436 217.916 361.809 214.161 355.281 210.306C348.357 206.254 346.28 199.337 349.841 193.209C353.402 186.983 360.424 185.204 367.348 189.058C381.69 197.162 395.834 205.464 410.076 213.667C414.428 216.236 416.901 219.794 417 223.154Z" fill="#007A70"/>
<path d="M145.99 407.369C145.99 396.301 146.188 385.331 145.891 374.262C145.792 371.594 144.605 368.431 142.825 366.455C128.186 350.049 123.636 331.272 130.164 310.518C136.692 289.764 151.628 277.015 172.992 272.37C203.555 265.749 234.711 287.985 239.162 318.918C241.734 337.3 236.393 352.915 224.227 366.652C222.545 368.53 221.457 371.495 221.358 373.965C221.161 396.202 221.259 418.438 221.259 440.674C221.259 450.557 216.611 455.202 206.819 455.202C191.29 455.202 175.86 455.202 160.332 455.202C150.935 455.202 146.287 450.656 146.188 441.366C145.99 430.1 146.089 418.735 145.99 407.369ZM170.618 395.312C170.618 405.689 170.717 416.066 170.519 426.443C170.42 429.902 171.607 431.088 175.069 430.989C180.509 430.792 185.949 430.693 191.389 430.989C195.84 431.286 196.928 429.507 196.928 425.257C196.73 406.282 197.126 387.406 196.73 368.431C196.532 361.019 198.708 355.781 204.544 351.037C215.918 341.748 218.49 325.342 211.467 312.494C204.346 299.449 189.015 292.926 174.772 297.275C162.705 300.931 155.089 309.134 152.617 321.488C150.144 333.446 153.804 343.823 163.101 351.531C168.64 356.078 170.915 361.217 170.717 368.135C170.321 377.227 170.618 386.22 170.618 395.312Z" fill="#007A70"/>
</g>
<defs>
<clipPath id="clip0_2007_279">
<rect width="417" height="506" fill="white"/>
</clipPath>
</defs>
</svg>
