<svg width="184" height="46" viewBox="0 0 184 46" fill="none" xmlns="http://www.w3.org/2000/svg">
<path d="M52.26 18.78L52.14 19.89L52.8 19.05L60 10.92H65.64L56.52 20.82L65.67 33H60.15L53.34 23.58L52.26 24.66V33H47.85V10.92H52.26V18.78ZM72.093 19.89L72.423 22.23L72.363 22.02C72.823 21.2 73.473 20.54 74.313 20.04C75.153 19.52 76.183 19.26 77.403 19.26C78.643 19.26 79.673 19.63 80.493 20.37C81.333 21.09 81.763 22.03 81.783 23.19V33H77.583V24.75C77.563 24.17 77.403 23.71 77.103 23.37C76.823 23.01 76.343 22.83 75.663 22.83C75.023 22.83 74.463 23.04 73.983 23.46C73.503 23.88 73.133 24.45 72.873 25.17C72.613 25.89 72.483 26.72 72.483 27.66V33H68.283V19.89H72.093ZM85.0755 26.28C85.0755 24.94 85.3855 23.74 86.0055 22.68C86.6455 21.62 87.5355 20.79 88.6755 20.19C89.8155 19.57 91.1255 19.26 92.6055 19.26C94.1055 19.26 95.4055 19.57 96.5055 20.19C97.6055 20.79 98.4455 21.62 99.0255 22.68C99.6255 23.74 99.9255 24.94 99.9255 26.28C99.9255 27.62 99.6255 28.83 99.0255 29.91C98.4455 30.97 97.6055 31.81 96.5055 32.43C95.4055 33.05 94.0855 33.36 92.5455 33.36C91.1055 33.36 89.8155 33.08 88.6755 32.52C87.5555 31.96 86.6755 31.15 86.0355 30.09C85.3955 29.03 85.0755 27.76 85.0755 26.28ZM89.3055 26.31C89.3055 26.99 89.4455 27.61 89.7255 28.17C90.0055 28.71 90.3855 29.14 90.8655 29.46C91.3455 29.78 91.8855 29.94 92.4855 29.94C93.1455 29.94 93.7155 29.78 94.1955 29.46C94.6755 29.14 95.0455 28.71 95.3055 28.17C95.5655 27.61 95.6955 26.99 95.6955 26.31C95.6955 25.61 95.5655 24.99 95.3055 24.45C95.0455 23.91 94.6755 23.48 94.1955 23.16C93.7155 22.84 93.1455 22.68 92.4855 22.68C91.8855 22.68 91.3455 22.84 90.8655 23.16C90.3855 23.48 90.0055 23.91 89.7255 24.45C89.4455 24.99 89.3055 25.61 89.3055 26.31ZM112.155 19.89L115.035 26.64L114.255 26.7L116.775 19.89H120.855L114.945 33.78L110.745 25.08L106.905 33.78L100.935 19.89H105.015L108.195 27.18L106.755 26.97L109.275 21.39L108.585 19.89H112.155ZM123.993 33V10.02H124.023L136.293 27.42L134.433 27L146.673 10.02H146.733V33H142.383V19.83L142.653 22.08L135.183 32.7H135.123L127.443 22.08L128.193 20.01V33H123.993ZM157.27 33.36C156.05 33.36 154.94 33.12 153.94 32.64C152.96 32.14 152.18 31.38 151.6 30.36C151.02 29.34 150.73 28.04 150.73 26.46C150.73 24.98 151.03 23.7 151.63 22.62C152.23 21.54 153.02 20.71 154 20.13C154.98 19.53 156.02 19.23 157.12 19.23C158.42 19.23 159.4 19.45 160.06 19.89C160.74 20.31 161.3 20.78 161.74 21.3L161.56 21.81L161.95 19.89H165.85V33H161.65V30.15L161.98 31.05C161.94 31.05 161.82 31.17 161.62 31.41C161.42 31.63 161.12 31.9 160.72 32.22C160.34 32.52 159.86 32.78 159.28 33C158.72 33.24 158.05 33.36 157.27 33.36ZM158.47 29.94C158.97 29.94 159.42 29.87 159.82 29.73C160.22 29.57 160.57 29.35 160.87 29.07C161.17 28.77 161.43 28.4 161.65 27.96V24.75C161.49 24.31 161.25 23.94 160.93 23.64C160.61 23.32 160.23 23.08 159.79 22.92C159.35 22.74 158.86 22.65 158.32 22.65C157.72 22.65 157.16 22.81 156.64 23.13C156.14 23.43 155.74 23.85 155.44 24.39C155.14 24.93 154.99 25.55 154.99 26.25C154.99 26.95 155.15 27.58 155.47 28.14C155.79 28.7 156.21 29.14 156.73 29.46C157.27 29.78 157.85 29.94 158.47 29.94ZM176.118 24.06L178.608 19.89H182.778L177.588 27.09L176.118 24.06ZM183.498 33H178.428L168.318 19.89H173.478L183.498 33ZM175.578 28.8L172.638 33H168.468L173.658 25.98L175.578 28.8Z" fill="white"/>
<path d="M0 29.116C0 31.366 1.959 33.192 4.375 33.192C6.791 33.192 8.75 31.366 8.75 29.116C8.75 27.466 6.182 25.913 6.182 23.002C6.182 20.382 8.75 18.538 8.75 16.888C8.75 14.638 6.791 12.812 4.375 12.812C1.959 12.812 0 14.637 0 16.888C0 18.538 2.568 20.381 2.568 23.002C2.568 25.622 0 27.465 0 29.116ZM21.25 4.076C21.25 1.826 23.209 0 25.625 0C28.041 0 30 1.825 30 4.076C30 4.785 29.526 5.476 28.986 6.264C28.268 7.31 27.432 8.529 27.432 10.19C27.432 11.65 28.23 12.87 28.937 13.95C29.497 14.806 30 15.574 30 16.304C30 16.402 29.996 16.499 29.989 16.594C29.996 16.691 30 16.788 30 16.886C30 17.595 29.526 18.286 28.986 19.074C28.268 20.12 27.432 21.339 27.432 23C27.432 24.46 28.23 25.68 28.937 26.76C29.497 27.616 30 28.384 30 29.114C29.9999 29.2111 29.9962 29.3082 29.989 29.405C29.9962 29.5018 29.9999 29.5989 30 29.696C30 30.426 29.497 31.194 28.937 32.051C28.23 33.13 27.432 34.349 27.432 35.811C27.432 37.471 28.268 38.69 28.986 39.736C29.526 40.525 30 41.216 30 41.924C30 44.174 28.041 46 25.625 46C23.209 46 21.25 44.175 21.25 41.924C21.25 41.194 21.753 40.426 22.313 39.57C23.02 38.49 23.818 37.271 23.818 35.81C23.818 34.35 23.02 33.13 22.313 32.05C21.753 31.194 21.25 30.426 21.25 29.696C21.25 29.598 21.253 29.501 21.26 29.406C21.253 29.3088 21.2496 29.2114 21.25 29.114C21.25 28.384 21.753 27.616 22.313 26.759C23.02 25.68 23.818 24.461 23.818 22.999C23.818 21.539 23.02 20.319 22.313 19.241C21.753 18.384 21.25 17.616 21.25 16.886C21.25 16.788 21.253 16.691 21.26 16.595C21.253 16.4982 21.2497 16.4011 21.25 16.304C21.25 15.574 21.753 14.806 22.313 13.949C23.02 12.87 23.818 11.651 23.818 10.189C23.818 8.729 23.02 7.509 22.313 6.43C21.753 5.574 21.25 4.806 21.25 4.076ZM15 39.596C12.583 39.596 10.624 37.771 10.624 35.52C10.624 34.79 11.127 34.022 11.688 33.165C12.394 32.086 13.193 30.867 13.193 29.406C13.193 27.946 12.394 26.726 11.688 25.646C11.128 24.79 10.624 24.022 10.624 23.292C10.6241 23.1949 10.6278 23.0978 10.635 23.001C10.628 22.9042 10.6247 22.8071 10.625 22.71C10.625 21.98 11.127 21.212 11.688 20.355C12.394 19.276 13.193 18.057 13.193 16.595C13.193 15.135 12.394 13.915 11.688 12.836C11.128 11.98 10.624 11.212 10.624 10.482C10.624 8.232 12.584 6.406 15 6.406C17.416 6.406 19.375 8.231 19.375 10.482C19.375 11.191 18.901 11.882 18.36 12.67C17.642 13.716 16.806 14.935 16.806 16.596C16.806 18.056 17.605 19.276 18.311 20.356C18.871 21.212 19.375 21.98 19.375 22.71C19.375 22.808 19.371 22.905 19.364 23C19.371 23.097 19.374 23.194 19.374 23.292C19.374 24.022 18.872 24.79 18.311 25.646C17.605 26.726 16.806 27.946 16.806 29.406C16.806 31.066 17.642 32.286 18.36 33.332C18.9 34.12 19.375 34.812 19.375 35.52C19.375 37.77 17.415 39.596 15 39.596Z" fill="white"/>
</svg>
