<svg width="474" height="506" viewBox="0 0 474 506" fill="none" xmlns="http://www.w3.org/2000/svg">
<g clip-path="url(#clip0_2006_263)">
<path d="M192.544 506C188.79 504.814 184.937 504.024 181.381 502.344C166.365 495.129 158.363 482.973 158.165 466.37C157.869 441.96 158.066 417.648 158.066 393.237C158.066 391.458 158.066 389.68 158.066 387.901C148.483 386.319 139.197 385.43 130.207 383.256C114.104 379.5 99.8782 372.385 89.7027 358.845C86.8378 355.09 84.5656 350.84 82.5897 346.492C79.4284 339.475 79.626 339.376 71.0312 340.364C71.0312 345.009 71.13 349.753 71.0312 354.398C70.9324 360.525 68.0674 363.49 61.9424 363.589C44.3576 363.688 26.6739 363.688 9.08912 363.589C2.96406 363.589 0.0991211 360.525 0.0991211 354.299C0.0991211 302.612 0.0991211 250.925 0.0991211 199.238C0.0991211 192.814 2.96406 189.849 9.48428 189.849C26.4764 189.75 43.3697 189.849 60.3617 189.849C68.4626 189.849 71.0312 192.32 71.0312 200.424C71.0312 202.005 71.0312 203.685 71.0312 205.464C74.0937 205.464 76.6623 205.464 79.3296 205.464C80.6139 200.127 81.7006 194.889 83.2813 189.75C91.0858 165.34 108.275 151.108 132.578 144.487C139.592 142.609 146.409 140.237 153.522 138.854C157.572 138.063 158.264 136.185 158.264 132.529C158.165 103.078 158.165 73.6272 158.165 44.0776C158.165 20.2601 167.945 7.4124 190.964 0.69209C191.26 0.593262 191.458 0.296777 191.655 0.0991211C274.64 0.0991211 357.624 0.0991211 440.609 0.0991211C440.806 0.296777 441.004 0.69209 441.3 0.69209C464.615 7.4124 474.099 20.1612 474.099 44.5718C474.099 183.722 474.099 322.773 474.099 461.923C474.099 464.097 474.099 466.173 474 468.347C473.21 484.258 462.936 498.292 448.018 503.53C445.252 504.518 442.387 505.21 439.522 506C357.229 506 274.936 506 192.544 506ZM173.972 133.715C175.651 133.418 177.133 133.221 178.516 133.023C205.091 128.378 231.567 123.634 258.142 118.989C264.662 117.902 268.91 121.361 268.317 128.082C267.823 134.407 267.033 140.929 265.255 147.057C258.833 168.898 245.892 184.611 222.577 189.651C215.464 191.134 208.351 192.517 201.238 193.802C189.877 195.976 189.877 195.976 187.901 207.144C187.506 209.219 187.21 211.295 186.716 214.26C192.347 208.923 198.175 205.76 205.288 205.76C215.859 205.76 226.331 205.662 236.902 205.76C249.942 205.958 260.117 215.94 260.414 228.886C260.611 239.757 260.611 250.628 260.414 261.5C260.117 274.248 250.14 284.23 237.297 284.526C226.43 284.724 215.563 284.724 204.696 284.526C191.754 284.23 181.875 274.051 181.578 261.005C181.48 253.099 181.578 245.193 181.578 237.287C181.578 236.002 181.381 234.618 181.282 233.235C174.762 241.635 173.28 250.925 173.379 261.104C173.774 319.709 173.576 378.413 173.576 437.018C173.576 438.896 173.576 440.774 173.576 442.454C268.91 442.454 363.453 442.454 457.996 442.454C457.996 313.285 457.996 184.512 457.996 55.5417C439.226 55.5417 420.653 55.5417 401.982 55.5417C401.586 56.6288 401.191 57.6171 400.796 58.7042C396.252 71.2554 385.483 78.964 372.147 78.964C334.606 79.0628 297.065 79.0628 259.525 78.964C246.385 78.964 235.518 71.3542 231.27 59.0007C230.184 55.7394 228.603 55.2452 225.639 55.2452C209.833 55.344 194.026 55.2452 178.22 55.344C176.837 55.344 175.355 55.5417 173.873 55.6405C173.972 81.7312 173.972 107.525 173.972 133.715ZM251.424 136.087C249.646 136.284 247.867 136.284 246.089 136.581C231.369 139.15 216.452 141.127 201.929 144.388C177.627 149.824 153.324 155.753 129.219 162.177C115.981 165.735 106.3 174.728 101.162 187.378C98.0012 195.383 96.4205 204.08 94.8398 212.58C93.7531 218.41 91.5797 221.178 85.6523 221.276C80.9103 221.375 76.1683 221.276 71.3275 221.276C71.3275 255.767 71.3275 289.764 71.3275 323.564C71.7227 323.86 71.8215 324.058 72.0191 324.058C76.6623 324.157 81.2067 324.157 85.8499 324.255C91.3822 324.354 94.2471 326.825 94.7411 332.063C95.4326 339.376 98.3963 345.701 103.237 351.137C117.858 367.147 137.419 369.914 157.77 371.594C157.77 335.719 157.77 300.339 157.77 264.366C145.717 272.766 133.072 276.62 118.945 276.423C118.945 270.987 118.945 266.144 118.945 261.302C148.681 257.052 162.413 244.995 169.921 215.742C171.996 207.638 172.885 199.238 173.873 190.936C174.564 185.303 176.145 182.931 181.677 181.745C193.927 179.274 206.177 177.001 218.428 174.333C237.099 170.38 249.547 155.951 251.424 136.087ZM173.972 39.6304C194.421 39.6304 214.476 39.6304 234.629 39.6304C241.94 39.6304 244.41 41.9034 244.904 49.1179C245.496 57.3206 251.523 63.2503 259.722 63.2503C297.263 63.3491 334.804 63.3491 372.344 63.2503C380.643 63.2503 386.669 57.3206 387.262 49.2167C387.854 41.9034 390.225 39.6304 397.437 39.6304C415.911 39.6304 434.286 39.6304 452.76 39.6304C454.538 39.6304 456.317 39.6304 458.194 39.6304C458.194 37.9503 458.391 36.8632 458.194 35.7761C456.218 23.719 446.339 15.8128 433.2 15.8128C355.155 15.8128 277.11 15.8128 199.163 15.8128C197.978 15.8128 196.891 15.8128 195.706 15.9116C183.456 16.6034 173.873 26.9804 173.972 39.6304ZM173.675 458.662C173.675 461.528 173.675 463.801 173.675 466.074C173.873 479.91 183.949 490.188 197.681 490.287C276.616 490.385 355.649 490.385 434.583 490.287C450.883 490.287 462.047 474.672 457.502 458.76C363.157 458.662 268.712 458.662 173.675 458.662ZM16.1033 205.76C16.1033 253.297 16.1033 300.537 16.1033 347.776C29.3413 347.776 42.0854 347.776 54.9282 347.776C54.9282 300.24 54.9282 253 54.9282 205.76C41.6902 205.76 28.9461 205.76 16.1033 205.76ZM221.095 221.276C216.155 221.276 211.216 221.178 206.276 221.276C200.448 221.375 197.484 224.34 197.385 230.072C197.286 240.054 197.286 250.134 197.385 260.116C197.484 265.65 200.448 268.714 205.98 268.714C215.958 268.813 226.035 268.813 236.012 268.714C241.841 268.615 244.805 265.65 244.904 259.918C245.002 249.937 245.002 239.856 244.904 229.875C244.805 224.34 241.841 221.375 236.309 221.276C231.27 221.178 226.232 221.276 221.095 221.276Z" fill="#002935"/>
<path d="M123.292 113.257C119.933 116.617 116.475 120.076 113.413 123.239C102.941 112.763 92.6664 102.485 82.0957 92.108C85.3558 89.0443 88.9123 85.6842 92.37 82.4229C102.545 92.6021 112.919 102.88 123.292 113.257Z" fill="#002935"/>
<path d="M126.848 63.4478C131.886 63.4478 136.628 63.4478 141.765 63.4478C141.765 76.3942 141.765 89.2419 141.765 102.386C136.924 102.386 132.084 102.386 126.848 102.386C126.848 89.6372 126.848 76.7896 126.848 63.4478Z" fill="#002935"/>
<path d="M63.6216 126.796C76.4644 126.796 89.2085 126.796 102.249 126.796C102.249 131.837 102.249 136.778 102.249 141.917C89.4061 141.917 76.662 141.917 63.6216 141.917C63.6216 136.976 63.6216 132.034 63.6216 126.796Z" fill="#002935"/>
<path d="M316.132 110.786C321.368 110.786 326.702 110.687 331.938 110.786C345.176 111.083 355.253 121.064 355.45 134.406C355.648 144.882 355.648 155.456 355.45 166.031C355.253 179.57 345.077 189.552 331.543 189.75C321.17 189.849 310.797 189.849 300.424 189.75C286.889 189.552 276.813 179.472 276.615 165.932C276.516 155.555 276.516 145.178 276.615 134.801C276.813 121.064 286.889 111.083 300.819 110.885C305.956 110.687 310.994 110.786 316.132 110.786ZM316.033 126.401C311.093 126.401 306.154 126.302 301.214 126.401C295.287 126.5 292.323 129.366 292.224 135.098C292.125 145.079 292.125 155.16 292.224 165.142C292.323 170.874 295.287 173.838 301.214 173.937C311.093 174.036 320.972 174.036 330.753 173.937C336.581 173.838 339.644 170.972 339.743 165.24C339.841 155.259 339.841 145.178 339.743 135.197C339.644 129.465 336.68 126.5 330.753 126.401C325.912 126.302 320.972 126.401 316.033 126.401Z" fill="#002935"/>
<path d="M450.29 150.318C450.29 155.556 450.389 160.892 450.29 166.13C449.994 179.373 439.917 189.355 426.679 189.651C416.207 189.849 405.637 189.849 395.066 189.651C381.828 189.454 371.652 179.373 371.455 166.13C371.257 155.457 371.257 144.783 371.455 134.011C371.751 121.065 381.828 110.984 394.868 110.786C405.538 110.589 416.207 110.589 426.975 110.786C440.016 110.984 449.994 121.065 450.29 134.011C450.389 139.545 450.29 144.981 450.29 150.318ZM410.971 174.036C416.108 174.036 421.147 174.135 426.284 174.036C431.52 173.839 434.582 170.874 434.582 165.735C434.681 155.358 434.681 144.981 434.582 134.703C434.484 129.761 431.421 126.698 426.482 126.599C416.108 126.401 405.735 126.5 395.461 126.599C390.225 126.698 387.163 129.663 387.163 134.9C387.064 145.08 387.064 155.259 387.163 165.438C387.261 170.973 390.225 173.938 395.757 174.036C400.796 174.135 405.933 174.036 410.971 174.036Z" fill="#002935"/>
<path d="M355.451 245.292C355.451 250.431 355.55 255.471 355.451 260.61C355.253 274.248 345.275 284.329 331.741 284.526C321.269 284.724 310.698 284.724 300.128 284.526C286.89 284.329 276.813 274.248 276.615 261.005C276.418 250.529 276.418 239.955 276.615 229.38C276.813 215.841 286.989 205.859 300.523 205.662C310.896 205.563 321.269 205.563 331.642 205.662C345.177 205.859 355.154 215.94 355.451 229.479C355.55 234.717 355.451 239.955 355.451 245.292ZM316.033 268.912C320.973 268.912 325.912 269.01 330.852 268.912C336.68 268.813 339.842 265.947 339.842 260.215C339.941 250.233 339.941 240.153 339.842 230.171C339.743 224.538 336.878 221.474 331.445 221.375C321.269 221.276 311.094 221.276 300.918 221.375C295.386 221.474 292.422 224.538 292.422 230.072C292.323 240.054 292.323 250.134 292.422 260.116C292.521 265.848 295.485 268.813 301.313 268.912C306.154 269.01 311.094 268.912 316.033 268.912Z" fill="#002935"/>
<path d="M450.29 245.39C450.29 250.628 450.389 255.965 450.29 261.203C449.895 274.248 440.016 284.23 426.975 284.526C416.306 284.724 405.637 284.724 394.868 284.526C381.63 284.329 371.652 274.149 371.455 260.906C371.257 250.431 371.257 239.856 371.455 229.281C371.652 216.038 381.729 205.958 394.967 205.661C405.439 205.464 416.01 205.464 426.58 205.661C440.115 205.859 450.093 215.94 450.29 229.578C450.389 234.816 450.29 240.152 450.29 245.39ZM434.681 245.094C434.681 239.955 434.78 234.915 434.681 229.775C434.582 224.439 431.619 221.375 426.482 221.276C416.108 221.079 405.735 221.177 395.461 221.276C390.225 221.375 387.261 224.439 387.163 229.677C387.064 239.856 387.064 250.035 387.163 260.215C387.261 265.749 390.324 268.714 395.856 268.714C405.834 268.813 415.911 268.813 425.889 268.714C431.619 268.615 434.582 265.65 434.681 259.819C434.78 254.977 434.681 250.035 434.681 245.094Z" fill="#002935"/>
<path d="M442.288 411.521C442.288 416.66 442.288 421.403 442.288 426.542C368.688 426.542 295.287 426.542 221.588 426.542C221.588 421.601 221.588 416.758 221.588 411.521C294.99 411.521 368.491 411.521 442.288 411.521Z" fill="#002935"/>
<path d="M204.992 426.74C199.855 426.74 195.113 426.74 190.074 426.74C190.074 421.7 190.074 416.758 190.074 411.521C195.014 411.521 199.855 411.521 204.992 411.521C204.992 416.462 204.992 421.403 204.992 426.74Z" fill="#002935"/>
<path d="M347.152 47.24C326.307 47.24 305.759 47.24 284.914 47.24C284.914 42.1998 284.914 37.2584 284.914 32.0205C305.561 32.0205 326.109 32.0205 347.152 32.0205C347.152 36.8631 347.152 41.8045 347.152 47.24Z" fill="#002935"/>
</g>
<defs>
<clipPath id="clip0_2006_263">
<rect width="474" height="506" fill="white"/>
</clipPath>
</defs>
</svg>
