<svg width="44" height="45" viewBox="0 0 44 45" fill="none" xmlns="http://www.w3.org/2000/svg">
<path d="M43.9908 24.5477C43.9851 21.7805 41.9321 19.7318 39.155 19.7054C37.967 19.6928 36.7778 19.6917 35.5897 19.71C35.2896 19.7146 35.1361 19.6138 34.9974 19.3525C33.2194 15.9895 31.431 12.6333 29.6438 9.27604C29.5499 9.09958 29.4525 8.92542 29.3826 8.79708C28.8476 9.5201 28.2988 10.242 27.7821 10.9868C27.7214 11.075 27.8085 11.3042 27.8795 11.4394C29.1981 13.9293 30.5237 16.4146 31.848 18.901C31.9741 19.1382 32.0955 19.3789 32.2444 19.6653H11.7601C11.8369 19.5072 11.8976 19.3674 11.9698 19.2333C13.3537 16.6334 14.7343 14.0312 16.1285 11.4359C16.2706 11.1712 16.2523 11.0166 16.0563 10.7714C15.55 10.1389 15.1032 9.46052 14.6231 8.78906C14.5739 8.87615 14.4971 9.00219 14.4284 9.13281C12.6205 12.5279 10.8092 15.9219 9.01401 19.3239C8.85591 19.6229 8.67833 19.7123 8.35182 19.7111C6.97818 19.7054 5.59881 19.655 4.23205 19.7627C2.14008 19.9266 0.483466 21.5101 0.0836328 23.5738C0.0675936 23.654 0.0286414 23.7284 0 23.8064V39.8767C0.199344 40.4358 0.329948 41.0317 0.609488 41.5461C1.32438 42.8627 2.45514 43.6488 3.93303 43.9249C3.99948 43.9375 4.0602 43.9753 4.12436 44.0017H39.8688C40.2755 43.8779 40.7028 43.8 41.0855 43.6235C42.9678 42.755 43.9748 41.27 43.9851 39.1949C44.0092 34.3125 44 29.4301 43.9908 24.5477ZM15.173 33.4463C15.1249 35.1616 14.1935 36.0255 12.4693 36.0003C10.8379 35.9763 9.94886 35.1089 9.90189 33.4818C9.887 32.9386 9.8996 32.3944 9.8996 31.8512C9.89845 31.3219 9.88814 30.7914 9.90074 30.2631C9.9374 28.6406 10.7325 27.8202 12.3479 27.7205C14.1168 27.6117 15.1261 28.5077 15.1742 30.27C15.2017 31.3288 15.2028 32.3886 15.173 33.4463ZM21.7537 30.6733C21.6506 31.9521 20.8509 32.7484 19.5678 32.8286C19.0282 32.8619 18.4851 32.8344 17.8779 32.8344C17.8779 33.6995 17.8814 34.4855 17.8779 35.2716C17.8756 35.7391 17.6522 35.9316 17.1356 35.9258C16.636 35.9201 16.4195 35.7345 16.4195 35.2819C16.4161 32.9627 16.4207 30.6424 16.4149 28.3232C16.4138 27.9279 16.5994 27.7205 16.9752 27.7194C17.8917 27.7171 18.8105 27.6953 19.7224 27.7595C20.9082 27.8431 21.646 28.6246 21.748 29.8163C21.7732 30.1004 21.7766 30.3892 21.7537 30.6733ZM25.6042 31.2463C26.1152 31.2497 26.3099 31.417 26.3019 31.8352C26.2951 32.234 26.1037 32.3909 25.6134 32.3932C25.1425 32.3955 24.6728 32.3932 24.1733 32.3932V34.615C24.2936 34.6242 24.4173 34.6391 24.5411 34.6402C25.3843 34.6425 26.2286 34.6391 27.073 34.6414C27.5793 34.6436 27.7707 34.8224 27.7729 35.2865C27.7764 35.7517 27.5896 35.9258 27.0787 35.9258C25.8906 35.9281 24.7037 35.9281 23.5157 35.9258C22.8042 35.9247 22.6828 35.8055 22.6828 35.1157C22.6828 32.8836 22.6828 30.6516 22.684 28.4195C22.684 27.8924 22.8306 27.7228 23.3668 27.7171C24.6396 27.7033 25.9124 27.7068 27.1864 27.7148C27.6011 27.7171 27.7684 27.9096 27.7729 28.3347C27.7775 28.7781 27.6011 28.9844 27.1761 28.9878C26.3317 28.997 25.4874 28.9913 24.6442 28.9913H24.1641V31.2451C24.6453 31.2451 25.1253 31.2428 25.6042 31.2463ZM33.6754 35.8869C33.2652 36.0049 32.8264 35.8926 32.5916 35.5741C32.4988 35.448 32.4289 35.3048 32.3544 35.1661C31.6338 33.8209 30.9132 32.4734 30.1926 31.1271C30.1593 31.134 30.1261 31.1397 30.0918 31.1466C30.0918 32.4723 30.0929 33.798 30.0918 35.1249C30.0918 35.7711 29.7813 36.0313 29.1535 35.9109C28.8189 35.8468 28.6265 35.6726 28.6276 35.2968C28.6345 32.9776 28.623 30.6584 28.6471 28.3393C28.6482 28.1491 28.8292 27.8615 28.9965 27.7939C29.3734 27.6426 29.7985 27.6403 30.1101 27.9795C30.2716 28.1548 30.3942 28.3736 30.5065 28.5868C31.116 29.7532 31.7163 30.9231 32.3212 32.0907C32.3922 32.2271 32.4701 32.36 32.5996 32.5915C32.6168 32.368 32.634 32.2511 32.634 32.1331C32.6351 30.8739 32.6328 29.6134 32.6363 28.3542C32.6374 27.8924 32.8322 27.7217 33.3408 27.7148C33.8632 27.7091 34.0935 27.8981 34.0947 28.3622C34.0981 30.6092 34.0935 32.8573 34.0993 35.1054C34.1004 35.4537 34.0912 35.7666 33.6754 35.8869Z" fill="#573CFF"/>
<path d="M21.9973 10.8545C18.9945 10.8568 16.5692 8.42991 16.5703 5.42324C16.5726 2.42804 19.0151 -0.00686048 22.0122 1.45231e-05C24.9874 0.00688952 27.4128 2.43606 27.4162 5.41522C27.4197 8.42418 25.0012 10.8522 21.9973 10.8545Z" fill="#573CFF"/>
<path d="M13.6492 33.8478C13.6286 34.4058 13.1635 34.706 12.554 34.7129C11.9296 34.7209 11.5057 34.4505 11.4335 33.8799C11.3499 33.2164 11.3591 32.5416 11.3281 31.8724C11.3419 31.8712 11.3568 31.8712 11.3717 31.8701C11.3717 31.2846 11.3373 30.6956 11.3797 30.1124C11.4415 29.2542 11.9766 28.8703 12.8163 29.0261C13.2952 29.1144 13.6389 29.3848 13.6527 29.866C13.6905 31.1929 13.6973 32.5221 13.6492 33.8478Z" fill="#573CFF"/>
<path d="M20.2734 30.861C20.1611 31.3801 19.8014 31.6791 19.232 31.7066C18.9181 31.7215 18.603 31.7112 18.288 31.7123H17.8984V28.9727C18.4587 29.0002 19.0086 29.0231 19.5585 29.0574C19.6398 29.0632 19.7212 29.1113 19.7956 29.1537C20.2528 29.4127 20.4406 30.091 20.2734 30.861Z" fill="#573CFF"/>
</svg>
