<svg width="485" height="485" viewBox="0 0 485 485" fill="none" xmlns="http://www.w3.org/2000/svg">
<g clip-path="url(#clip0_2007_315)">
<path d="M0 472.622C0 458.098 0 443.573 0 429.048C2.52538 425.891 5.68211 423.996 9.849 425.512C14.0159 427.027 14.2684 430.69 14.2684 434.479C14.1422 444.583 14.3947 454.687 14.1422 464.792C14.0159 469.338 15.4048 470.728 20.0768 470.728C85.7368 470.602 151.397 470.602 217.057 470.602C219.33 470.602 221.981 469.591 223.749 468.202C234.608 459.866 249.887 459.74 260.872 467.823C263.019 469.465 266.175 470.602 268.827 470.602C333.73 470.728 398.506 470.728 463.408 470.728C470.732 470.728 470.732 470.728 470.732 463.529C470.732 367.665 470.732 271.928 470.732 176.065C470.732 174.802 471.11 173.413 470.605 172.276C470.1 171.013 468.964 169.245 467.954 169.118C463.408 168.74 458.862 168.992 453.938 168.992C453.938 171.518 453.938 173.539 453.938 175.56C453.938 265.108 453.938 354.53 453.938 444.078C453.938 453.677 452.296 455.445 442.7 455.445C309.36 455.445 176.019 455.445 42.5527 455.445C32.5775 455.445 31.0622 453.803 31.0622 443.952C31.0622 354.404 31.0622 264.982 31.0622 175.434C31.0622 173.413 31.0622 171.392 31.0622 168.866C27.2741 168.866 24.2437 168.866 21.087 168.866C14.2684 168.866 14.2684 168.866 14.2684 175.686C14.2684 245.784 14.2684 315.881 14.2684 385.979C14.2684 389.768 14.0159 393.431 9.72273 394.82C5.55585 396.21 2.39911 394.441 0 391.031C0 316.513 0 241.995 0 167.477C3.66181 157.625 10.8592 153.836 21.087 154.594C23.4861 154.72 25.8852 154.846 28.158 154.467C29.1682 154.341 30.6834 153.457 30.936 152.699C31.8198 147.9 35.2291 146.005 39.2697 144.616C50.634 140.827 61.8719 136.911 73.3624 133.628C77.2768 132.491 78.4132 130.975 78.4132 126.934C78.2869 97.5052 78.2869 67.8242 78.2869 38.1432C78.2869 28.6706 81.3174 26.1445 90.535 28.5443C100.51 31.1966 110.486 34.4805 120.335 37.5117C121.85 38.0169 123.491 38.5221 125.512 39.1536C125.512 28.2917 125.385 18.1875 125.512 8.08333C125.638 1.89453 129.173 -1.01042 134.982 0.252604C158.594 5.43099 179.934 15.4089 198.116 31.8281C222.739 54.1836 236.502 82.6016 243.952 114.43C245.972 123.271 247.235 132.365 249.003 141.585C250.013 140.953 250.897 140.322 251.781 139.69C300.016 102.557 354.943 85.3802 415.426 84.2435C423.002 84.1172 425.275 86.3906 425.275 94.095C425.275 106.978 425.401 119.987 425.148 132.87C425.022 136.533 426.411 138.048 429.82 139.185C435.881 141.079 441.69 143.227 447.498 145.753C449.645 146.637 452.423 148.658 452.801 150.552C453.685 154.72 456.084 154.846 459.241 154.72C461.009 154.594 462.65 154.72 464.418 154.72C478.56 154.72 484.621 160.783 484.621 174.802C484.621 271.297 484.495 367.665 484.747 464.16C484.747 474.517 481.212 481.463 471.363 484.874C400.273 484.874 329.31 484.874 258.221 484.874C256.705 483.611 255.064 482.348 253.675 480.958C246.983 474.264 237.26 474.264 230.568 480.958C229.179 482.348 227.537 483.611 226.022 484.874C154.932 484.874 83.969 484.874 12.8795 484.874C6.94481 482.979 2.77792 478.559 0 472.622ZM425.78 152.573C425.654 154.594 425.527 155.983 425.527 157.372C425.401 162.298 425.653 167.224 425.401 172.023C425.148 175.812 422.749 178.086 418.961 178.212C415.173 178.465 412.648 176.444 411.764 172.781C411.385 171.139 411.385 169.371 411.385 167.603C411.385 146.51 411.385 125.292 411.385 104.199C411.385 102.431 411.259 100.536 411.133 97.6315C394.591 99.9049 378.681 101.294 363.15 104.452C322.239 112.788 285.495 130.091 253.549 157.246C250.771 159.52 249.634 162.046 249.634 165.708C249.76 251.594 249.761 337.479 249.761 423.365C249.761 425.006 249.887 426.648 250.013 429.048C297.869 391.789 351.786 374.233 411.385 372.086C411.385 369.686 411.385 367.539 411.385 365.518C411.385 316.892 411.385 268.266 411.385 219.639C411.385 217.871 411.259 216.103 411.511 214.461C412.143 210.419 415.173 207.767 418.961 208.146C423.002 208.525 425.148 210.924 425.401 214.966C425.527 216.355 425.527 217.745 425.527 219.26C425.527 271.171 425.527 323.081 425.527 375.117C425.527 384.716 424.012 386.358 414.163 386.484C382.722 386.737 352.417 392.547 323.123 403.788C321.986 404.293 320.724 404.672 319.587 405.177C318.451 405.682 317.441 406.314 316.304 406.819C337.013 403.661 357.594 402.904 378.303 404.546C399.011 406.187 419.214 410.734 439.669 416.671C439.669 414.144 439.669 412.376 439.669 410.608C439.669 328.259 439.669 245.784 439.669 163.435C439.669 162.298 439.922 161.161 439.543 160.151C439.164 159.141 438.533 157.878 437.649 157.499C433.987 155.478 430.073 154.215 425.78 152.573ZM140.159 16.1667C140.033 17.6823 139.906 18.5664 139.906 19.4505C139.906 107.988 139.906 196.526 139.78 285.064C139.78 287.969 140.664 289.105 143.568 289.863C185.742 301.609 215.163 328.133 232.967 367.918C233.472 368.928 234.103 369.812 235.113 371.581C235.24 369.686 235.24 368.928 235.24 368.171C235.24 298.073 235.366 227.975 235.113 157.878C234.987 128.07 228.168 99.6523 213.647 73.5078C197.485 44.4583 172.989 25.3867 140.159 16.1667ZM220.845 422.733C220.213 421.849 219.708 420.838 219.077 419.954C185.995 374.107 142.937 342.91 87.5046 329.775C79.1708 327.754 78.4132 326.87 78.4132 318.155C78.4132 263.214 78.4132 208.272 78.4132 153.331C78.4132 151.436 78.4132 149.668 78.4132 147.521C76.7717 147.773 75.6353 147.647 74.6251 148.026C66.4176 150.552 58.2101 153.331 49.8763 155.857C46.2145 156.867 45.2044 158.762 45.2044 162.551C45.3306 245.279 45.3306 328.006 45.3306 410.734C45.3306 412.376 45.3306 414.018 45.3306 416.292C104.93 398.357 163.14 397.473 220.845 422.733ZM92.5553 42.9427C92.5553 45.974 92.5553 47.8685 92.5553 49.763C92.5553 102.81 92.5553 155.857 92.5553 208.904C92.5553 243.258 92.5553 277.738 92.5553 312.092C92.5553 314.745 92.5553 316.639 96.0909 317.523C151.271 331.796 194.707 363.371 228.547 408.84C229.431 410.103 230.441 411.24 231.451 412.503C231.83 412.25 232.209 412.124 232.588 411.871C229.557 401.893 227.158 391.789 223.497 382.19C207.839 340.637 179.302 313.229 135.613 302.62C126.395 300.346 125.89 299.841 125.89 290.116C125.89 228.986 125.89 167.982 125.89 106.852C125.89 90.9375 125.89 75.0234 125.764 58.9831C125.764 57.3411 125.007 54.8151 123.87 54.3099C113.769 50.3945 103.541 46.8581 92.5553 42.9427ZM45.7095 441.047C104.425 441.047 162.887 441.047 221.224 441.047C221.35 440.542 221.476 440.163 221.729 439.658C211.248 435.49 201.021 430.69 190.288 427.28C144.326 412.755 98.49 415.408 52.9068 429.048C44.3205 431.574 44.3205 431.7 45.7095 441.047ZM262.387 441.047C322.239 441.047 380.828 441.047 439.291 441.047C439.417 440.163 439.543 439.531 439.669 438.9C439.669 437.51 439.543 435.995 439.669 434.605C439.922 432.079 438.786 431.069 436.513 430.311C391.561 416.165 346.356 412.629 300.521 425.385C287.641 428.922 275.141 433.848 262.387 441.047Z" fill="#007A70"/>
</g>
<defs>
<clipPath id="clip0_2007_315">
<rect width="485" height="485" fill="white"/>
</clipPath>
</defs>
</svg>
