<svg width="419" height="420" viewBox="0 0 419 420" fill="none" xmlns="http://www.w3.org/2000/svg">
<g clip-path="url(#clip0_2007_334)">
<path d="M240.786 420C220.038 420 199.29 420 178.542 420C178.105 419.344 177.777 418.579 177.231 418.032C162.708 403.165 145.236 395.404 124.269 395.404C82.8827 395.404 41.3868 395.404 0 395.404C0 296.471 0 197.538 0 98.605C16.2708 98.605 32.6508 98.605 49.2492 98.605C49.2492 81.9887 49.2492 65.9189 49.2492 49.4119C65.7383 49.4119 81.8999 49.4119 98.3891 49.4119C98.3891 32.7956 98.3891 16.6165 98.3891 0.54674C124.597 -1.5303 149.167 4.04492 170.352 17.7097C198.198 35.6378 214.796 61.2183 220.802 93.9044C221.785 93.4671 222.44 93.2484 222.986 92.9205C245.7 80.021 270.161 74.0085 296.15 74.1178C319.301 74.2271 342.56 74.1178 365.71 74.1178C367.13 74.1178 368.55 74.1178 370.297 74.1178C370.297 90.8435 370.297 106.913 370.297 123.42C386.786 123.42 402.948 123.42 419 123.42C419 214.373 419 304.779 419 395.513C417.034 395.513 415.396 395.513 413.868 395.513C374.556 395.513 335.244 395.404 295.932 395.622C290.253 395.622 284.466 396.169 278.897 397.371C263.718 400.432 250.832 407.866 240.786 420ZM345.399 98.605C327.709 98.605 310.565 98.4957 293.42 98.605C268.632 98.8237 245.918 106.039 225.498 120.141C222.768 121.999 221.894 123.967 221.894 127.137C222.003 196.663 222.003 266.19 222.003 335.825C222.003 337.246 222.003 338.777 222.003 340.745C223.532 339.979 224.624 339.542 225.716 338.995C246.792 327.736 269.287 321.942 293.202 321.723C309.145 321.614 325.088 321.723 341.14 321.723C342.56 321.723 344.089 321.723 345.618 321.723C345.399 247.059 345.399 173.051 345.399 98.605ZM24.7884 370.807C26.8632 370.807 28.5012 370.807 30.1392 370.807C61.3703 370.807 92.6015 370.807 123.942 370.807C147.747 370.807 168.932 378.35 187.278 393.654C188.479 394.638 190.445 395.404 191.973 395.404C203.876 395.513 215.67 395.513 227.573 395.404C229.101 395.404 230.849 394.857 231.941 393.873C250.723 378.131 272.345 370.698 296.805 370.807C327.927 370.916 359.049 370.807 390.171 370.807C391.591 370.807 393.12 370.807 394.539 370.807C394.539 296.252 394.539 222.134 394.539 148.017C386.349 148.017 378.487 148.017 370.188 148.017C370.188 214.154 370.188 280.073 370.188 346.21C368.222 346.21 366.802 346.21 365.274 346.21C341.577 346.21 317.772 346.21 294.075 346.21C272.891 346.21 252.47 350.583 234.889 362.28C224.078 369.386 213.486 371.9 201.255 370.698C199.181 370.479 196.997 369.823 195.359 368.73C174.065 353.535 150.477 346.21 124.379 346.21C100.901 346.21 77.4227 346.21 53.9447 346.21C52.5252 346.21 50.9964 346.21 49.14 346.21C49.14 271.765 49.14 197.647 49.14 123.53C40.7316 123.53 32.76 123.53 24.7884 123.53C24.7884 205.955 24.7884 288.163 24.7884 370.807ZM122.959 248.371C152.989 252.197 177.341 265.643 197.215 288.818C197.324 287.288 197.324 286.741 197.324 286.195C197.324 227.272 197.652 168.459 197.215 109.537C196.997 79.5837 183.237 56.1896 158.667 39.2453C147.966 31.921 136.063 27.439 123.068 25.6899C122.959 100.135 122.959 174.144 122.959 248.371ZM73.9283 321.614C75.6755 321.614 77.2043 321.614 78.6239 321.614C93.4751 321.614 108.326 321.723 123.287 321.614C147.747 321.505 170.898 326.861 192.519 338.23C193.175 338.558 193.939 338.777 194.594 339.105C194.813 338.668 195.031 338.34 195.359 337.902C179.961 291.551 147.092 270.453 98.1707 272.311C98.1707 205.955 98.1707 140.146 98.1707 74.2271C89.8715 74.2271 82.0091 74.2271 73.9283 74.2271C73.9283 156.544 73.9283 238.751 73.9283 321.614Z" fill="#573CFF"/>
</g>
<defs>
<clipPath id="clip0_2007_334">
<rect width="419" height="420" fill="white"/>
</clipPath>
</defs>
</svg>
