<svg width="25" height="25" viewBox="0 0 25 25" fill="none" xmlns="http://www.w3.org/2000/svg">
<g clip-path="url(#clip0_1030_452)">
<path d="M19.7583 15.4868C19.2464 14.9539 18.6291 14.669 17.9748 14.669C17.3258 14.669 16.7032 14.9487 16.1703 15.4816L14.5029 17.1436C14.3657 17.0698 14.2286 17.0012 14.0967 16.9326C13.9067 16.8376 13.7273 16.7479 13.5743 16.6529C12.0125 15.661 10.5931 14.3682 9.23179 12.6956C8.57224 11.8619 8.12902 11.1602 7.80716 10.4479C8.23982 10.0521 8.64083 9.64057 9.03129 9.24484C9.17903 9.0971 9.32677 8.94408 9.47451 8.79634C10.5826 7.68829 10.5826 6.25311 9.47451 5.14506L8.03404 3.7046C7.87048 3.54103 7.70163 3.37218 7.54334 3.20334C7.22675 2.8762 6.89434 2.53851 6.55137 2.22192C6.03956 1.71539 5.42749 1.44629 4.78377 1.44629C4.14005 1.44629 3.51743 1.71539 2.98979 2.22192C2.98451 2.2272 2.98451 2.2272 2.97923 2.23248L1.18525 4.04229C0.509868 4.71767 0.124689 5.54079 0.0402664 6.49582C-0.0863677 8.03654 0.367404 9.47173 0.715648 10.4109C1.57043 12.7167 2.84732 14.8537 4.75211 17.1436C7.06318 19.9032 9.84386 22.0824 13.0203 23.6178C14.2338 24.1929 15.8537 24.8736 17.6635 24.9897C17.7743 24.995 17.8904 25.0002 17.9959 25.0002C19.2148 25.0002 20.2384 24.5623 21.0404 23.6917C21.0457 23.6811 21.0563 23.6759 21.0615 23.6653C21.3359 23.3329 21.6525 23.0321 21.9849 22.7103C22.2118 22.4939 22.444 22.267 22.6708 22.0296C23.1932 21.4861 23.4676 20.853 23.4676 20.204C23.4676 19.5497 23.1879 18.9218 22.655 18.3942L19.7583 15.4868ZM21.6472 21.0429C21.6419 21.0429 21.6419 21.0482 21.6472 21.0429C21.4414 21.2645 21.2304 21.465 21.0035 21.6866C20.6605 22.0138 20.3123 22.3567 19.9851 22.7419C19.4522 23.3118 18.8243 23.5809 18.0012 23.5809C17.9221 23.5809 17.8376 23.5809 17.7585 23.5756C16.1914 23.4753 14.7351 22.8633 13.6429 22.3409C10.6564 20.8952 8.03404 18.8426 5.85488 16.2414C4.05562 14.0728 2.8526 12.0677 2.05586 9.91494C1.56515 8.60112 1.38575 7.57749 1.4649 6.61191C1.51766 5.99456 1.7551 5.48275 2.19305 5.04481L3.99231 3.24555C4.25085 3.00283 4.52522 2.87092 4.79432 2.87092C5.12674 2.87092 5.39583 3.07143 5.56468 3.24027C5.56996 3.24555 5.57523 3.25083 5.58051 3.2561C5.90237 3.55686 6.2084 3.86817 6.53026 4.20058C6.69383 4.36943 6.86268 4.53827 7.03152 4.71239L8.47199 6.15286C9.03129 6.71216 9.03129 7.22925 8.47199 7.78855C8.31897 7.94156 8.17123 8.09458 8.01821 8.24232C7.575 8.69609 7.15288 9.11821 6.69383 9.52977C6.68328 9.54032 6.67273 9.5456 6.66745 9.55615C6.21368 10.0099 6.2981 10.4531 6.39308 10.7539C6.39835 10.7697 6.40363 10.7856 6.40891 10.8014C6.78353 11.7089 7.31117 12.5637 8.11319 13.5821L8.11847 13.5873C9.57476 15.3813 11.1102 16.7796 12.8039 17.8507C13.0203 17.9879 13.2419 18.0987 13.4529 18.2042C13.6429 18.2992 13.8223 18.3889 13.9753 18.4839C13.9964 18.4944 14.0175 18.5102 14.0386 18.5208C14.218 18.6105 14.3869 18.6527 14.561 18.6527C14.9989 18.6527 15.2733 18.3783 15.363 18.2886L17.1675 16.4841C17.3469 16.3047 17.6319 16.0884 17.9643 16.0884C18.2914 16.0884 18.5605 16.2941 18.7241 16.4735C18.7293 16.4788 18.7293 16.4788 18.7346 16.4841L21.6419 19.3914C22.1854 19.9296 22.1854 20.4836 21.6472 21.0429Z" fill="white"/>
<path d="M13.5111 5.94724C14.8936 6.17941 16.1493 6.83368 17.1519 7.8362C18.1544 8.83872 18.8034 10.0945 19.0408 11.4769C19.0989 11.8252 19.3996 12.0679 19.7426 12.0679C19.7848 12.0679 19.8217 12.0626 19.8639 12.0573C20.2544 11.994 20.5129 11.6247 20.4496 11.2342C20.1647 9.56159 19.3732 8.03671 18.1649 6.82841C16.9566 5.62011 15.4318 4.82864 13.7591 4.54372C13.3687 4.4804 13.0046 4.73894 12.936 5.12412C12.8674 5.5093 13.1207 5.88393 13.5111 5.94724Z" fill="white"/>
<path d="M24.9715 11.028C24.5019 8.27374 23.2039 5.76744 21.2094 3.77295C19.2149 1.77846 16.7086 0.480461 13.9543 0.0108597C13.5692 -0.0577338 13.2051 0.206087 13.1365 0.591266C13.0732 0.981721 13.3317 1.34579 13.7222 1.41439C16.181 1.83122 18.4235 2.99731 20.2069 4.77547C21.9903 6.5589 23.1511 8.80138 23.568 11.2602C23.626 11.6084 23.9268 11.8511 24.2697 11.8511C24.3119 11.8511 24.3489 11.8459 24.3911 11.8406C24.7763 11.7826 25.0401 11.4132 24.9715 11.028Z" fill="white"/>
</g>
<defs>
<clipPath id="clip0_1030_452">
<rect width="25" height="25" fill="white"/>
</clipPath>
</defs>
</svg>
