<svg width="42" height="41" viewBox="0 0 42 41" fill="none" xmlns="http://www.w3.org/2000/svg">
<path d="M40.1735 32.1113L33.827 25.8266C32.563 24.58 30.4696 24.6179 29.1615 25.9136L25.9641 29.0788C25.7621 28.9686 25.553 28.8534 25.3332 28.7313C23.3141 27.6235 20.5506 26.1052 17.6426 23.2237C14.726 20.3362 13.1912 17.5957 12.069 15.5952C11.9506 15.3832 11.8371 15.1789 11.7251 14.9848L13.871 12.8632L14.926 11.8173C16.2361 10.5197 16.2722 8.44751 15.0111 7.19726L8.66464 0.911872C7.4035 -0.336625 5.30919 -0.29875 3.99905 0.998845L2.21041 2.78006L2.25928 2.8281C1.65953 3.58585 1.15835 4.4598 0.785392 5.40225C0.441594 6.29935 0.227547 7.15541 0.129674 8.01322C-0.708333 14.8921 2.46637 21.1789 11.0821 29.71C22.9916 41.5015 32.5892 40.6107 33.0032 40.5672C33.905 40.4605 34.7692 40.2471 35.6474 39.9094C36.591 39.5444 37.473 39.0489 38.2379 38.4563L38.2769 38.4907L40.089 36.7338C41.3964 35.4364 41.434 33.3636 40.1735 32.1113Z" fill="#573CFF"/>
</svg>
