<svg width="28" height="33" viewBox="0 0 28 33" fill="none" xmlns="http://www.w3.org/2000/svg">
<path d="M25.8944 12.468L6.74794 0.665713C5.36273 -0.187079 3.68798 -0.222536 2.26789 0.570867C0.84779 1.36414 0 2.80906 0 4.43569V27.9327C0 30.3923 1.98176 32.404 4.4175 32.4173C4.42415 32.4173 4.4308 32.4173 4.43732 32.4173C5.19849 32.4173 5.9917 32.1787 6.73255 31.7266C7.32854 31.363 7.5169 30.5851 7.15328 29.9892C6.78966 29.3932 6.01165 29.2049 5.41585 29.5685C5.06933 29.7798 4.73091 29.8892 4.43111 29.8891C3.51209 29.8841 2.52811 29.0968 2.52811 27.9328V4.43575C2.52811 3.73796 2.89179 3.11829 3.50089 2.77797C4.11004 2.43765 4.82835 2.45285 5.4218 2.81824L24.5684 14.6205C25.1438 14.9748 25.4731 15.5656 25.4718 16.2414C25.4704 16.9172 25.1387 17.5067 24.56 17.8598L10.717 26.3357C10.1216 26.7002 9.9344 27.4784 10.299 28.0738C10.6635 28.6692 11.4417 28.8564 12.0371 28.4918L25.8785 20.0169C27.2037 19.2085 27.9968 17.7991 28 16.2465C28.0032 14.6941 27.2158 13.2815 25.8944 12.468Z" fill="white"/>
</svg>
