<svg width="55" height="55" viewBox="0 0 55 55" fill="none" xmlns="http://www.w3.org/2000/svg">
<path d="M44.2295 14.4378C46.5212 16.9587 47.8962 19.7087 47.8962 24.292C47.8961 32.3128 42.167 39.417 34.1461 43.0837L32.0837 40.1045C39.6462 35.9795 41.2503 30.7087 41.7087 27.2712C40.5628 27.9587 38.9587 28.1878 37.3545 27.9587C33.2295 27.5003 30.0212 24.292 30.0212 19.9378C30.0212 17.8753 30.9378 15.8128 32.3128 14.2087C33.917 12.6045 35.7503 11.917 38.042 11.917C40.5628 11.917 42.8545 13.0628 44.2295 14.4378ZM21.3128 14.4378C23.6045 16.9587 24.9795 19.7087 24.9795 24.292C24.9795 32.3128 19.2503 39.417 11.2295 43.0837L9.16699 40.1045C16.7295 35.9795 18.3337 30.7087 18.792 27.2712C17.6462 27.9587 16.042 28.1878 14.4378 27.9587C10.3128 27.5003 7.10449 24.0628 7.10449 19.9378C7.10449 17.8753 8.02116 15.8128 9.39616 14.2087C11.0003 12.6045 12.8337 11.917 15.1253 11.917C17.6462 11.917 19.9378 13.0628 21.3128 14.4378Z" fill="#007A70"/>
</svg>
