<svg width="114" height="106" viewBox="0 0 114 106" fill="none" xmlns="http://www.w3.org/2000/svg">
<path opacity="0.05" d="M64.7838 101.339L64.7838 82.355C64.7838 79.7803 66.8709 77.6941 69.4456 77.6941C78.6316 77.6941 83.6285 68.2724 84.321 49.677L69.4456 49.677C66.8709 49.677 64.7838 47.5889 64.7838 45.0152L64.7838 4.93103C64.7838 2.35765 66.8709 0.271175 69.4456 0.271175L109.107 0.271179C111.682 0.271179 113.768 2.35928 113.768 4.93103L113.768 45.0152C113.768 53.9295 112.87 62.1098 111.101 69.3316C109.286 76.7366 106.5 83.2111 102.824 88.5759C99.0407 94.0893 94.3085 98.4158 88.7576 101.43C83.1693 104.462 76.6706 106 69.4439 106C66.8709 106 64.7838 103.914 64.7838 101.339ZM4.662 77.6938C2.08862 77.6938 -0.000127408 79.7819 -0.000127633 82.3546L-0.000129292 101.339C-0.000129517 103.914 2.08829 106 4.66199 106C11.8858 106 18.3854 104.461 23.9718 101.429C29.5237 98.4154 34.2585 94.089 38.0423 88.5756C41.7175 83.2108 44.5031 76.736 46.3181 69.3294C48.0865 62.1053 48.984 53.9249 48.984 45.0149L48.984 4.9307C48.984 2.35732 46.8962 0.270845 44.3222 0.270845L4.66233 0.270842C2.08895 0.270841 0.00215292 2.35894 0.0021527 4.93069L0.00214919 45.0152C0.00214897 47.5886 2.08862 49.677 4.66233 49.677L19.3256 49.677C18.6435 68.2721 13.7197 77.6938 4.662 77.6938Z" fill="#0154F7"/>
</svg>
