<svg width="18" height="18" viewBox="0 0 18 18" fill="none" xmlns="http://www.w3.org/2000/svg">
<path d="M15.4284 9.00042C15.4284 9.19328 15.3641 9.32185 15.2356 9.45042L8.16415 16.5218C7.907 16.779 7.52129 16.779 7.26415 16.5218C7.007 16.2647 7.007 15.879 7.26415 15.6218L13.8856 9.00042L7.26415 2.37899C7.007 2.12185 7.007 1.73613 7.26415 1.47899C7.52129 1.22185 7.907 1.22185 8.16415 1.47899L15.2356 8.55042C15.3641 8.67899 15.4284 8.80756 15.4284 9.00042ZM10.7356 8.55042L3.66415 1.47899C3.407 1.22185 3.02129 1.22185 2.76415 1.47899C2.507 1.73613 2.507 2.12185 2.76415 2.37899L9.38557 9.00042L2.76415 15.6218C2.507 15.879 2.507 16.2647 2.76415 16.5218C3.02129 16.779 3.407 16.779 3.66415 16.5218L10.7356 9.45042C10.8641 9.32185 10.9284 9.19328 10.9284 9.00042C10.9284 8.80756 10.8641 8.67899 10.7356 8.55042Z" fill="white"/>
</svg>
