<svg width="90" height="90" viewBox="0 0 90 90" fill="none" xmlns="http://www.w3.org/2000/svg">
<g clip-path="url(#clip0_772_245)">
<path d="M22.2339 29.3053C22.2339 28.3267 23.0271 27.5333 24.0059 27.5333C24.9847 27.5333 25.778 28.3266 25.778 29.3053C25.778 30.2841 24.9847 31.0774 24.0059 31.0774C23.0271 31.0774 22.2339 30.2839 22.2339 29.3053ZM76.8711 53.0002L57.1149 51.2053L51.623 66.6116H61.3886C62.367 66.6116 63.1605 67.4051 63.1605 68.3835V73.6991H66.7042C67.6826 73.6991 68.476 74.4925 68.476 75.4709V86.4565H69.362C70.3404 86.4565 71.1338 87.2499 71.1338 88.2283C71.1338 89.2067 70.3404 90.0002 69.362 90.0002H21.5218C20.5433 90.0002 19.7499 89.2067 19.7499 88.2283C19.7499 87.2499 20.5433 86.4565 21.5218 86.4565H22.4077V75.4709C22.4077 74.4925 23.2011 73.6991 24.1796 73.6991H27.7233V68.3835C27.7233 67.4051 28.5167 66.6116 29.4951 66.6116H39.6463L32.8989 45.9039L12.276 37.7959C11.1527 37.4674 10.582 35.6155 11.9943 34.6384L16.2893 31.986C16.2911 31.986 16.293 31.986 16.293 31.984C18.2665 30.7685 20.125 33.786 18.1515 35.0015L16.8689 35.7935L34.9737 42.9113C35.4663 43.1062 35.8455 43.5064 36.0103 44.0116L43.3745 66.6116H47.8615L54.2372 48.721C54.5067 47.9662 55.2668 47.4789 56.0675 47.5516L73.6993 49.1533L63.7184 32.6751C63.4385 32.2126 63.3873 31.635 63.5784 31.1284L70.5651 12.7292L52.2669 17.827C51.7212 17.9777 51.1134 17.8519 50.6742 17.4939L35.6966 5.31046L34.5378 24.0018C34.5024 24.5759 34.1906 25.0986 33.7015 25.4L31.7204 26.6242C29.7113 27.8648 27.8491 24.8491 29.8582 23.6084L31.0577 22.8678L32.3726 1.65157C32.4786 0.343935 34.0733 -0.547665 35.259 0.38646L52.1996 14.1662L72.9906 8.37577C74.5402 8.04302 75.6377 9.41461 75.1221 10.7127L67.1984 31.5781L78.5471 50.319C79.3758 51.4594 78.3471 53.1055 76.8711 53.0002ZM33.3932 77.2428H25.9514V86.4565H33.3932V77.2428ZM53.9468 77.2428H36.9369V86.4565H53.9468V77.2428ZM57.4905 77.2428V86.4565H64.9323V77.2428H57.4905ZM59.6167 70.1554H31.267V73.6991H59.6167V70.1554Z" fill="#573CFF"/>
</g>
<defs>
<clipPath id="clip0_772_245">
<rect width="90" height="90" fill="white"/>
</clipPath>
</defs>
</svg>
