<svg width="385" height="410" viewBox="0 0 385 410" fill="none" xmlns="http://www.w3.org/2000/svg">
<g clip-path="url(#clip0_2007_336)">
<path d="M183.2 0C193 2.9 202.7 6 212.5 8.8C258 21.9 303.6 34.9 349.1 47.9C357.8 50.4 360.4 54.5 359.4 63.5C359.1 66.1 359.8 68.8 359.8 71.4C359.9 110.9 359.9 150.3 359.8 189.8C359.8 193.1 360.9 194.5 363.8 196C376 202.1 382.8 212.2 383.7 225.7C384.3 234.6 384 243.6 383.8 252.5C383.7 259 378.7 263.9 372.3 264C356 264.2 339.8 264.2 323.5 264C317.7 263.9 312.4 259.7 312.3 254.1C312.1 242.7 311.7 231.1 313.3 219.8C314.9 208.4 322.6 200.3 333.2 195.4C335.1 194.5 336 193.7 336 191.4C335.9 153.5 335.9 115.7 335.9 77.8C335.9 77.4 335.8 77 335.7 76.1C319.8 80.6 304.1 85.1 287.9 89.7C287.9 91.2 287.9 92.6 287.9 94.1C287.9 110.6 288 127.2 287.9 143.7C287.6 177.2 277.1 206.8 253.9 231.2C246.7 238.7 238 244.9 229.5 252.1C231 255.2 232.8 259.3 235.2 263.1C235.9 264.2 238.2 264.6 239.8 264.7C260.6 266.5 279.9 273 297.4 284.3C328.5 304.4 348.5 332.5 356.7 368.6C358.8 377.9 359.3 387.6 360 397.1C360.5 404.3 355.1 409.3 347.8 409.6C346.9 409.6 345.9 409.6 345 409.6C235 409.6 125 409.6 15.1 409.5C11.8 409.5 8.2 408.7 5.3 407.1C1.5 405.1 0.1 401.2 0.2 396.9C1.3 354.4 18 319.6 51 292.7C71.4 276.1 94.8 266.7 121.1 264.6C123.6 264.4 125.3 263.6 126.3 261.1C127.7 257.7 129.5 254.4 131 251.5C124.1 246 117.1 241.3 111 235.6C88.2 214.1 75.4 187.5 73.2 156.4C71.8 136 72.5 115.4 72.3 94.9C72.3 93.2 72.3 91.5 72.3 89.5C58.2 85.5 44.3 81.5 30.3 77.5C23.8 75.6 17.2 73.8 10.7 71.9C3.7 70.1 0 65.7 0 60C0 54.3 3.7 49.9 10.4 48C64.5 32.5 118.7 17 172.8 1.6C174.2 1.2 175.5 0.6 176.8 0C178.9 0 181 0 183.2 0ZM168 385.4C168 374.4 168 363.7 167.9 353.1C167.9 352 167.4 350.8 166.8 349.8C153.6 329.9 140.4 310.1 127 290.3C126.3 289.3 124.4 288.4 123.2 288.5C117.9 289.1 112.6 289.6 107.4 290.9C70.7 300.3 45.6 323 31.3 357.8C27.7 366.5 25.5 375.6 24.8 385.3C72.6 385.4 120 385.4 168 385.4ZM335.3 385.5C334.8 382.2 334.4 379.3 333.9 376.4C324.6 328.9 285 292.5 237.6 288.5C235.1 288.3 233.8 288.9 232.4 290.9C221.4 307.6 210.6 324.4 199 340.7C193.7 348.1 191 355.6 191.8 364.7C192.4 371.5 191.9 378.4 191.9 385.4C239.9 385.5 287.3 385.5 335.3 385.5ZM302.6 60.5C302.6 60.2 302.6 60 302.6 59.7C302.1 59.5 301.7 59.3 301.2 59.2C261.6 47.9 221.9 36.5 182.3 25.2C180.6 24.7 178.6 25 176.9 25.5C144.4 34.7 111.9 44 79.4 53.3C72.1 55.4 64.7 57.5 56.2 59.9C58.2 60.6 58.9 60.9 59.8 61.2C99 72.4 138.2 83.6 177.5 94.8C179.2 95.3 181.2 95.1 182.9 94.6C207 87.8 231 81 255.1 74.1C270.9 69.6 286.8 65 302.6 60.5ZM262 163.1C207.2 185.7 152.7 185.6 97.9 163.1C98 164.1 98.1 164.6 98.2 165.1C102.8 187.9 113.3 207.4 131.5 222.2C147.9 235.6 166.7 241.8 188 239.5C228.4 235.2 256.5 199.1 262 163.1ZM96 96.5C96 106.9 96 116.8 96 126.6C96 132.7 98.7 136.7 104.3 139.4C124.1 148.5 144.9 153.8 166.6 155.4C198.2 157.7 228.4 152.2 257.1 138.7C261.7 136.5 263.9 132.8 263.9 127.9C264 118.4 264 109 264 99.5C264 98.6 263.8 97.8 263.7 96.7C262.6 97 261.9 97.1 261.1 97.4C235.9 104.6 210.7 111.9 185.4 118.8C182 119.7 178 119.7 174.5 118.8C163.9 116.2 153.5 113 143 110C127.6 105.5 112.1 101.1 96 96.5ZM180 326C181 324.7 181.8 323.7 182.5 322.6C190.7 310.3 198.9 298 207.1 285.7C214.5 274.6 214.5 274.6 208 262.7C207 260.8 205.8 260.4 203.9 260.9C188 265 172 265 156.1 260.9C153.9 260.3 152.7 260.9 151.8 263C150.5 266.1 149 269 147.3 271.9C146 274.1 146.2 275.8 147.7 278C157.9 293 167.8 308.1 177.9 323.2C178.5 324.1 179.1 324.9 180 326ZM359.9 239.8C359.9 235.3 360.2 231 359.8 226.8C359.3 220.7 354.1 216 348 216C342.1 215.9 336.7 220.3 336.1 226.2C335.6 230.6 336 235.1 336 239.8C344.1 239.8 351.7 239.8 359.9 239.8Z" fill="#573CFF"/>
<path d="M263.7 360C259.8 360 256 360.1 252.1 360C245.2 359.8 240.1 354.7 240.1 348.1C240.1 341.5 245.2 336.2 252 336.1C260 335.9 268 335.9 276 336.1C282.9 336.2 288 341.4 288 348C288 354.6 282.9 359.8 276.1 360C271.9 360.1 267.8 360 263.7 360Z" fill="#573CFF"/>
</g>
<defs>
<clipPath id="clip0_2007_336">
<rect width="384.1" height="409.6" fill="white"/>
</clipPath>
</defs>
</svg>
