<svg width="146" height="62" viewBox="0 0 146 62" fill="none" xmlns="http://www.w3.org/2000/svg">
<path d="M4.62943 8.90241L4.83406 8.86227C5.19981 8.84941 5.39879 8.93567 5.43099 9.12104C5.62097 13.4538 5.87842 22.1572 6.20325 35.2313C14.0057 26.848 20.5979 20.257 25.9799 15.4586C26.8682 14.6367 27.4501 14.2115 27.7256 14.1828C28.0373 14.1379 28.267 14.2147 28.4145 14.4132L28.445 14.5233C28.4712 14.7721 28.003 15.2548 27.0402 15.9712C23.2159 19.4505 18.9493 23.5983 14.2402 28.4149C11.5302 31.1746 8.86398 34.0492 6.24149 37.0388L6.60232 45.3416C8.93665 45.3884 13.8666 45.3795 21.3924 45.3146C26.1888 45.4202 29.6335 45.5529 31.7266 45.7129L31.7928 45.8004L31.8292 45.9664C31.7275 46.2034 31.5765 46.3323 31.3762 46.3531L31.2823 46.3629C24.9252 46.105 16.825 46.003 6.98146 46.0569C6.97752 46.0196 6.8678 45.9996 6.65223 45.9968L6.65819 46.0528C7.04513 52.3778 7.39139 56.6315 7.69696 58.8137C7.75922 59.2853 7.91491 60.0428 8.16395 61.0861C7.98319 61.2936 7.81836 61.4113 7.66936 61.4394L7.3876 61.4687C7.10092 61.5111 6.84935 60.7447 6.63297 59.1696C6.30516 56.7757 5.94387 52.379 5.54904 45.9793C2.51231 45.7539 0.919517 45.1143 0.770667 44.0605L0.749065 43.8551C0.55888 42.5289 1.99866 40.0899 5.06837 36.5381C4.64297 27.8018 4.24309 18.7671 3.8688 9.43429C4.03906 9.12725 4.29259 8.95001 4.62943 8.90241ZM2.24002 43.5871C2.36064 44.4928 3.46447 45.0574 5.5515 45.2809L5.54562 45.2249C5.50166 44.9275 5.36784 42.6331 5.14424 38.3416C3.07307 40.7959 2.105 42.5444 2.24002 43.5871ZM28.4089 33.6793L28.6343 33.6559C29.035 33.6143 29.3931 33.8286 29.7084 34.2991C29.9893 34.0812 30.2174 33.9631 30.3927 33.945L30.4303 33.941C30.6182 33.9215 30.7878 34.0297 30.9392 34.2656C30.5971 37.0308 30.4752 38.8801 30.5734 39.8134L30.6068 40.1307C30.6147 40.2053 30.6093 40.2751 30.5909 40.3399C30.7466 40.9779 30.9059 41.2884 31.0686 41.2715L31.1626 41.2617C31.7816 41.0088 32.7885 39.6902 34.1835 37.3062C34.8501 35.9412 35.3024 35.2463 35.5403 35.2217L35.7281 35.2021C35.891 35.1852 36.004 35.2364 36.0671 35.3556L36.0809 35.4863C33.8504 39.5547 32.1511 41.6936 30.9832 41.903L30.7014 41.9323C30.188 41.9857 29.8551 41.5296 29.7029 40.5642L29.6112 40.2341C29.5301 39.4626 29.5828 38.0986 29.7694 36.142L29.6754 36.1517C29.28 37.0859 28.5183 38.2091 27.3904 39.5213C26.6578 40.1384 26.0911 40.4677 25.6904 40.5093C25.144 40.4906 24.8499 40.2822 24.808 39.884L24.7589 39.4173C24.7254 38.3767 25.2022 37.0126 26.1893 35.3251C26.9803 34.2994 27.7201 33.7509 28.4089 33.6793ZM26.242 39.0746L26.3418 39.1208L26.3982 39.115C27.0736 38.3152 27.8132 37.1628 28.617 35.6578C28.8361 35.3332 28.9443 35.1584 28.9417 35.1335C28.8039 35.1478 28.6155 35.0416 28.3764 34.8148C28.0383 34.8499 27.5207 35.6459 26.8237 37.2028C26.4084 38.1893 26.2145 38.8132 26.242 39.0746ZM36.1677 22.0611L36.8064 21.9948C36.9066 21.9844 37.0242 22.0791 37.1591 22.279C36.9564 23.7215 36.8984 24.8534 36.9847 25.6747L37.0787 25.6649C43.8053 25.1045 47.9826 24.7398 49.6105 24.5706L49.7449 24.7642L49.7566 24.8762C49.7037 25.0956 49.502 25.2234 49.1514 25.2599L36.9604 26.5263C37.02 32.508 37.4414 39.2194 38.2243 46.6607L38.4108 48.4338C38.4213 48.5334 38.326 48.6502 38.1249 48.7843L37.7117 48.8273L37.4932 48.7367C37.2322 46.9775 37.0591 45.6935 36.974 44.8847L36.8758 43.9515C36.0995 36.5724 35.6706 30.8116 35.5891 26.6688C31.9766 27.107 29.1546 27.5385 27.1231 27.9634C26.7633 27.9127 26.5769 27.8252 26.5638 27.7007L26.5421 27.4955C26.4911 27.0101 29.5149 26.4507 35.6135 25.8171L35.6017 25.7051C35.3948 23.739 35.5835 22.5244 36.1677 22.0611ZM43.5813 31.7069L44.0134 31.662C44.4642 31.6151 44.7939 31.9206 45.0023 32.5782C45.1031 33.5363 44.5278 34.4452 43.2763 35.3048C43.0264 35.4566 42.5699 35.6298 41.9067 35.8245C41.6246 36.8727 41.5018 37.5711 41.5385 37.9195L41.5738 38.2555C41.6367 38.8528 42.0642 39.1858 42.8563 39.2544C43.8205 39.1542 45.2179 37.9964 47.0483 35.781C47.4843 35.2325 47.9287 34.5825 48.3813 33.8311L48.6314 33.8617C48.771 33.9855 48.8286 34.1116 48.8041 34.2399L48.814 34.3333C48.5694 35.3776 47.412 36.8313 45.342 38.6942C44.3081 39.4558 43.4718 39.8698 42.8331 39.9361L42.5325 39.9673C41.5683 40.0675 40.8638 39.5683 40.419 38.4698C40.3697 38.3617 40.3359 38.2205 40.3175 38.0463L40.2763 37.6544C40.1244 36.2109 40.7801 34.5012 42.2432 32.5252C42.8347 32.0109 43.2808 31.7381 43.5813 31.7069ZM42.3732 34.6627L42.4107 34.6589C42.9032 34.4064 43.2416 34.0127 43.4259 33.4778C43.4912 33.2572 43.5168 33.0785 43.5024 32.9416C43.1727 33.1771 42.8732 33.5793 42.6039 34.1482C42.4461 34.4539 42.3692 34.6254 42.3732 34.6627ZM75.7254 0.988265L75.8943 0.970703C77.3247 1.08631 78.3475 4.06835 78.9626 9.91679C79.0988 10.6071 79.1687 10.9709 79.1724 11.0083C79.5361 14.4675 80.01 21.6767 80.5931 32.6358L83.1289 32.3724C83.204 32.3645 83.2948 32.4432 83.4011 32.6083L83.4182 32.7763C83.3669 33.008 83.1282 33.1461 82.7027 33.1903L80.6735 33.401C80.974 39.0181 81.2782 43.295 81.5869 46.2317C81.9172 49.3674 82.3501 51.5615 82.8871 52.814C82.6729 53.0627 82.4029 53.204 82.0771 53.2378C81.514 53.2964 80.9993 51.1107 80.5329 46.6808L80.5247 46.6061C80.2316 43.8188 79.8895 39.483 79.4982 33.5987L79.4045 33.6084C77.8015 33.775 74.3902 34.4438 69.1712 35.6149C68.547 39.4285 67.624 45.877 66.4023 54.9606L65.9304 55.3492L65.1791 55.4273C65.0637 55.4141 64.936 55.2827 64.7958 55.0331C65.2643 51.4244 66.1651 45.0663 67.4982 35.9586C64.71 36.6508 62.4069 37.2611 60.5888 37.7896L60.3259 37.817C60.2382 37.8261 60.1137 37.7258 59.9524 37.5161L59.9347 37.3481C59.8837 36.8628 62.4789 36.0209 67.7205 34.8222C68.8101 27.2493 70.2267 18.9947 71.9705 10.0583C73.3466 4.12866 74.5985 1.10535 75.7254 0.988265ZM69.3093 34.5816C69.4155 34.5077 69.4998 34.4675 69.5625 34.461C74.1552 33.5939 77.466 33.055 79.4945 32.8442L79.4848 32.7509C78.9671 22.8921 78.4717 15.7167 77.9986 11.2245L77.8729 10.03C77.3306 4.87836 76.6656 2.34351 75.8764 2.42548C74.9251 2.52438 73.3801 9.32053 71.2424 22.8139C70.4961 27.0302 69.8517 30.9527 69.3093 34.5816ZM85.0041 16.9878L85.6423 16.9215C85.7428 16.9111 85.8603 17.0058 85.9949 17.2057C85.7926 18.6481 85.7346 19.78 85.8209 20.6014L85.9146 20.5916C92.6411 20.0312 96.8186 19.6664 98.4468 19.4972L98.5807 19.6909L98.5926 19.8029C98.5398 20.0223 98.3382 20.1501 97.9871 20.1866L85.7963 21.453C85.8558 27.4346 86.2776 34.1461 87.0601 41.5873L87.2468 43.3605C87.2572 43.46 87.162 43.5769 86.9612 43.7109L86.5476 43.7539L86.3289 43.6633C86.0686 41.9042 85.8952 40.6202 85.8097 39.8114L85.7115 38.8781C84.9357 31.4991 84.5065 25.7382 84.4254 21.5954C80.8126 22.0337 77.9904 22.4652 75.959 22.8901C75.599 22.8394 75.413 22.7519 75.3996 22.6274L75.3781 22.4221C75.3275 21.9368 78.3512 21.3774 84.4492 20.7438L84.4381 20.6318C84.2305 18.6657 84.4195 17.4511 85.0041 16.9878ZM90.844 13.3054L91.1445 13.2742C91.3201 13.256 91.48 13.3337 91.6251 13.5073L91.6325 13.582C91.2844 15.6813 90.995 18.7682 90.7652 22.8426C90.6819 25.5433 90.6752 27.7642 90.7443 29.5056C92.5995 27.1618 93.7606 25.9216 94.227 25.7851L94.4524 25.7617C94.8027 25.7252 94.9932 25.8439 95.0214 26.1176C95.0333 26.2297 94.5126 26.8183 93.4601 27.8837C91.7366 29.7862 90.8619 31.0407 90.8373 31.6471L90.9154 32.3937C90.9288 32.5181 91.2323 32.5747 91.8259 32.5633C93.266 32.4137 95.2677 31.4636 97.8309 29.7129C98.4126 29.1115 98.7726 28.8036 98.911 28.7894C99.1527 28.8019 99.2785 28.8518 99.2874 28.9389L99.3008 29.0696C98.6298 29.9067 97.5847 30.6882 96.1677 31.4141C94.1876 32.4501 92.5839 33.0318 91.3573 33.1593L90.9437 33.2021L91.0694 34.3967C91.0716 34.4216 91.0605 34.4354 91.0359 34.438L91.0828 34.5274L91.1892 35.5353C91.2256 35.8838 91.3022 36.4293 91.4183 37.172C91.2836 37.337 91.1602 37.4252 91.0471 37.437L90.7659 37.4663C90.5904 37.4844 90.4282 36.7843 90.2787 35.3657C90.179 34.42 90.0861 33.656 89.9998 33.0738C89.6821 32.9433 89.5081 32.7349 89.4783 32.4487L89.4508 32.1874C89.4605 31.7965 89.5847 31.4124 89.8235 31.0354C89.5148 27.9854 89.4672 23.8014 89.6799 18.4833C89.8733 16.1108 90.066 14.5121 90.2579 13.6871C90.4862 13.4495 90.6811 13.3223 90.844 13.3054ZM99.8958 26.0642L100.215 26.031C100.415 26.0102 100.576 26.0879 100.695 26.2642L100.701 26.3202C100.472 28.7215 100.403 30.3452 100.492 31.1913L100.533 31.5833C100.585 32.0685 100.742 32.3604 101.005 32.4589C101.732 32.3834 102.995 30.9753 104.796 28.2347L105.071 28.1494L105.278 28.1279C105.328 28.1227 105.39 28.1729 105.464 28.2783C105.503 28.6392 104.555 29.9201 102.622 32.1211C101.983 32.6655 101.5 32.9546 101.174 32.9884L100.799 33.0275C100.236 33.086 99.7738 32.549 99.4146 31.4165C99.3528 31.1964 99.3082 30.9495 99.2792 30.6757L99.2108 30.0224C99.0612 27.522 99.1684 26.253 99.5314 26.2152L99.8958 26.0642ZM99.3514 24.498C99.4302 24.7666 99.6571 24.8814 100.033 24.8423L100.202 24.8248C100.415 24.8027 100.608 24.5938 100.782 24.1984C100.813 24.1323 100.824 24.0619 100.817 23.9872L100.789 23.726C100.788 23.7135 100.8 23.706 100.825 23.7034L100.781 23.6513L100.779 23.6326C100.758 23.4336 100.666 23.2733 100.501 23.1521L99.9777 23.0554C99.4235 23.2011 99.1937 23.6024 99.2881 24.2592L99.3514 24.498ZM106.491 24.511L106.661 24.4934C106.94 24.5021 107.088 24.5873 107.105 24.7491C107.005 27.8918 106.985 29.806 107.045 30.4917L107.047 30.5104L107.084 30.5065C108.434 27.5736 109.517 26.0711 110.332 25.9989C110.96 25.9463 111.393 26.6939 111.631 28.2415C111.73 29.4138 111.96 30.2201 112.322 30.6604C112.431 30.7246 112.535 30.7516 112.635 30.7412L112.71 30.7334C113.325 30.6821 114.642 29.4761 116.659 27.1154C116.652 27.0532 116.804 26.9871 117.113 26.9172C117.263 26.9016 117.389 26.9515 117.49 27.0668L117.487 27.2181C116.917 27.944 116.193 28.7552 115.312 29.6517C114.076 30.7739 113.131 31.3627 112.479 31.4179C111.662 31.4775 111.138 30.9533 110.908 29.8451C110.659 28.3236 110.484 27.5681 110.385 27.5785C110.377 27.5039 110.289 27.4501 110.121 27.4173C109.657 27.4654 108.878 28.9049 107.784 31.7358C107.4 32.6687 107.122 33.1443 106.946 33.1625C106.852 33.2227 106.735 33.2599 106.597 33.2743L106.39 33.2957C106.056 33.2424 105.873 33.016 105.844 32.6165L105.787 32.0753C105.675 30.5271 105.684 28.1423 105.813 24.9211C105.989 24.6638 106.215 24.5272 106.491 24.511ZM120.046 22.3104L120.403 22.2733C120.746 22.288 120.928 22.3949 120.949 22.5939C120.976 22.8428 120.586 23.1098 119.78 23.3947C119.059 24.1237 118.74 24.8802 118.822 25.6641C118.888 26.2863 119.584 27.126 120.911 28.1833C121.294 28.6969 121.493 29.0285 121.509 29.1778L121.565 29.172C123.566 27.0142 124.724 25.9191 125.036 25.8866L125.356 25.8534C125.419 25.8469 125.488 25.9026 125.564 26.0205L125.577 26.1512L121.913 29.9472C121.735 30.0663 121.612 30.5131 121.541 31.2878C121.238 32.2627 120.657 33.2351 119.797 34.205C119.202 34.8077 118.711 35.1293 118.322 35.1695L118.135 35.1891C117.909 35.2125 117.736 35.1299 117.615 34.9412L117.595 34.7545C117.529 34.1199 118.534 32.6065 120.612 30.2145L120.584 29.9531C120.514 29.2812 119.721 28.4954 118.209 27.5959C117.705 27.1325 117.426 26.6458 117.372 26.1356L117.358 26.0049C117.221 24.6984 117.892 23.5532 119.37 22.5692C119.646 22.4149 119.87 22.3286 120.046 22.3104ZM118.614 34.328L118.62 34.3839C119.533 33.3204 120.093 32.5012 120.298 31.9264L120.241 31.9322C119.399 32.9507 118.856 33.7492 118.614 34.328ZM127.396 23.0563L127.678 23.027C127.954 22.9984 128.194 23.1119 128.398 23.3674L128.412 23.4981C128.286 23.7501 128.035 23.8957 127.66 23.9347C127.085 24.963 126.789 26.1321 126.775 27.4419C126.765 27.5813 126.769 27.7382 126.787 27.9124L126.834 28.3604C126.918 29.1568 127.17 29.6275 127.591 29.7725L127.609 29.7706C128.16 29.7133 128.421 28.6359 128.389 26.5383L128.301 25.6984C127.757 25.3398 127.471 25.0236 127.442 24.7498L127.43 24.6378C127.399 24.3392 127.626 24.0955 128.113 23.9065L128.206 23.8968C128.683 23.8473 129.006 24.2791 129.179 25.1921C129.374 25.3606 129.872 25.466 130.674 25.5085L131.406 25.4324C131.945 25.3764 132.461 25.2223 132.953 24.9698L133.158 24.9297C133.366 24.9835 133.455 25.1126 133.426 25.3169L133.288 25.4445C133.126 25.5872 132.792 25.7287 132.288 25.8691C131.831 25.9795 131.453 26.0503 131.152 26.0815L130.814 26.1166C130.326 26.1674 129.822 26.1379 129.304 26.0281L129.308 26.0655C129.525 28.1187 129.006 29.5689 127.753 30.4161C127.559 30.4991 127.393 30.5477 127.256 30.562L127.068 30.5815C126.267 30.6648 125.699 30.0823 125.365 28.8338L125.3 28.2179C125.166 26.9486 125.416 25.5955 126.05 24.1585C126.472 23.4731 126.92 23.1058 127.396 23.0563ZM134.421 21.6095L134.591 21.5919C134.87 21.6006 135.019 21.6859 135.036 21.8476C134.935 24.9903 134.915 26.9044 134.975 27.5901L134.977 27.6088L135.014 27.6049C136.364 24.672 137.446 23.1695 138.262 23.0974C138.89 23.0449 139.322 23.7923 139.561 25.34C139.659 26.5123 139.89 27.3186 140.253 27.7589C140.361 27.8232 140.465 27.8501 140.565 27.8397L140.641 27.8319C141.255 27.7805 142.572 26.5746 144.589 24.2139C144.583 24.1516 144.734 24.0856 145.043 24.0158C145.194 24.0001 145.319 24.05 145.42 24.1653L145.417 24.3166C144.847 25.0424 144.122 25.8536 143.242 26.7502C142.005 27.8725 141.061 28.4612 140.408 28.5163C139.592 28.5761 139.068 28.0518 138.837 26.9435C138.589 25.4221 138.414 24.6666 138.315 24.677C138.306 24.6023 138.219 24.5486 138.05 24.5157C137.587 24.5638 136.808 26.0034 135.713 28.8343C135.33 29.7672 135.051 30.2428 134.876 30.261C134.781 30.3211 134.665 30.3584 134.527 30.3727L134.32 30.3942C133.985 30.3409 133.804 30.1146 133.774 29.7151L133.718 29.1737C133.605 27.6255 133.613 25.2408 133.743 22.0196C133.918 21.7624 134.145 21.6256 134.421 21.6095Z" fill="#573CFF"/>
</svg>
