<svg width="443" height="506" viewBox="0 0 443 506" fill="none" xmlns="http://www.w3.org/2000/svg">
<g clip-path="url(#clip0_2006_280)">
<path d="M317.503 506C253.468 506 189.532 506 125.497 506C121.637 503.43 118.965 500.169 120.845 495.327C122.528 490.682 126.685 490.188 131.039 490.286C138.66 490.385 146.182 490.089 153.803 490.385C157.465 490.583 158.95 489.199 160.038 485.839C163.106 476.648 166.57 467.556 169.737 458.464C171.123 454.511 172.509 450.459 173.993 446.011C171.321 446.011 169.342 446.011 167.362 446.011C124.111 446.011 80.9593 446.11 37.7084 446.011C15.0438 445.814 0 430.792 0 408.061C0 320.203 0 232.246 0.0989723 144.289C0.0989723 140.237 0.593834 135.987 1.58356 132.133C6.03731 116.024 19.8934 106.24 38.1043 106.24C96.498 106.24 154.892 106.24 213.186 106.24C216.254 106.24 218.63 106.141 220.411 102.682C235.059 74.6152 253.765 49.4141 274.648 25.7941C283.853 15.516 293.255 5.23789 306.616 0C308.596 0 310.575 0 312.555 0C320.076 2.86602 322.848 8.69688 322.551 16.4055C322.452 19.8645 322.254 23.3234 321.66 26.6836C318.097 46.0539 310.872 64.2383 303.251 82.3238C299.985 90.1313 296.323 97.8398 292.562 106.24C295.234 106.24 297.214 106.24 299.094 106.24C334.328 106.24 369.662 106.24 404.896 106.24C427.659 106.24 442.901 121.361 442.901 143.993C442.901 232.048 442.901 320.104 442.901 408.259C442.901 412.113 442.406 416.165 441.416 419.921C436.963 436.227 423.305 445.913 404.995 445.913C361.645 446.011 318.295 445.913 274.945 445.913C273.065 445.913 271.184 445.913 268.71 445.913C273.955 460.638 278.805 474.375 283.952 488.112C284.347 489.199 286.723 490.188 288.207 490.188C296.125 490.385 304.043 490.385 311.961 490.286C316.315 490.188 320.472 490.682 322.155 495.327C324.035 500.169 321.363 503.43 317.503 506ZM389.555 395.214C389.555 315.558 389.555 236.496 389.555 157.236C388.664 157.137 388.07 156.939 387.378 156.939C346.106 156.939 304.934 156.84 263.662 157.038C262.178 157.038 260.198 158.026 259.208 159.212C253.666 165.932 248.321 172.85 242.977 179.768C242.284 180.658 241.591 182.239 241.789 183.227C244.066 193.802 237.731 201.214 231.892 208.429C229.814 210.899 228.824 212.975 228.725 216.137C228.23 235.705 220.708 246.082 202.299 252.901C200.122 253.692 197.945 254.384 195.767 255.075C186.068 258.238 176.567 261.697 168.154 267.923C160.434 273.655 149.646 268.615 148.261 259.029C147.865 256.459 147.766 253.791 147.568 251.122C145.885 224.636 151.725 201.313 175.775 185.896C176.666 185.303 177.754 184.314 177.853 183.425C178.249 172.455 184.385 164.648 192.006 157.236C145.588 157.236 99.4672 157.236 53.3461 157.236C53.3461 236.792 53.3461 315.954 53.3461 395.214C165.68 395.214 277.419 395.214 389.555 395.214ZM211.009 121.954C209.227 121.855 208.238 121.657 207.347 121.657C150.636 121.657 93.9247 121.559 37.1146 121.657C23.7534 121.657 15.6376 130.354 15.6376 144.091C15.6376 232.048 15.6376 320.005 15.6376 407.962C15.6376 409.939 15.6376 411.916 16.0335 413.892C18.2109 424.664 26.1287 430.396 38.9951 430.396C118.965 430.396 198.934 430.396 279.003 430.396C321.066 430.396 363.129 430.396 405.193 430.396C419.049 430.396 427.461 422.293 427.461 408.852C427.461 320.203 427.461 231.653 427.461 143.004C427.461 130.651 419.247 121.855 406.875 121.756C367.088 121.559 327.4 121.657 287.614 121.756C286.327 121.756 284.347 122.152 283.754 123.14C279.993 128.872 276.529 134.703 272.57 141.324C275.44 141.324 277.419 141.324 279.3 141.324C317.701 141.324 356.201 141.324 394.603 141.324C403.411 141.324 405.588 143.597 405.588 152.492C405.588 235.013 405.588 317.535 405.588 400.056C405.588 408.753 403.213 411.125 394.405 411.125C279.102 411.125 163.799 411.125 48.5954 411.125C40.1828 411.125 37.7084 408.654 37.7084 400.254C37.7084 317.535 37.7084 234.914 37.7084 152.195C37.7084 143.696 40.0838 141.324 48.4964 141.324C87.8874 141.324 127.377 141.324 166.768 141.324C177.655 141.324 188.542 141.423 199.429 141.225C201.013 141.225 203.487 140.237 204.081 139.051C206.456 133.616 208.535 128.081 211.009 121.954ZM307.705 18.975C306.913 18.4809 306.022 17.9867 305.231 17.4926C262.672 57.4191 231.595 104.955 212.592 160.793C218.333 164.154 224.073 167.415 229.814 170.676C268.809 126.302 294.443 75.7023 307.705 18.975ZM175.082 489.99C206.258 489.99 236.841 489.99 268.017 489.99C263.167 476.352 258.219 463.109 253.666 449.767C252.577 446.703 251.093 445.814 248.025 445.814C232.486 445.913 217.046 445.913 201.508 445.913C190.819 445.913 190.819 445.913 187.256 455.795C183.297 467.062 179.239 478.328 175.082 489.99ZM163.403 250.628C175.973 245.983 188.047 241.437 200.122 236.891C209.029 233.531 212.889 226.712 213.582 217.521C213.879 213.469 213.087 210.702 209.029 208.923C204.972 207.144 201.31 204.574 197.45 202.4C186.761 196.174 185.375 196.174 176.765 205.266C173.004 209.219 169.737 214.062 167.461 219.003C162.809 229.084 162.611 239.955 163.403 250.628ZM193.491 182.14C202.398 187.279 211.405 192.517 221.005 198.052C223.183 194.395 225.063 191.035 227.24 187.279C220.807 183.524 214.869 180.065 208.931 176.705C199.033 170.973 199.033 170.973 193.491 182.14Z" fill="#002935"/>
<path d="M152.219 319.907C161.523 327.22 170.331 333.841 178.645 341.056C180.822 342.934 182.703 346.491 182.604 349.259C182.505 355.485 175.082 357.758 169.539 353.409C159.543 345.701 149.844 337.399 139.65 329.987C128.466 321.883 128.367 316.349 140.442 308.838C150.636 302.513 160.335 295.397 170.232 288.578C173.399 286.404 177.061 285.613 179.734 288.479C181.515 290.456 182.604 293.915 182.505 296.682C182.406 298.56 179.931 300.734 178.051 302.118C169.638 308.047 161.226 313.68 152.219 319.907Z" fill="#002935"/>
<path d="M290.681 319.808C282.269 314.076 274.45 308.64 266.631 303.304C265.444 302.513 264.157 301.722 263.068 300.734C259.703 297.868 259.01 293.421 261.584 290.16C264.256 286.701 267.918 285.614 271.58 287.985C284.05 296.287 296.422 304.687 308.595 313.384C312.851 316.448 313.049 321.982 308.991 325.342C296.917 335.225 284.545 344.91 272.174 354.398C268.71 357.066 264.157 356.177 261.584 352.817C259.01 349.456 259.505 344.812 263.167 341.847C271.085 335.423 279.102 329.197 287.118 322.872C288.207 321.982 289.098 321.093 290.681 319.808Z" fill="#002935"/>
<path d="M202.992 360.525C205.071 352.816 206.852 346.392 208.535 339.87C213.582 320.994 218.63 302.117 223.677 283.241C225.261 277.41 228.329 274.643 232.585 275.137C237.929 275.73 240.602 280.375 238.919 286.7C234.96 301.623 230.902 316.546 226.943 331.469C224.271 341.352 221.797 351.136 219.026 360.92C217.343 366.751 212.197 369.518 207.842 366.553C205.565 365.17 204.378 362.304 202.992 360.525Z" fill="#002935"/>
</g>
<defs>
<clipPath id="clip0_2006_280">
<rect width="443" height="506" fill="white"/>
</clipPath>
</defs>
</svg>
